{"glyphs":{"0":{"ha":744,"x_min":83,"x_max":661,"o":"m 372 -15 q 156 90 229 -15 q 83 394 83 194 q 157 690 83 585 q 372 796 231 796 q 588 690 514 796 q 661 394 661 585 q 588 90 661 194 q 372 -15 515 -15 m 372 58 q 510 144 463 58 q 558 394 558 231 q 510 638 558 554 q 372 722 463 722 q 234 638 282 722 q 186 394 186 554 q 234 144 186 231 q 372 58 282 58 z "},"1":{"ha":433,"x_min":61,"x_max":392,"o":"m 65 74 l 182 74 l 182 692 l 64 672 l 61 746 l 282 782 l 282 74 l 392 74 l 392 0 l 65 0 l 65 74 z "},"2":{"ha":635,"x_min":56,"x_max":571,"o":"m 571 0 l 56 0 l 56 69 l 281 297 q 389 413 353 371 q 443 496 425 456 q 461 585 461 536 q 426 683 461 644 q 319 722 390 722 q 206 682 247 722 q 165 567 165 642 q 176 481 165 532 l 82 481 q 69 568 69 525 q 141 734 69 672 q 333 796 213 796 q 502 740 440 796 q 564 596 564 685 q 539 488 564 539 q 471 388 514 438 q 343 254 428 339 l 168 78 l 478 78 l 478 226 l 569 226 l 571 0 z "},"3":{"ha":664,"x_min":42,"x_max":608,"o":"m 439 413 q 562 343 515 397 q 608 210 608 289 q 534 46 608 106 q 331 -14 460 -14 q 158 28 231 -14 q 42 149 86 71 l 124 194 q 335 67 196 67 q 460 105 415 67 q 506 210 506 143 q 446 331 506 292 q 260 369 386 369 l 260 449 q 494 593 494 449 q 453 682 494 649 q 338 715 413 715 q 214 680 265 715 q 140 581 163 644 l 57 619 q 165 749 92 703 q 339 796 239 796 q 523 742 454 796 q 592 597 592 688 q 549 481 592 531 q 439 413 507 431 z "},"4":{"ha":629,"x_min":0,"x_max":588,"o":"m 249 74 l 371 74 l 371 206 l 10 206 l 0 275 l 369 782 l 465 782 l 465 279 l 588 279 l 588 206 l 465 206 l 465 74 l 560 74 l 560 0 l 249 0 l 249 74 m 371 279 l 371 658 l 93 279 l 371 279 z "},"5":{"ha":682,"x_min":56,"x_max":628,"o":"m 368 497 q 560 427 492 497 q 628 242 628 357 q 550 53 628 122 q 340 -15 472 -15 q 56 115 172 -15 l 121 182 q 339 71 215 71 q 476 117 426 71 q 525 239 525 163 q 478 363 525 317 q 350 408 432 408 q 253 389 299 408 q 174 335 208 369 l 92 368 l 101 782 l 582 782 l 582 582 l 485 582 l 485 700 l 189 700 l 181 436 q 267 481 218 465 q 368 497 317 497 z "},"6":{"ha":639,"x_min":53,"x_max":592,"o":"m 356 496 q 474 465 419 496 q 560 377 528 433 q 592 249 592 321 q 558 114 592 174 q 463 20 524 54 q 326 -14 401 -14 q 185 19 247 -14 q 88 111 124 51 q 53 247 53 171 q 65 350 53 304 q 105 449 76 396 q 192 590 133 501 l 363 849 l 444 793 l 218 460 q 356 496 276 496 m 326 65 q 450 115 404 65 q 496 246 496 165 q 452 372 496 325 q 333 419 408 419 q 207 372 258 419 q 156 242 156 324 q 200 115 156 165 q 326 65 244 65 z "},"7":{"ha":603,"x_min":17,"x_max":547,"o":"m 440 704 l 117 704 l 117 571 l 17 571 l 17 782 l 547 782 l 547 711 l 278 0 l 178 0 l 440 704 z "},"8":{"ha":644,"x_min":42,"x_max":603,"o":"m 324 -15 q 115 47 189 -15 q 42 208 42 110 q 82 331 42 279 q 196 408 122 383 q 97 483 128 438 q 67 592 67 528 q 136 740 67 683 q 322 796 206 796 q 510 740 440 796 q 579 592 579 685 q 447 407 579 456 q 563 335 524 386 q 603 210 603 283 q 528 47 603 110 q 324 -15 454 -15 m 381 435 q 442 486 411 446 q 474 583 474 526 q 434 681 474 644 q 322 718 394 718 q 212 682 251 718 q 172 583 172 646 q 225 482 172 517 q 381 435 278 447 m 324 64 q 446 104 400 64 q 492 213 492 144 q 436 323 492 288 q 260 378 381 358 q 211 349 236 372 q 169 291 186 326 q 153 214 153 256 q 199 105 153 146 q 324 64 244 64 z "},"9":{"ha":639,"x_min":47,"x_max":586,"o":"m 313 797 q 453 765 392 797 q 551 672 515 732 q 586 536 586 613 q 574 433 586 479 q 534 335 563 388 q 447 193 506 282 l 276 -65 l 194 -10 l 421 324 q 283 288 363 288 q 165 319 219 288 q 79 406 111 350 q 47 535 47 463 q 81 669 47 610 q 176 763 115 729 q 313 797 238 797 m 306 364 q 432 412 381 364 q 483 542 483 460 q 439 668 483 618 q 313 718 394 718 q 189 668 235 718 q 143 538 143 618 q 187 411 143 458 q 306 364 231 364 z "},"\u0000":{"ha":0,"x_min":0,"x_max":0,"o":""},"\r":{"ha":424,"x_min":0,"x_max":0,"o":""}," ":{"ha":424,"x_min":0,"x_max":0,"o":""},"A":{"ha":938,"x_min":39,"x_max":897,"o":"m 39 74 l 139 74 l 365 708 l 278 708 l 278 782 l 660 782 l 660 708 l 569 708 l 803 74 l 897 74 l 897 0 l 579 0 l 579 74 l 683 74 l 604 301 l 321 301 l 243 74 l 347 74 l 347 0 l 39 0 l 39 74 m 582 375 l 468 707 l 460 707 l 343 375 l 582 375 z "},"Á":{"ha":938,"x_min":39,"x_max":897,"o":"m 39 74 l 139 74 l 365 708 l 278 708 l 278 782 l 660 782 l 660 708 l 569 708 l 803 74 l 897 74 l 897 0 l 579 0 l 579 74 l 683 74 l 604 301 l 321 301 l 243 74 l 347 74 l 347 0 l 39 0 l 39 74 m 582 375 l 468 707 l 460 707 l 343 375 l 582 375 m 511 1100 l 628 1100 l 503 899 l 438 899 l 511 1100 z "},"Ă":{"ha":938,"x_min":39,"x_max":897,"o":"m 39 74 l 139 74 l 365 708 l 278 708 l 278 782 l 660 782 l 660 708 l 569 708 l 803 74 l 897 74 l 897 0 l 579 0 l 579 74 l 683 74 l 604 301 l 321 301 l 243 74 l 347 74 l 347 0 l 39 0 l 39 74 m 582 375 l 468 707 l 460 707 l 343 375 l 582 375 m 467 861 q 365 899 406 861 q 317 1000 324 936 l 385 1000 q 469 924 400 924 q 524 944 501 924 q 553 1000 547 964 l 622 1000 q 574 898 615 935 q 467 861 532 861 z "},"Ắ":{"ha":938,"x_min":39,"x_max":897,"o":"m 39 74 l 139 74 l 365 708 l 278 708 l 278 782 l 660 782 l 660 708 l 569 708 l 803 74 l 897 74 l 897 0 l 579 0 l 579 74 l 683 74 l 604 301 l 321 301 l 243 74 l 347 74 l 347 0 l 39 0 l 39 74 m 582 375 l 468 707 l 460 707 l 343 375 l 582 375 m 483 1165 l 600 1165 l 494 1019 l 429 1019 l 483 1165 m 467 861 q 365 899 406 861 q 317 1000 324 936 l 385 1000 q 469 924 400 924 q 524 944 501 924 q 553 1000 547 964 l 622 1000 q 574 898 615 935 q 467 861 532 861 z "},"Ặ":{"ha":938,"x_min":39,"x_max":897,"o":"m 39 74 l 139 74 l 365 708 l 278 708 l 278 782 l 660 782 l 660 708 l 569 708 l 803 74 l 897 74 l 897 0 l 579 0 l 579 74 l 683 74 l 604 301 l 321 301 l 243 74 l 347 74 l 347 0 l 39 0 l 39 74 m 582 375 l 468 707 l 460 707 l 343 375 l 582 375 m 467 861 q 365 899 406 861 q 317 1000 324 936 l 385 1000 q 469 924 400 924 q 524 944 501 924 q 553 1000 547 964 l 622 1000 q 574 898 615 935 q 467 861 532 861 m 464 -194 q 417 -176 436 -194 q 397 -132 397 -157 q 416 -87 397 -106 q 464 -69 435 -69 q 511 -86 493 -69 q 529 -132 529 -103 q 513 -176 531 -157 q 464 -194 494 -194 z "},"Ằ":{"ha":938,"x_min":39,"x_max":897,"o":"m 39 74 l 139 74 l 365 708 l 278 708 l 278 782 l 660 782 l 660 708 l 569 708 l 803 74 l 897 74 l 897 0 l 579 0 l 579 74 l 683 74 l 604 301 l 321 301 l 243 74 l 347 74 l 347 0 l 39 0 l 39 74 m 582 375 l 468 707 l 460 707 l 343 375 l 582 375 m 338 1165 l 454 1165 l 508 1019 l 443 1019 l 338 1165 m 467 861 q 365 899 406 861 q 317 1000 324 936 l 385 1000 q 469 924 400 924 q 524 944 501 924 q 553 1000 547 964 l 622 1000 q 574 898 615 935 q 467 861 532 861 z "},"Ẳ":{"ha":938,"x_min":39,"x_max":897,"o":"m 39 74 l 139 74 l 365 708 l 278 708 l 278 782 l 660 782 l 660 708 l 569 708 l 803 74 l 897 74 l 897 0 l 579 0 l 579 74 l 683 74 l 604 301 l 321 301 l 243 74 l 347 74 l 347 0 l 39 0 l 39 74 m 582 375 l 468 707 l 460 707 l 343 375 l 582 375 m 440 1060 q 488 1110 488 1075 q 474 1138 488 1128 q 440 1147 461 1147 q 381 1129 413 1147 l 360 1188 q 447 1211 401 1211 q 529 1183 497 1211 q 561 1113 561 1156 q 460 999 561 1026 l 440 1060 m 467 861 q 365 899 406 861 q 317 1000 324 936 l 385 1000 q 469 924 400 924 q 524 944 501 924 q 553 1000 547 964 l 622 1000 q 574 898 615 935 q 467 861 532 861 z "},"Ẵ":{"ha":938,"x_min":39,"x_max":897,"o":"m 39 74 l 139 74 l 365 708 l 278 708 l 278 782 l 660 782 l 660 708 l 569 708 l 803 74 l 897 74 l 897 0 l 579 0 l 579 74 l 683 74 l 604 301 l 321 301 l 243 74 l 347 74 l 347 0 l 39 0 l 39 74 m 582 375 l 468 707 l 460 707 l 343 375 l 582 375 m 557 1051 q 516 1058 538 1051 q 476 1070 494 1064 q 451 1079 457 1076 q 372 1103 396 1103 q 344 1092 354 1103 q 329 1057 333 1082 l 286 1057 q 318 1149 292 1118 q 388 1179 344 1179 q 485 1151 418 1179 q 563 1128 543 1128 q 596 1139 583 1128 q 614 1176 608 1150 l 654 1176 q 626 1085 650 1119 q 557 1051 603 1051 m 467 861 q 365 899 406 861 q 317 1000 324 936 l 385 1000 q 469 924 400 924 q 524 944 501 924 q 553 1000 547 964 l 622 1000 q 574 898 615 935 q 467 861 532 861 z "},"Ǎ":{"ha":938,"x_min":39,"x_max":897,"o":"m 39 74 l 139 74 l 365 708 l 278 708 l 278 782 l 660 782 l 660 708 l 569 708 l 803 74 l 897 74 l 897 0 l 579 0 l 579 74 l 683 74 l 604 301 l 321 301 l 243 74 l 347 74 l 347 0 l 39 0 l 39 74 m 582 375 l 468 707 l 460 707 l 343 375 l 582 375 m 308 1068 l 382 1068 l 471 917 l 557 1068 l 629 1068 l 519 858 l 421 858 l 308 1068 z "},"Â":{"ha":938,"x_min":39,"x_max":897,"o":"m 39 74 l 139 74 l 365 708 l 278 708 l 278 782 l 660 782 l 660 708 l 569 708 l 803 74 l 897 74 l 897 0 l 579 0 l 579 74 l 683 74 l 604 301 l 321 301 l 243 74 l 347 74 l 347 0 l 39 0 l 39 74 m 582 375 l 468 707 l 460 707 l 343 375 l 582 375 m 415 1078 l 524 1078 l 639 860 l 561 860 l 469 1033 l 378 860 l 300 860 l 415 1078 z "},"Ấ":{"ha":938,"x_min":39,"x_max":897,"o":"m 39 74 l 139 74 l 365 708 l 278 708 l 278 782 l 660 782 l 660 708 l 569 708 l 803 74 l 897 74 l 897 0 l 579 0 l 579 74 l 683 74 l 604 301 l 321 301 l 243 74 l 347 74 l 347 0 l 39 0 l 39 74 m 582 375 l 468 707 l 460 707 l 343 375 l 582 375 m 660 1146 l 763 1146 l 665 986 l 600 986 l 660 1146 m 415 1036 l 524 1036 l 639 860 l 561 860 l 469 992 l 378 860 l 300 860 l 415 1036 z "},"Ậ":{"ha":938,"x_min":39,"x_max":897,"o":"m 39 74 l 139 74 l 365 708 l 278 708 l 278 782 l 660 782 l 660 708 l 569 708 l 803 74 l 897 74 l 897 0 l 579 0 l 579 74 l 683 74 l 604 301 l 321 301 l 243 74 l 347 74 l 347 0 l 39 0 l 39 74 m 582 375 l 468 707 l 460 707 l 343 375 l 582 375 m 415 1078 l 524 1078 l 639 860 l 561 860 l 469 1033 l 378 860 l 300 860 l 415 1078 m 464 -194 q 417 -176 436 -194 q 397 -132 397 -157 q 416 -87 397 -106 q 464 -69 435 -69 q 511 -86 493 -69 q 529 -132 529 -103 q 513 -176 531 -157 q 464 -194 494 -194 z "},"Ầ":{"ha":938,"x_min":39,"x_max":897,"o":"m 39 74 l 139 74 l 365 708 l 278 708 l 278 782 l 660 782 l 660 708 l 569 708 l 803 74 l 897 74 l 897 0 l 579 0 l 579 74 l 683 74 l 604 301 l 321 301 l 243 74 l 347 74 l 347 0 l 39 0 l 39 74 m 582 375 l 468 707 l 460 707 l 343 375 l 582 375 m 628 986 l 531 1146 l 633 1146 l 693 986 l 628 986 m 415 1036 l 524 1036 l 639 860 l 561 860 l 469 992 l 378 860 l 300 860 l 415 1036 z "},"Ẩ":{"ha":938,"x_min":39,"x_max":897,"o":"m 39 74 l 139 74 l 365 708 l 278 708 l 278 782 l 660 782 l 660 708 l 569 708 l 803 74 l 897 74 l 897 0 l 579 0 l 579 74 l 683 74 l 604 301 l 321 301 l 243 74 l 347 74 l 347 0 l 39 0 l 39 74 m 582 375 l 468 707 l 460 707 l 343 375 l 582 375 m 586 1033 q 633 1083 633 1049 q 620 1111 633 1101 q 586 1121 607 1121 q 526 1103 558 1121 l 506 1161 q 593 1185 547 1185 q 675 1157 643 1185 q 707 1086 707 1129 q 606 972 707 1000 l 586 1033 m 415 1036 l 524 1036 l 639 860 l 561 860 l 469 992 l 378 860 l 300 860 l 415 1036 z "},"Ẫ":{"ha":938,"x_min":39,"x_max":897,"o":"m 39 74 l 139 74 l 365 708 l 278 708 l 278 782 l 660 782 l 660 708 l 569 708 l 803 74 l 897 74 l 897 0 l 579 0 l 579 74 l 683 74 l 604 301 l 321 301 l 243 74 l 347 74 l 347 0 l 39 0 l 39 74 m 582 375 l 468 707 l 460 707 l 343 375 l 582 375 m 557 1072 q 516 1078 538 1072 q 476 1091 494 1085 q 451 1100 457 1097 q 372 1124 396 1124 q 344 1113 354 1124 q 329 1078 333 1103 l 286 1078 q 318 1169 292 1139 q 388 1200 344 1200 q 485 1172 418 1200 q 563 1149 543 1149 q 596 1160 583 1149 q 614 1197 608 1171 l 654 1197 q 626 1106 650 1140 q 557 1072 603 1072 m 415 1036 l 524 1036 l 639 860 l 561 860 l 469 992 l 378 860 l 300 860 l 415 1036 z "},"Ȁ":{"ha":938,"x_min":39,"x_max":897,"o":"m 39 74 l 139 74 l 365 708 l 278 708 l 278 782 l 660 782 l 660 708 l 569 708 l 803 74 l 897 74 l 897 0 l 579 0 l 579 74 l 683 74 l 604 301 l 321 301 l 243 74 l 347 74 l 347 0 l 39 0 l 39 74 m 582 375 l 468 707 l 460 707 l 343 375 l 582 375 m 196 1110 l 313 1110 l 392 899 l 326 899 l 196 1110 m 385 1110 l 501 1110 l 579 899 l 514 899 l 385 1110 z "},"Ä":{"ha":938,"x_min":39,"x_max":897,"o":"m 39 74 l 139 74 l 365 708 l 278 708 l 278 782 l 660 782 l 660 708 l 569 708 l 803 74 l 897 74 l 897 0 l 579 0 l 579 74 l 683 74 l 604 301 l 321 301 l 243 74 l 347 74 l 347 0 l 39 0 l 39 74 m 582 375 l 468 707 l 460 707 l 343 375 l 582 375 m 336 871 q 291 888 308 871 q 274 931 274 904 q 291 974 274 957 q 336 990 308 990 q 381 974 364 990 q 399 931 399 957 q 381 888 399 904 q 336 871 364 871 m 603 871 q 558 887 575 871 q 542 931 542 903 q 558 974 542 958 q 603 990 575 990 q 648 974 631 990 q 665 931 665 957 q 648 888 665 904 q 603 871 631 871 z "},"Ȧ":{"ha":938,"x_min":39,"x_max":897,"o":"m 39 74 l 139 74 l 365 708 l 278 708 l 278 782 l 660 782 l 660 708 l 569 708 l 803 74 l 897 74 l 897 0 l 579 0 l 579 74 l 683 74 l 604 301 l 321 301 l 243 74 l 347 74 l 347 0 l 39 0 l 39 74 m 582 375 l 468 707 l 460 707 l 343 375 l 582 375 m 469 875 q 422 894 442 875 q 403 938 403 913 q 422 982 403 964 q 469 1000 440 1000 q 517 983 499 1000 q 535 938 535 967 q 518 894 536 913 q 469 875 500 875 z "},"Ạ":{"ha":938,"x_min":39,"x_max":897,"o":"m 39 74 l 139 74 l 365 708 l 278 708 l 278 782 l 660 782 l 660 708 l 569 708 l 803 74 l 897 74 l 897 0 l 579 0 l 579 74 l 683 74 l 604 301 l 321 301 l 243 74 l 347 74 l 347 0 l 39 0 l 39 74 m 582 375 l 468 707 l 460 707 l 343 375 l 582 375 m 464 -194 q 417 -176 436 -194 q 397 -132 397 -157 q 416 -87 397 -106 q 464 -69 435 -69 q 511 -86 493 -69 q 529 -132 529 -103 q 513 -176 531 -157 q 464 -194 494 -194 z "},"À":{"ha":938,"x_min":39,"x_max":897,"o":"m 39 74 l 139 74 l 365 708 l 278 708 l 278 782 l 660 782 l 660 708 l 569 708 l 803 74 l 897 74 l 897 0 l 579 0 l 579 74 l 683 74 l 604 301 l 321 301 l 243 74 l 347 74 l 347 0 l 39 0 l 39 74 m 582 375 l 468 707 l 460 707 l 343 375 l 582 375 m 311 1100 l 428 1100 l 501 899 l 436 899 l 311 1100 z "},"Ả":{"ha":938,"x_min":39,"x_max":897,"o":"m 39 74 l 139 74 l 365 708 l 278 708 l 278 782 l 660 782 l 660 708 l 569 708 l 803 74 l 897 74 l 897 0 l 579 0 l 579 74 l 683 74 l 604 301 l 321 301 l 243 74 l 347 74 l 347 0 l 39 0 l 39 74 m 582 375 l 468 707 l 460 707 l 343 375 l 582 375 m 450 903 q 497 953 497 918 q 484 981 497 971 q 450 990 471 990 q 390 972 422 990 l 369 1031 q 457 1054 411 1054 q 539 1026 507 1054 q 571 956 571 999 q 469 842 571 869 l 450 903 z "},"Ȃ":{"ha":938,"x_min":39,"x_max":897,"o":"m 39 74 l 139 74 l 365 708 l 278 708 l 278 782 l 660 782 l 660 708 l 569 708 l 803 74 l 897 74 l 897 0 l 579 0 l 579 74 l 683 74 l 604 301 l 321 301 l 243 74 l 347 74 l 347 0 l 39 0 l 39 74 m 582 375 l 468 707 l 460 707 l 343 375 l 582 375 m 307 861 q 358 969 314 929 q 469 1010 401 1010 q 580 969 536 1010 q 631 861 624 929 l 549 861 q 522 914 542 896 q 469 932 501 932 q 389 861 401 932 l 307 861 z "},"Ā":{"ha":938,"x_min":39,"x_max":897,"o":"m 39 74 l 139 74 l 365 708 l 278 708 l 278 782 l 660 782 l 660 708 l 569 708 l 803 74 l 897 74 l 897 0 l 579 0 l 579 74 l 683 74 l 604 301 l 321 301 l 243 74 l 347 74 l 347 0 l 39 0 l 39 74 m 582 375 l 468 707 l 460 707 l 343 375 l 582 375 m 324 956 l 615 956 l 615 893 l 324 893 l 324 956 z "},"Ą":{"ha":938,"x_min":39,"x_max":897,"o":"m 39 74 l 139 74 l 365 708 l 278 708 l 278 782 l 660 782 l 660 708 l 569 708 l 803 74 l 897 74 l 897 0 l 579 0 l 579 74 l 683 74 l 604 301 l 321 301 l 243 74 l 347 74 l 347 0 l 39 0 l 39 74 m 582 375 l 468 707 l 460 707 l 343 375 l 582 375 m 757 -235 q 678 -206 710 -235 q 646 -132 646 -178 q 664 -67 646 -99 q 719 0 682 -35 l 779 0 q 717 -111 717 -65 q 735 -156 717 -140 q 782 -171 753 -171 q 843 -153 813 -171 l 843 -208 q 800 -228 819 -222 q 757 -235 781 -235 z "},"Å":{"ha":938,"x_min":39,"x_max":897,"o":"m 39 74 l 139 74 l 365 708 l 278 708 l 278 782 l 660 782 l 660 708 l 569 708 l 803 74 l 897 74 l 897 0 l 579 0 l 579 74 l 683 74 l 604 301 l 321 301 l 243 74 l 347 74 l 347 0 l 39 0 l 39 74 m 582 375 l 468 707 l 460 707 l 343 375 l 582 375 m 469 831 q 390 860 419 831 q 360 935 360 890 q 389 1008 360 979 q 469 1036 418 1036 q 550 1008 521 1036 q 579 935 579 979 q 549 860 579 890 q 469 831 519 831 m 469 874 q 514 891 497 874 q 531 935 531 908 q 514 978 531 961 q 469 994 497 994 q 424 978 440 994 q 407 935 407 961 q 424 891 407 908 q 469 874 442 874 z "},"Ǻ":{"ha":938,"x_min":39,"x_max":897,"o":"m 39 74 l 139 74 l 365 708 l 278 708 l 278 782 l 660 782 l 660 708 l 569 708 l 803 74 l 897 74 l 897 0 l 579 0 l 579 74 l 683 74 l 604 301 l 321 301 l 243 74 l 347 74 l 347 0 l 39 0 l 39 74 m 582 375 l 468 707 l 460 707 l 343 375 l 582 375 m 469 831 q 390 860 419 831 q 360 935 360 890 q 389 1008 360 979 q 469 1036 418 1036 q 550 1008 521 1036 q 579 935 579 979 q 549 860 579 890 q 469 831 519 831 m 469 874 q 514 891 497 874 q 531 935 531 908 q 514 978 531 961 q 469 994 497 994 q 424 978 440 994 q 407 935 407 961 q 424 891 407 908 q 469 874 442 874 m 511 1288 l 628 1288 l 503 1086 l 438 1086 l 511 1288 z "},"Ã":{"ha":938,"x_min":39,"x_max":897,"o":"m 39 74 l 139 74 l 365 708 l 278 708 l 278 782 l 660 782 l 660 708 l 569 708 l 803 74 l 897 74 l 897 0 l 579 0 l 579 74 l 683 74 l 604 301 l 321 301 l 243 74 l 347 74 l 347 0 l 39 0 l 39 74 m 582 375 l 468 707 l 460 707 l 343 375 l 582 375 m 557 889 q 516 895 538 889 q 476 908 494 901 q 451 917 457 914 q 372 940 396 940 q 344 930 354 940 q 329 894 333 919 l 286 894 q 318 986 292 956 q 388 1017 344 1017 q 485 989 418 1017 q 563 965 543 965 q 596 976 583 965 q 614 1014 608 988 l 654 1014 q 626 923 650 957 q 557 889 603 889 z "},"Æ":{"ha":1347,"x_min":31,"x_max":1267,"o":"m 31 74 l 136 74 l 525 708 l 440 708 l 440 782 l 1215 782 l 1228 535 l 1142 535 l 1129 708 l 751 708 l 768 438 l 1015 438 l 1010 529 l 1065 529 l 1082 265 l 1025 265 l 1017 360 l 769 360 l 786 74 l 1178 74 l 1167 249 l 1253 249 l 1267 0 l 568 0 l 568 74 l 674 74 l 661 285 l 376 285 l 256 74 l 350 74 l 350 0 l 31 0 l 31 74 m 660 354 l 639 708 l 626 708 l 413 354 l 660 354 z "},"Ǽ":{"ha":1347,"x_min":31,"x_max":1267,"o":"m 31 74 l 136 74 l 525 708 l 440 708 l 440 782 l 1215 782 l 1228 535 l 1142 535 l 1129 708 l 751 708 l 768 438 l 1015 438 l 1010 529 l 1065 529 l 1082 265 l 1025 265 l 1017 360 l 769 360 l 786 74 l 1178 74 l 1167 249 l 1253 249 l 1267 0 l 568 0 l 568 74 l 674 74 l 661 285 l 376 285 l 256 74 l 350 74 l 350 0 l 31 0 l 31 74 m 660 354 l 639 708 l 626 708 l 413 354 l 660 354 m 847 1100 l 964 1100 l 839 899 l 774 899 l 847 1100 z "},"Ǣ":{"ha":1347,"x_min":31,"x_max":1267,"o":"m 31 74 l 136 74 l 525 708 l 440 708 l 440 782 l 1215 782 l 1228 535 l 1142 535 l 1129 708 l 751 708 l 768 438 l 1015 438 l 1010 529 l 1065 529 l 1082 265 l 1025 265 l 1017 360 l 769 360 l 786 74 l 1178 74 l 1167 249 l 1253 249 l 1267 0 l 568 0 l 568 74 l 674 74 l 661 285 l 376 285 l 256 74 l 350 74 l 350 0 l 31 0 l 31 74 m 660 354 l 639 708 l 626 708 l 413 354 l 660 354 m 660 956 l 951 956 l 951 893 l 660 893 l 660 956 z "},"B":{"ha":806,"x_min":54,"x_max":751,"o":"m 54 74 l 163 74 l 163 708 l 54 708 l 54 782 l 442 782 q 641 733 572 782 q 710 588 710 683 q 678 479 710 524 q 592 417 646 435 q 710 345 669 397 q 751 221 751 293 q 683 63 751 126 q 471 0 615 0 l 54 0 l 54 74 m 435 449 q 597 583 597 449 q 553 680 597 651 q 410 708 510 708 l 276 708 l 276 449 l 435 449 m 451 74 q 636 225 636 74 q 589 333 636 293 q 447 372 542 372 l 276 372 l 276 74 l 451 74 z "},"Ḃ":{"ha":806,"x_min":54,"x_max":751,"o":"m 54 74 l 163 74 l 163 708 l 54 708 l 54 782 l 442 782 q 641 733 572 782 q 710 588 710 683 q 678 479 710 524 q 592 417 646 435 q 710 345 669 397 q 751 221 751 293 q 683 63 751 126 q 471 0 615 0 l 54 0 l 54 74 m 435 449 q 597 583 597 449 q 553 680 597 651 q 410 708 510 708 l 276 708 l 276 449 l 435 449 m 451 74 q 636 225 636 74 q 589 333 636 293 q 447 372 542 372 l 276 372 l 276 74 l 451 74 m 354 875 q 307 894 326 875 q 288 938 288 913 q 306 982 288 964 q 354 1000 325 1000 q 401 983 383 1000 q 419 938 419 967 q 403 894 421 913 q 354 875 385 875 z "},"C":{"ha":924,"x_min":68,"x_max":844,"o":"m 844 211 q 478 -15 757 -12 q 264 37 357 -15 q 119 181 171 89 q 68 392 68 272 q 119 600 68 508 q 263 744 169 692 q 479 796 357 796 q 636 763 567 796 q 744 674 706 731 l 744 782 l 828 782 l 828 546 l 753 543 q 644 672 710 632 q 485 713 579 713 q 326 670 394 713 q 219 556 257 628 q 182 393 182 483 q 221 222 182 296 q 329 108 260 149 q 485 68 399 68 q 653 113 579 68 q 761 253 728 157 l 844 211 z "},"Ć":{"ha":924,"x_min":68,"x_max":844,"o":"m 844 211 q 478 -15 757 -12 q 264 37 357 -15 q 119 181 171 89 q 68 392 68 272 q 119 600 68 508 q 263 744 169 692 q 479 796 357 796 q 636 763 567 796 q 744 674 706 731 l 744 782 l 828 782 l 828 546 l 753 543 q 644 672 710 632 q 485 713 579 713 q 326 670 394 713 q 219 556 257 628 q 182 393 182 483 q 221 222 182 296 q 329 108 260 149 q 485 68 399 68 q 653 113 579 68 q 761 253 728 157 l 844 211 m 526 1100 l 643 1100 l 518 899 l 453 899 l 526 1100 z "},"Č":{"ha":924,"x_min":68,"x_max":844,"o":"m 844 211 q 478 -15 757 -12 q 264 37 357 -15 q 119 181 171 89 q 68 392 68 272 q 119 600 68 508 q 263 744 169 692 q 479 796 357 796 q 636 763 567 796 q 744 674 706 731 l 744 782 l 828 782 l 828 546 l 753 543 q 644 672 710 632 q 485 713 579 713 q 326 670 394 713 q 219 556 257 628 q 182 393 182 483 q 221 222 182 296 q 329 108 260 149 q 485 68 399 68 q 653 113 579 68 q 761 253 728 157 l 844 211 m 324 1068 l 397 1068 l 486 917 l 572 1068 l 644 1068 l 535 858 l 436 858 l 324 1068 z "},"Ç":{"ha":924,"x_min":68,"x_max":844,"o":"m 844 211 q 488 -15 758 -8 l 469 -81 q 544 -109 519 -86 q 569 -164 569 -132 q 542 -224 569 -204 q 471 -243 515 -243 q 350 -217 411 -243 l 350 -176 q 429 -190 399 -190 q 482 -154 482 -190 q 403 -111 482 -115 l 440 -14 q 245 48 329 -6 q 115 190 161 101 q 68 392 68 279 q 119 600 68 508 q 263 744 169 692 q 479 796 357 796 q 636 763 567 796 q 744 674 706 731 l 744 782 l 828 782 l 828 546 l 753 543 q 644 672 710 632 q 485 713 579 713 q 326 670 394 713 q 219 556 257 628 q 182 393 182 483 q 221 222 182 296 q 329 108 260 149 q 485 68 399 68 q 653 113 579 68 q 761 253 728 157 l 844 211 z "},"Ḉ":{"ha":924,"x_min":68,"x_max":844,"o":"m 518 899 l 453 899 l 526 1100 l 643 1100 l 518 899 m 844 211 q 488 -15 758 -8 l 469 -81 q 544 -109 519 -86 q 569 -164 569 -132 q 542 -224 569 -204 q 471 -243 515 -243 q 350 -217 411 -243 l 350 -176 q 429 -190 399 -190 q 482 -154 482 -190 q 403 -111 482 -115 l 440 -14 q 245 48 329 -6 q 115 190 161 101 q 68 392 68 279 q 119 600 68 508 q 263 744 169 692 q 479 796 357 796 q 636 763 567 796 q 744 674 706 731 l 744 782 l 828 782 l 828 546 l 753 543 q 644 672 710 632 q 485 713 579 713 q 326 670 394 713 q 219 556 257 628 q 182 393 182 483 q 221 222 182 296 q 329 108 260 149 q 485 68 399 68 q 653 113 579 68 q 761 253 728 157 l 844 211 z "},"Ĉ":{"ha":924,"x_min":68,"x_max":844,"o":"m 844 211 q 478 -15 757 -12 q 264 37 357 -15 q 119 181 171 89 q 68 392 68 272 q 119 600 68 508 q 263 744 169 692 q 479 796 357 796 q 636 763 567 796 q 744 674 706 731 l 744 782 l 828 782 l 828 546 l 753 543 q 644 672 710 632 q 485 713 579 713 q 326 670 394 713 q 219 556 257 628 q 182 393 182 483 q 221 222 182 296 q 329 108 260 149 q 485 68 399 68 q 653 113 579 68 q 761 253 728 157 l 844 211 m 431 1078 l 539 1078 l 654 860 l 576 860 l 485 1033 l 393 860 l 315 860 l 431 1078 z "},"Ċ":{"ha":924,"x_min":68,"x_max":844,"o":"m 844 211 q 478 -15 757 -12 q 264 37 357 -15 q 119 181 171 89 q 68 392 68 272 q 119 600 68 508 q 263 744 169 692 q 479 796 357 796 q 636 763 567 796 q 744 674 706 731 l 744 782 l 828 782 l 828 546 l 753 543 q 644 672 710 632 q 485 713 579 713 q 326 670 394 713 q 219 556 257 628 q 182 393 182 483 q 221 222 182 296 q 329 108 260 149 q 485 68 399 68 q 653 113 579 68 q 761 253 728 157 l 844 211 m 485 875 q 438 894 457 875 q 418 938 418 913 q 437 982 418 964 q 485 1000 456 1000 q 532 983 514 1000 q 550 938 550 967 q 533 894 551 913 q 485 875 515 875 z "},"D":{"ha":950,"x_min":56,"x_max":882,"o":"m 56 74 l 164 74 l 164 708 l 56 708 l 56 782 l 481 782 q 701 728 610 782 q 837 585 792 674 q 882 399 882 497 q 837 192 882 282 q 702 51 792 101 q 482 0 613 0 l 56 0 l 56 74 m 471 74 q 692 163 619 74 q 765 396 765 251 q 733 550 765 479 q 636 665 701 621 q 475 708 571 708 l 278 708 l 278 74 l 471 74 z "},"Ǳ":{"ha":1750,"x_min":56,"x_max":1676,"o":"m 56 74 l 164 74 l 164 708 l 56 708 l 56 782 l 481 782 q 701 728 610 782 q 837 585 792 674 q 882 399 882 497 q 837 192 882 282 q 702 51 792 101 q 482 0 613 0 l 56 0 l 56 74 m 471 74 q 692 163 619 74 q 765 396 765 251 q 733 550 765 479 q 636 665 701 621 q 475 708 571 708 l 278 708 l 278 74 l 471 74 m 1036 79 l 1529 708 l 1140 708 l 1140 524 l 1057 524 l 1057 782 l 1667 782 l 1667 711 l 1169 74 l 1593 74 l 1593 271 l 1676 271 l 1676 0 l 1036 0 l 1036 79 z "},"Ǆ":{"ha":1750,"x_min":56,"x_max":1676,"o":"m 56 74 l 164 74 l 164 708 l 56 708 l 56 782 l 481 782 q 701 728 610 782 q 837 585 792 674 q 882 399 882 497 q 837 192 882 282 q 702 51 792 101 q 482 0 613 0 l 56 0 l 56 74 m 471 74 q 692 163 619 74 q 765 396 765 251 q 733 550 765 479 q 636 665 701 621 q 475 708 571 708 l 278 708 l 278 74 l 471 74 m 1036 79 l 1529 708 l 1140 708 l 1140 524 l 1057 524 l 1057 782 l 1667 782 l 1667 711 l 1169 74 l 1593 74 l 1593 271 l 1676 271 l 1676 0 l 1036 0 l 1036 79 m 1201 1068 l 1275 1068 l 1364 917 l 1450 1068 l 1522 1068 l 1413 858 l 1314 858 l 1201 1068 z "},"Ð":{"ha":950,"x_min":56,"x_max":882,"o":"m 481 782 q 701 728 610 782 q 837 585 792 674 q 882 399 882 497 q 837 192 882 282 q 702 51 792 101 q 482 0 613 0 l 56 0 l 56 74 l 164 74 l 164 363 l 56 363 l 56 440 l 164 440 l 164 708 l 56 708 l 56 782 l 481 782 m 471 74 q 692 163 619 74 q 765 396 765 251 q 733 550 765 479 q 636 665 701 621 q 475 708 571 708 l 278 708 l 278 440 l 388 440 l 388 363 l 278 363 l 278 74 l 471 74 z "},"Ď":{"ha":950,"x_min":56,"x_max":882,"o":"m 56 74 l 164 74 l 164 708 l 56 708 l 56 782 l 481 782 q 701 728 610 782 q 837 585 792 674 q 882 399 882 497 q 837 192 882 282 q 702 51 792 101 q 482 0 613 0 l 56 0 l 56 74 m 471 74 q 692 163 619 74 q 765 396 765 251 q 733 550 765 479 q 636 665 701 621 q 475 708 571 708 l 278 708 l 278 74 l 471 74 m 356 1068 l 429 1068 l 518 917 l 604 1068 l 676 1068 l 567 858 l 468 858 l 356 1068 z "},"Đ":{"ha":950,"x_min":56,"x_max":882,"o":"m 481 782 q 701 728 610 782 q 837 585 792 674 q 882 399 882 497 q 837 192 882 282 q 702 51 792 101 q 482 0 613 0 l 56 0 l 56 74 l 164 74 l 164 363 l 56 363 l 56 440 l 164 440 l 164 708 l 56 708 l 56 782 l 481 782 m 471 74 q 692 163 619 74 q 765 396 765 251 q 733 550 765 479 q 636 665 701 621 q 475 708 571 708 l 278 708 l 278 440 l 388 440 l 388 363 l 278 363 l 278 74 l 471 74 z "},"Ḋ":{"ha":950,"x_min":56,"x_max":882,"o":"m 56 74 l 164 74 l 164 708 l 56 708 l 56 782 l 481 782 q 701 728 610 782 q 837 585 792 674 q 882 399 882 497 q 837 192 882 282 q 702 51 792 101 q 482 0 613 0 l 56 0 l 56 74 m 471 74 q 692 163 619 74 q 765 396 765 251 q 733 550 765 479 q 636 665 701 621 q 475 708 571 708 l 278 708 l 278 74 l 471 74 m 517 875 q 469 894 489 875 q 450 938 450 913 q 469 982 450 964 q 517 1000 488 1000 q 564 983 546 1000 q 582 938 582 967 q 565 894 583 913 q 517 875 547 875 z "},"Ḍ":{"ha":950,"x_min":56,"x_max":882,"o":"m 56 74 l 164 74 l 164 708 l 56 708 l 56 782 l 481 782 q 701 728 610 782 q 837 585 792 674 q 882 399 882 497 q 837 192 882 282 q 702 51 792 101 q 482 0 613 0 l 56 0 l 56 74 m 471 74 q 692 163 619 74 q 765 396 765 251 q 733 550 765 479 q 636 665 701 621 q 475 708 571 708 l 278 708 l 278 74 l 471 74 m 521 -194 q 474 -176 493 -194 q 454 -132 454 -157 q 473 -87 454 -106 q 521 -69 492 -69 q 568 -86 550 -69 q 586 -132 586 -103 q 569 -176 588 -157 q 521 -194 551 -194 z "},"Ḏ":{"ha":950,"x_min":56,"x_max":882,"o":"m 56 74 l 164 74 l 164 708 l 56 708 l 56 782 l 481 782 q 701 728 610 782 q 837 585 792 674 q 882 399 882 497 q 837 192 882 282 q 702 51 792 101 q 482 0 613 0 l 56 0 l 56 74 m 471 74 q 692 163 619 74 q 765 396 765 251 q 733 550 765 479 q 636 665 701 621 q 475 708 571 708 l 278 708 l 278 74 l 471 74 m 375 -51 l 667 -51 l 667 -114 l 375 -114 l 375 -51 z "},"ǲ":{"ha":1503,"x_min":56,"x_max":1444,"o":"m 56 74 l 164 74 l 164 708 l 56 708 l 56 782 l 481 782 q 701 728 610 782 q 837 585 792 674 q 882 399 882 497 q 837 192 882 282 q 702 51 792 101 q 482 0 613 0 l 56 0 l 56 74 m 471 74 q 692 163 619 74 q 765 396 765 251 q 733 550 765 479 q 636 665 701 621 q 475 708 571 708 l 278 708 l 278 74 l 471 74 m 965 72 l 1317 475 l 1050 475 l 1050 363 l 972 363 l 972 546 l 1436 546 l 1436 469 l 1085 69 l 1364 69 l 1364 194 l 1444 194 l 1444 0 l 965 0 l 965 72 z "},"ǅ":{"ha":1558,"x_min":56,"x_max":1500,"o":"m 56 74 l 164 74 l 164 708 l 56 708 l 56 782 l 481 782 q 701 728 610 782 q 837 585 792 674 q 882 399 882 497 q 837 192 882 282 q 702 51 792 101 q 482 0 613 0 l 56 0 l 56 74 m 471 74 q 692 163 619 74 q 765 396 765 251 q 733 550 765 479 q 636 665 701 621 q 475 708 571 708 l 278 708 l 278 74 l 471 74 m 1021 72 l 1372 475 l 1106 475 l 1106 363 l 1028 363 l 1028 546 l 1492 546 l 1492 469 l 1140 69 l 1419 69 l 1419 194 l 1500 194 l 1500 0 l 1021 0 l 1021 72 m 1106 832 l 1179 832 l 1268 681 l 1354 832 l 1426 832 l 1317 622 l 1218 622 l 1106 832 z "},"E":{"ha":808,"x_min":54,"x_max":742,"o":"m 54 74 l 163 74 l 163 708 l 54 708 l 54 782 l 735 782 l 735 550 l 647 550 l 647 708 l 276 708 l 276 443 l 519 443 l 519 535 l 576 535 l 576 274 l 519 274 l 519 367 l 276 367 l 276 74 l 654 74 l 654 236 l 742 236 l 742 0 l 54 0 l 54 74 z "},"É":{"ha":808,"x_min":54,"x_max":742,"o":"m 54 74 l 163 74 l 163 708 l 54 708 l 54 782 l 735 782 l 735 550 l 647 550 l 647 708 l 276 708 l 276 443 l 519 443 l 519 535 l 576 535 l 576 274 l 519 274 l 519 367 l 276 367 l 276 74 l 654 74 l 654 236 l 742 236 l 742 0 l 54 0 l 54 74 m 472 1100 l 589 1100 l 464 899 l 399 899 l 472 1100 z "},"Ĕ":{"ha":808,"x_min":54,"x_max":742,"o":"m 54 74 l 163 74 l 163 708 l 54 708 l 54 782 l 735 782 l 735 550 l 647 550 l 647 708 l 276 708 l 276 443 l 519 443 l 519 535 l 576 535 l 576 274 l 519 274 l 519 367 l 276 367 l 276 74 l 654 74 l 654 236 l 742 236 l 742 0 l 54 0 l 54 74 m 428 861 q 326 899 367 861 q 278 1000 285 936 l 346 1000 q 431 924 361 924 q 485 944 463 924 q 514 1000 508 964 l 583 1000 q 535 898 576 935 q 428 861 493 861 z "},"Ě":{"ha":808,"x_min":54,"x_max":742,"o":"m 54 74 l 163 74 l 163 708 l 54 708 l 54 782 l 735 782 l 735 550 l 647 550 l 647 708 l 276 708 l 276 443 l 519 443 l 519 535 l 576 535 l 576 274 l 519 274 l 519 367 l 276 367 l 276 74 l 654 74 l 654 236 l 742 236 l 742 0 l 54 0 l 54 74 m 269 1068 l 343 1068 l 432 917 l 518 1068 l 590 1068 l 481 858 l 382 858 l 269 1068 z "},"Ȩ":{"ha":808,"x_min":54,"x_max":742,"o":"m 54 74 l 163 74 l 163 708 l 54 708 l 54 782 l 735 782 l 735 550 l 647 550 l 647 708 l 276 708 l 276 443 l 519 443 l 519 535 l 576 535 l 576 274 l 519 274 l 519 367 l 276 367 l 276 74 l 654 74 l 654 236 l 742 236 l 742 0 l 54 0 l 54 74 m 457 -243 q 336 -217 397 -243 l 336 -176 q 415 -190 385 -190 q 468 -154 468 -190 q 389 -111 468 -115 l 432 0 l 478 0 l 456 -81 q 531 -109 506 -86 q 556 -164 556 -132 q 528 -224 556 -204 q 457 -243 501 -243 z "},"Ḝ":{"ha":808,"x_min":54,"x_max":742,"o":"m 54 74 l 163 74 l 163 708 l 54 708 l 54 782 l 735 782 l 735 550 l 647 550 l 647 708 l 276 708 l 276 443 l 519 443 l 519 535 l 576 535 l 576 274 l 519 274 l 519 367 l 276 367 l 276 74 l 654 74 l 654 236 l 742 236 l 742 0 l 54 0 l 54 74 m 457 -243 q 336 -217 397 -243 l 336 -176 q 415 -190 385 -190 q 468 -154 468 -190 q 389 -111 468 -115 l 432 0 l 478 0 l 456 -81 q 531 -109 506 -86 q 556 -164 556 -132 q 528 -224 556 -204 q 457 -243 501 -243 m 428 861 q 326 899 367 861 q 278 1000 285 936 l 346 1000 q 431 924 361 924 q 485 944 463 924 q 514 1000 508 964 l 583 1000 q 535 898 576 935 q 428 861 493 861 z "},"Ê":{"ha":808,"x_min":54,"x_max":742,"o":"m 54 74 l 163 74 l 163 708 l 54 708 l 54 782 l 735 782 l 735 550 l 647 550 l 647 708 l 276 708 l 276 443 l 519 443 l 519 535 l 576 535 l 576 274 l 519 274 l 519 367 l 276 367 l 276 74 l 654 74 l 654 236 l 742 236 l 742 0 l 54 0 l 54 74 m 376 1078 l 485 1078 l 600 860 l 522 860 l 431 1033 l 339 860 l 261 860 l 376 1078 z "},"Ế":{"ha":808,"x_min":54,"x_max":742,"o":"m 54 74 l 163 74 l 163 708 l 54 708 l 54 782 l 735 782 l 735 550 l 647 550 l 647 708 l 276 708 l 276 443 l 519 443 l 519 535 l 576 535 l 576 274 l 519 274 l 519 367 l 276 367 l 276 74 l 654 74 l 654 236 l 742 236 l 742 0 l 54 0 l 54 74 m 621 1146 l 724 1146 l 626 986 l 561 986 l 621 1146 m 376 1036 l 485 1036 l 600 860 l 522 860 l 431 992 l 339 860 l 261 860 l 376 1036 z "},"Ệ":{"ha":808,"x_min":54,"x_max":742,"o":"m 54 74 l 163 74 l 163 708 l 54 708 l 54 782 l 735 782 l 735 550 l 647 550 l 647 708 l 276 708 l 276 443 l 519 443 l 519 535 l 576 535 l 576 274 l 519 274 l 519 367 l 276 367 l 276 74 l 654 74 l 654 236 l 742 236 l 742 0 l 54 0 l 54 74 m 376 1078 l 485 1078 l 600 860 l 522 860 l 431 1033 l 339 860 l 261 860 l 376 1078 m 454 -194 q 407 -176 426 -194 q 388 -132 388 -157 q 406 -87 388 -106 q 454 -69 425 -69 q 501 -86 483 -69 q 519 -132 519 -103 q 503 -176 521 -157 q 454 -194 485 -194 z "},"Ề":{"ha":808,"x_min":54,"x_max":742,"o":"m 54 74 l 163 74 l 163 708 l 54 708 l 54 782 l 735 782 l 735 550 l 647 550 l 647 708 l 276 708 l 276 443 l 519 443 l 519 535 l 576 535 l 576 274 l 519 274 l 519 367 l 276 367 l 276 74 l 654 74 l 654 236 l 742 236 l 742 0 l 54 0 l 54 74 m 589 986 l 492 1146 l 594 1146 l 654 986 l 589 986 m 376 1036 l 485 1036 l 600 860 l 522 860 l 431 992 l 339 860 l 261 860 l 376 1036 z "},"Ể":{"ha":808,"x_min":54,"x_max":742,"o":"m 54 74 l 163 74 l 163 708 l 54 708 l 54 782 l 735 782 l 735 550 l 647 550 l 647 708 l 276 708 l 276 443 l 519 443 l 519 535 l 576 535 l 576 274 l 519 274 l 519 367 l 276 367 l 276 74 l 654 74 l 654 236 l 742 236 l 742 0 l 54 0 l 54 74 m 547 1033 q 594 1083 594 1049 q 581 1111 594 1101 q 547 1121 568 1121 q 488 1103 519 1121 l 467 1161 q 554 1185 508 1185 q 636 1157 604 1185 q 668 1086 668 1129 q 567 972 668 1000 l 547 1033 m 376 1036 l 485 1036 l 600 860 l 522 860 l 431 992 l 339 860 l 261 860 l 376 1036 z "},"Ễ":{"ha":808,"x_min":54,"x_max":742,"o":"m 54 74 l 163 74 l 163 708 l 54 708 l 54 782 l 735 782 l 735 550 l 647 550 l 647 708 l 276 708 l 276 443 l 519 443 l 519 535 l 576 535 l 576 274 l 519 274 l 519 367 l 276 367 l 276 74 l 654 74 l 654 236 l 742 236 l 742 0 l 54 0 l 54 74 m 518 1072 q 477 1078 499 1072 q 437 1091 456 1085 q 413 1100 418 1097 q 333 1124 357 1124 q 305 1113 315 1124 q 290 1078 294 1103 l 247 1078 q 279 1169 253 1139 q 349 1200 306 1200 q 446 1172 379 1200 q 524 1149 504 1149 q 557 1160 544 1149 q 575 1197 569 1171 l 615 1197 q 588 1106 611 1140 q 518 1072 564 1072 m 376 1036 l 485 1036 l 600 860 l 522 860 l 431 992 l 339 860 l 261 860 l 376 1036 z "},"Ȅ":{"ha":808,"x_min":54,"x_max":742,"o":"m 54 74 l 163 74 l 163 708 l 54 708 l 54 782 l 735 782 l 735 550 l 647 550 l 647 708 l 276 708 l 276 443 l 519 443 l 519 535 l 576 535 l 576 274 l 519 274 l 519 367 l 276 367 l 276 74 l 654 74 l 654 236 l 742 236 l 742 0 l 54 0 l 54 74 m 157 1110 l 274 1110 l 353 899 l 288 899 l 157 1110 m 346 1110 l 463 1110 l 540 899 l 475 899 l 346 1110 z "},"Ë":{"ha":808,"x_min":54,"x_max":742,"o":"m 54 74 l 163 74 l 163 708 l 54 708 l 54 782 l 735 782 l 735 550 l 647 550 l 647 708 l 276 708 l 276 443 l 519 443 l 519 535 l 576 535 l 576 274 l 519 274 l 519 367 l 276 367 l 276 74 l 654 74 l 654 236 l 742 236 l 742 0 l 54 0 l 54 74 m 297 871 q 252 888 269 871 q 235 931 235 904 q 252 974 235 957 q 297 990 269 990 q 342 974 325 990 q 360 931 360 957 q 342 888 360 904 q 297 871 325 871 m 564 871 q 519 887 536 871 q 503 931 503 903 q 519 974 503 958 q 564 990 536 990 q 609 974 592 990 q 626 931 626 957 q 609 888 626 904 q 564 871 592 871 z "},"Ė":{"ha":808,"x_min":54,"x_max":742,"o":"m 54 74 l 163 74 l 163 708 l 54 708 l 54 782 l 735 782 l 735 550 l 647 550 l 647 708 l 276 708 l 276 443 l 519 443 l 519 535 l 576 535 l 576 274 l 519 274 l 519 367 l 276 367 l 276 74 l 654 74 l 654 236 l 742 236 l 742 0 l 54 0 l 54 74 m 431 875 q 383 894 403 875 q 364 938 364 913 q 383 982 364 964 q 431 1000 401 1000 q 478 983 460 1000 q 496 938 496 967 q 479 894 497 913 q 431 875 461 875 z "},"Ẹ":{"ha":808,"x_min":54,"x_max":742,"o":"m 54 74 l 163 74 l 163 708 l 54 708 l 54 782 l 735 782 l 735 550 l 647 550 l 647 708 l 276 708 l 276 443 l 519 443 l 519 535 l 576 535 l 576 274 l 519 274 l 519 367 l 276 367 l 276 74 l 654 74 l 654 236 l 742 236 l 742 0 l 54 0 l 54 74 m 454 -194 q 407 -176 426 -194 q 388 -132 388 -157 q 406 -87 388 -106 q 454 -69 425 -69 q 501 -86 483 -69 q 519 -132 519 -103 q 503 -176 521 -157 q 454 -194 485 -194 z "},"È":{"ha":808,"x_min":54,"x_max":742,"o":"m 54 74 l 163 74 l 163 708 l 54 708 l 54 782 l 735 782 l 735 550 l 647 550 l 647 708 l 276 708 l 276 443 l 519 443 l 519 535 l 576 535 l 576 274 l 519 274 l 519 367 l 276 367 l 276 74 l 654 74 l 654 236 l 742 236 l 742 0 l 54 0 l 54 74 m 272 1100 l 389 1100 l 463 899 l 397 899 l 272 1100 z "},"Ẻ":{"ha":808,"x_min":54,"x_max":742,"o":"m 54 74 l 163 74 l 163 708 l 54 708 l 54 782 l 735 782 l 735 550 l 647 550 l 647 708 l 276 708 l 276 443 l 519 443 l 519 535 l 576 535 l 576 274 l 519 274 l 519 367 l 276 367 l 276 74 l 654 74 l 654 236 l 742 236 l 742 0 l 54 0 l 54 74 m 411 903 q 458 953 458 918 q 445 981 458 971 q 411 990 432 990 q 351 972 383 990 l 331 1031 q 418 1054 372 1054 q 500 1026 468 1054 q 532 956 532 999 q 431 842 532 869 l 411 903 z "},"Ȇ":{"ha":808,"x_min":54,"x_max":742,"o":"m 54 74 l 163 74 l 163 708 l 54 708 l 54 782 l 735 782 l 735 550 l 647 550 l 647 708 l 276 708 l 276 443 l 519 443 l 519 535 l 576 535 l 576 274 l 519 274 l 519 367 l 276 367 l 276 74 l 654 74 l 654 236 l 742 236 l 742 0 l 54 0 l 54 74 m 268 861 q 319 969 275 929 q 431 1010 363 1010 q 541 969 497 1010 q 592 861 585 929 l 510 861 q 483 914 503 896 q 431 932 463 932 q 350 861 363 932 l 268 861 z "},"Ē":{"ha":808,"x_min":54,"x_max":742,"o":"m 54 74 l 163 74 l 163 708 l 54 708 l 54 782 l 735 782 l 735 550 l 647 550 l 647 708 l 276 708 l 276 443 l 519 443 l 519 535 l 576 535 l 576 274 l 519 274 l 519 367 l 276 367 l 276 74 l 654 74 l 654 236 l 742 236 l 742 0 l 54 0 l 54 74 m 285 956 l 576 956 l 576 893 l 285 893 l 285 956 z "},"Ḗ":{"ha":808,"x_min":54,"x_max":742,"o":"m 54 74 l 163 74 l 163 708 l 54 708 l 54 782 l 735 782 l 735 550 l 647 550 l 647 708 l 276 708 l 276 443 l 519 443 l 519 535 l 576 535 l 576 274 l 519 274 l 519 367 l 276 367 l 276 74 l 654 74 l 654 236 l 742 236 l 742 0 l 54 0 l 54 74 m 285 956 l 576 956 l 576 893 l 285 893 l 285 956 m 472 1258 l 589 1258 l 464 1057 l 399 1057 l 472 1258 z "},"Ḕ":{"ha":808,"x_min":54,"x_max":742,"o":"m 54 74 l 163 74 l 163 708 l 54 708 l 54 782 l 735 782 l 735 550 l 647 550 l 647 708 l 276 708 l 276 443 l 519 443 l 519 535 l 576 535 l 576 274 l 519 274 l 519 367 l 276 367 l 276 74 l 654 74 l 654 236 l 742 236 l 742 0 l 54 0 l 54 74 m 285 956 l 576 956 l 576 893 l 285 893 l 285 956 m 272 1258 l 389 1258 l 463 1057 l 397 1057 l 272 1258 z "},"Ę":{"ha":808,"x_min":54,"x_max":742,"o":"m 54 74 l 163 74 l 163 708 l 54 708 l 54 782 l 735 782 l 735 550 l 647 550 l 647 708 l 276 708 l 276 443 l 519 443 l 519 535 l 576 535 l 576 274 l 519 274 l 519 367 l 276 367 l 276 74 l 654 74 l 654 236 l 742 236 l 742 0 l 54 0 l 54 74 m 636 -235 q 557 -206 589 -235 q 525 -132 525 -178 q 543 -67 525 -99 q 599 0 561 -35 l 658 0 q 596 -111 596 -65 q 614 -156 596 -140 q 661 -171 632 -171 q 722 -153 692 -171 l 722 -208 q 679 -228 699 -222 q 636 -235 660 -235 z "},"Ẽ":{"ha":808,"x_min":54,"x_max":742,"o":"m 54 74 l 163 74 l 163 708 l 54 708 l 54 782 l 735 782 l 735 550 l 647 550 l 647 708 l 276 708 l 276 443 l 519 443 l 519 535 l 576 535 l 576 274 l 519 274 l 519 367 l 276 367 l 276 74 l 654 74 l 654 236 l 742 236 l 742 0 l 54 0 l 54 74 m 518 889 q 477 895 499 889 q 437 908 456 901 q 413 917 418 914 q 333 940 357 940 q 305 930 315 940 q 290 894 294 919 l 247 894 q 279 986 253 956 q 349 1017 306 1017 q 446 989 379 1017 q 524 965 504 965 q 557 976 544 965 q 575 1014 569 988 l 615 1014 q 588 923 611 957 q 518 889 564 889 z "},"F":{"ha":753,"x_min":54,"x_max":722,"o":"m 54 74 l 163 74 l 163 708 l 54 708 l 54 782 l 722 782 l 722 544 l 635 544 l 635 708 l 276 708 l 276 446 l 513 446 l 513 531 l 571 531 l 571 276 l 513 276 l 513 367 l 276 367 l 276 74 l 385 74 l 385 0 l 54 0 l 54 74 z "},"Ḟ":{"ha":753,"x_min":54,"x_max":722,"o":"m 54 74 l 163 74 l 163 708 l 54 708 l 54 782 l 722 782 l 722 544 l 635 544 l 635 708 l 276 708 l 276 446 l 513 446 l 513 531 l 571 531 l 571 276 l 513 276 l 513 367 l 276 367 l 276 74 l 385 74 l 385 0 l 54 0 l 54 74 m 415 875 q 368 894 388 875 q 349 938 349 913 q 367 982 349 964 q 415 1000 386 1000 q 463 983 444 1000 q 481 938 481 967 q 464 894 482 913 q 415 875 446 875 z "},"G":{"ha":950,"x_min":67,"x_max":888,"o":"m 888 394 l 888 353 q 785 85 888 183 q 494 -14 682 -14 q 265 38 361 -14 q 117 181 168 89 q 67 393 67 274 q 121 604 67 513 q 272 746 175 696 q 492 796 368 796 q 647 767 579 796 q 760 683 715 738 l 760 782 l 850 782 l 850 540 l 769 540 q 661 669 732 624 q 496 714 590 714 q 272 629 354 714 q 189 400 189 544 q 272 158 189 247 q 499 69 356 69 q 697 133 621 72 q 776 317 774 194 l 611 317 l 611 394 l 888 394 z "},"Ǵ":{"ha":950,"x_min":67,"x_max":888,"o":"m 888 394 l 888 353 q 785 85 888 183 q 494 -14 682 -14 q 265 38 361 -14 q 117 181 168 89 q 67 393 67 274 q 121 604 67 513 q 272 746 175 696 q 492 796 368 796 q 647 767 579 796 q 760 683 715 738 l 760 782 l 850 782 l 850 540 l 769 540 q 661 669 732 624 q 496 714 590 714 q 272 629 354 714 q 189 400 189 544 q 272 158 189 247 q 499 69 356 69 q 697 133 621 72 q 776 317 774 194 l 611 317 l 611 394 l 888 394 m 529 1100 l 646 1100 l 521 899 l 456 899 l 529 1100 z "},"Ğ":{"ha":950,"x_min":67,"x_max":888,"o":"m 888 394 l 888 353 q 785 85 888 183 q 494 -14 682 -14 q 265 38 361 -14 q 117 181 168 89 q 67 393 67 274 q 121 604 67 513 q 272 746 175 696 q 492 796 368 796 q 647 767 579 796 q 760 683 715 738 l 760 782 l 850 782 l 850 540 l 769 540 q 661 669 732 624 q 496 714 590 714 q 272 629 354 714 q 189 400 189 544 q 272 158 189 247 q 499 69 356 69 q 697 133 621 72 q 776 317 774 194 l 611 317 l 611 394 l 888 394 m 485 861 q 383 899 424 861 q 335 1000 342 936 l 403 1000 q 488 924 418 924 q 542 944 519 924 q 571 1000 565 964 l 640 1000 q 592 898 633 935 q 485 861 550 861 z "},"Ǧ":{"ha":950,"x_min":67,"x_max":888,"o":"m 888 394 l 888 353 q 785 85 888 183 q 494 -14 682 -14 q 265 38 361 -14 q 117 181 168 89 q 67 393 67 274 q 121 604 67 513 q 272 746 175 696 q 492 796 368 796 q 647 767 579 796 q 760 683 715 738 l 760 782 l 850 782 l 850 540 l 769 540 q 661 669 732 624 q 496 714 590 714 q 272 629 354 714 q 189 400 189 544 q 272 158 189 247 q 499 69 356 69 q 697 133 621 72 q 776 317 774 194 l 611 317 l 611 394 l 888 394 m 326 1068 l 400 1068 l 489 917 l 575 1068 l 647 1068 l 538 858 l 439 858 l 326 1068 z "},"Ĝ":{"ha":950,"x_min":67,"x_max":888,"o":"m 888 394 l 888 353 q 785 85 888 183 q 494 -14 682 -14 q 265 38 361 -14 q 117 181 168 89 q 67 393 67 274 q 121 604 67 513 q 272 746 175 696 q 492 796 368 796 q 647 767 579 796 q 760 683 715 738 l 760 782 l 850 782 l 850 540 l 769 540 q 661 669 732 624 q 496 714 590 714 q 272 629 354 714 q 189 400 189 544 q 272 158 189 247 q 499 69 356 69 q 697 133 621 72 q 776 317 774 194 l 611 317 l 611 394 l 888 394 m 433 1078 l 542 1078 l 657 860 l 579 860 l 488 1033 l 396 860 l 318 860 l 433 1078 z "},"Ģ":{"ha":950,"x_min":67,"x_max":888,"o":"m 888 394 l 888 353 q 785 85 888 183 q 494 -14 682 -14 q 265 38 361 -14 q 117 181 168 89 q 67 393 67 274 q 121 604 67 513 q 272 746 175 696 q 492 796 368 796 q 647 767 579 796 q 760 683 715 738 l 760 782 l 850 782 l 850 540 l 769 540 q 661 669 732 624 q 496 714 590 714 q 272 629 354 714 q 189 400 189 544 q 272 158 189 247 q 499 69 356 69 q 697 133 621 72 q 776 317 774 194 l 611 317 l 611 394 l 888 394 m 415 -283 q 474 -253 456 -276 q 493 -190 493 -231 l 418 -190 l 418 -69 l 550 -69 l 550 -193 q 517 -292 550 -257 q 415 -328 483 -328 l 415 -283 z "},"Ġ":{"ha":950,"x_min":67,"x_max":888,"o":"m 888 394 l 888 353 q 785 85 888 183 q 494 -14 682 -14 q 265 38 361 -14 q 117 181 168 89 q 67 393 67 274 q 121 604 67 513 q 272 746 175 696 q 492 796 368 796 q 647 767 579 796 q 760 683 715 738 l 760 782 l 850 782 l 850 540 l 769 540 q 661 669 732 624 q 496 714 590 714 q 272 629 354 714 q 189 400 189 544 q 272 158 189 247 q 499 69 356 69 q 697 133 621 72 q 776 317 774 194 l 611 317 l 611 394 l 888 394 m 488 875 q 440 894 460 875 q 421 938 421 913 q 440 982 421 964 q 488 1000 458 1000 q 535 983 517 1000 q 553 938 553 967 q 536 894 554 913 q 488 875 518 875 z "},"Ḡ":{"ha":950,"x_min":67,"x_max":888,"o":"m 888 394 l 888 353 q 785 85 888 183 q 494 -14 682 -14 q 265 38 361 -14 q 117 181 168 89 q 67 393 67 274 q 121 604 67 513 q 272 746 175 696 q 492 796 368 796 q 647 767 579 796 q 760 683 715 738 l 760 782 l 850 782 l 850 540 l 769 540 q 661 669 732 624 q 496 714 590 714 q 272 629 354 714 q 189 400 189 544 q 272 158 189 247 q 499 69 356 69 q 697 133 621 72 q 776 317 774 194 l 611 317 l 611 394 l 888 394 m 342 956 l 633 956 l 633 893 l 342 893 l 342 956 z "},"H":{"ha":968,"x_min":54,"x_max":914,"o":"m 54 74 l 163 74 l 163 708 l 54 708 l 54 782 l 385 782 l 385 708 l 276 708 l 276 442 l 693 442 l 693 708 l 583 708 l 583 782 l 914 782 l 914 708 l 806 708 l 806 74 l 914 74 l 914 0 l 583 0 l 583 74 l 693 74 l 693 363 l 276 363 l 276 74 l 385 74 l 385 0 l 54 0 l 54 74 z "},"Ħ":{"ha":968,"x_min":54,"x_max":914,"o":"m 806 708 l 806 611 l 894 611 l 894 544 l 806 544 l 806 74 l 914 74 l 914 0 l 583 0 l 583 74 l 693 74 l 693 363 l 276 363 l 276 74 l 385 74 l 385 0 l 54 0 l 54 74 l 163 74 l 163 544 l 76 544 l 76 611 l 163 611 l 163 708 l 54 708 l 54 782 l 385 782 l 385 708 l 276 708 l 276 611 l 693 611 l 693 708 l 583 708 l 583 782 l 914 782 l 914 708 l 806 708 m 693 544 l 276 544 l 276 442 l 693 442 l 693 544 z "},"Ḫ":{"ha":968,"x_min":54,"x_max":914,"o":"m 54 74 l 163 74 l 163 708 l 54 708 l 54 782 l 385 782 l 385 708 l 276 708 l 276 442 l 693 442 l 693 708 l 583 708 l 583 782 l 914 782 l 914 708 l 806 708 l 806 74 l 914 74 l 914 0 l 583 0 l 583 74 l 693 74 l 693 363 l 276 363 l 276 74 l 385 74 l 385 0 l 54 0 l 54 74 m 479 -208 q 377 -171 418 -208 q 329 -69 336 -133 l 397 -69 q 482 -146 413 -146 q 537 -126 514 -146 q 565 -69 560 -106 l 635 -69 q 586 -172 628 -135 q 479 -208 544 -208 z "},"Ȟ":{"ha":968,"x_min":54,"x_max":914,"o":"m 54 74 l 163 74 l 163 708 l 54 708 l 54 782 l 385 782 l 385 708 l 276 708 l 276 442 l 693 442 l 693 708 l 583 708 l 583 782 l 914 782 l 914 708 l 806 708 l 806 74 l 914 74 l 914 0 l 583 0 l 583 74 l 693 74 l 693 363 l 276 363 l 276 74 l 385 74 l 385 0 l 54 0 l 54 74 m 328 1068 l 401 1068 l 490 917 l 576 1068 l 649 1068 l 539 858 l 440 858 l 328 1068 z "},"Ĥ":{"ha":968,"x_min":54,"x_max":914,"o":"m 54 74 l 163 74 l 163 708 l 54 708 l 54 782 l 385 782 l 385 708 l 276 708 l 276 442 l 693 442 l 693 708 l 583 708 l 583 782 l 914 782 l 914 708 l 806 708 l 806 74 l 914 74 l 914 0 l 583 0 l 583 74 l 693 74 l 693 363 l 276 363 l 276 74 l 385 74 l 385 0 l 54 0 l 54 74 m 435 1078 l 543 1078 l 658 860 l 581 860 l 489 1033 l 397 860 l 319 860 l 435 1078 z "},"Ḥ":{"ha":968,"x_min":54,"x_max":914,"o":"m 54 74 l 163 74 l 163 708 l 54 708 l 54 782 l 385 782 l 385 708 l 276 708 l 276 442 l 693 442 l 693 708 l 583 708 l 583 782 l 914 782 l 914 708 l 806 708 l 806 74 l 914 74 l 914 0 l 583 0 l 583 74 l 693 74 l 693 363 l 276 363 l 276 74 l 385 74 l 385 0 l 54 0 l 54 74 m 482 -194 q 435 -176 454 -194 q 415 -132 415 -157 q 434 -87 415 -106 q 482 -69 453 -69 q 529 -86 511 -69 q 547 -132 547 -103 q 531 -176 549 -157 q 482 -194 513 -194 z "},"I":{"ha":471,"x_min":69,"x_max":401,"o":"m 69 74 l 178 74 l 178 708 l 69 708 l 69 782 l 401 782 l 401 708 l 292 708 l 292 74 l 401 74 l 401 0 l 69 0 l 69 74 z "},"Ĳ":{"ha":924,"x_min":69,"x_max":893,"o":"m 69 74 l 178 74 l 178 708 l 69 708 l 69 782 l 401 782 l 401 708 l 292 708 l 292 74 l 401 74 l 401 0 l 69 0 l 69 74 m 517 -58 l 600 -58 q 663 -31 647 -58 q 679 56 679 -3 l 679 708 l 572 708 l 572 782 l 893 782 l 893 708 l 792 708 l 792 57 q 751 -98 792 -49 q 618 -147 711 -147 l 517 -147 l 517 -58 z "},"Í":{"ha":471,"x_min":69,"x_max":401,"o":"m 69 74 l 178 74 l 178 708 l 69 708 l 69 782 l 401 782 l 401 708 l 292 708 l 292 74 l 401 74 l 401 0 l 69 0 l 69 74 m 278 1100 l 394 1100 l 269 899 l 204 899 l 278 1100 z "},"Ĭ":{"ha":471,"x_min":69,"x_max":401,"o":"m 69 74 l 178 74 l 178 708 l 69 708 l 69 782 l 401 782 l 401 708 l 292 708 l 292 74 l 401 74 l 401 0 l 69 0 l 69 74 m 233 861 q 131 899 172 861 q 83 1000 90 936 l 151 1000 q 236 924 167 924 q 291 944 268 924 q 319 1000 314 964 l 389 1000 q 340 898 382 935 q 233 861 299 861 z "},"Ǐ":{"ha":471,"x_min":69,"x_max":401,"o":"m 69 74 l 178 74 l 178 708 l 69 708 l 69 782 l 401 782 l 401 708 l 292 708 l 292 74 l 401 74 l 401 0 l 69 0 l 69 74 m 75 1068 l 149 1068 l 238 917 l 324 1068 l 396 1068 l 286 858 l 188 858 l 75 1068 z "},"Î":{"ha":471,"x_min":67,"x_max":406,"o":"m 69 74 l 178 74 l 178 708 l 69 708 l 69 782 l 401 782 l 401 708 l 292 708 l 292 74 l 401 74 l 401 0 l 69 0 l 69 74 m 182 1078 l 290 1078 l 406 860 l 328 860 l 236 1033 l 144 860 l 67 860 l 182 1078 z "},"Ȉ":{"ha":471,"x_min":-37,"x_max":401,"o":"m 69 74 l 178 74 l 178 708 l 69 708 l 69 782 l 401 782 l 401 708 l 292 708 l 292 74 l 401 74 l 401 0 l 69 0 l 69 74 m -37 1110 l 79 1110 l 158 899 l 93 899 l -37 1110 m 151 1110 l 268 1110 l 346 899 l 281 899 l 151 1110 z "},"Ï":{"ha":471,"x_min":40,"x_max":432,"o":"m 69 74 l 178 74 l 178 708 l 69 708 l 69 782 l 401 782 l 401 708 l 292 708 l 292 74 l 401 74 l 401 0 l 69 0 l 69 74 m 103 871 q 58 888 75 871 q 40 931 40 904 q 58 974 40 957 q 103 990 75 990 q 148 974 131 990 q 165 931 165 957 q 148 888 165 904 q 103 871 131 871 m 369 871 q 325 887 342 871 q 308 931 308 903 q 325 974 308 958 q 369 990 342 990 q 415 974 397 990 q 432 931 432 957 q 415 888 432 904 q 369 871 397 871 z "},"Ḯ":{"ha":471,"x_min":40,"x_max":432,"o":"m 69 74 l 178 74 l 178 708 l 69 708 l 69 782 l 401 782 l 401 708 l 292 708 l 292 74 l 401 74 l 401 0 l 69 0 l 69 74 m 103 871 q 58 888 75 871 q 40 931 40 904 q 58 974 40 957 q 103 990 75 990 q 148 974 131 990 q 165 931 165 957 q 148 888 165 904 q 103 871 131 871 m 369 871 q 325 887 342 871 q 308 931 308 903 q 325 974 308 958 q 369 990 342 990 q 415 974 397 990 q 432 931 432 957 q 415 888 432 904 q 369 871 397 871 m 278 1308 l 394 1308 l 269 1107 l 204 1107 l 278 1308 z "},"İ":{"ha":471,"x_min":69,"x_max":401,"o":"m 69 74 l 178 74 l 178 708 l 69 708 l 69 782 l 401 782 l 401 708 l 292 708 l 292 74 l 401 74 l 401 0 l 69 0 l 69 74 m 236 875 q 189 894 208 875 q 169 938 169 913 q 188 982 169 964 q 236 1000 207 1000 q 283 983 265 1000 q 301 938 301 967 q 285 894 303 913 q 236 875 267 875 z "},"Ị":{"ha":471,"x_min":69,"x_max":401,"o":"m 69 74 l 178 74 l 178 708 l 69 708 l 69 782 l 401 782 l 401 708 l 292 708 l 292 74 l 401 74 l 401 0 l 69 0 l 69 74 m 235 -194 q 188 -176 207 -194 q 168 -132 168 -157 q 187 -87 168 -106 q 235 -69 206 -69 q 282 -86 264 -69 q 300 -132 300 -103 q 283 -176 301 -157 q 235 -194 265 -194 z "},"Ì":{"ha":471,"x_min":69,"x_max":401,"o":"m 69 74 l 178 74 l 178 708 l 69 708 l 69 782 l 401 782 l 401 708 l 292 708 l 292 74 l 401 74 l 401 0 l 69 0 l 69 74 m 78 1100 l 194 1100 l 268 899 l 203 899 l 78 1100 z "},"Ỉ":{"ha":471,"x_min":69,"x_max":401,"o":"m 69 74 l 178 74 l 178 708 l 69 708 l 69 782 l 401 782 l 401 708 l 292 708 l 292 74 l 401 74 l 401 0 l 69 0 l 69 74 m 217 903 q 264 953 264 918 q 251 981 264 971 q 217 990 238 990 q 157 972 189 990 l 136 1031 q 224 1054 178 1054 q 306 1026 274 1054 q 338 956 338 999 q 236 842 338 869 l 217 903 z "},"Ȋ":{"ha":471,"x_min":69,"x_max":401,"o":"m 69 74 l 178 74 l 178 708 l 69 708 l 69 782 l 401 782 l 401 708 l 292 708 l 292 74 l 401 74 l 401 0 l 69 0 l 69 74 m 74 861 q 124 969 81 929 q 236 1010 168 1010 q 347 969 303 1010 q 397 861 390 929 l 315 861 q 288 914 308 896 q 236 932 268 932 q 156 861 168 932 l 74 861 z "},"Ī":{"ha":471,"x_min":69,"x_max":401,"o":"m 69 74 l 178 74 l 178 708 l 69 708 l 69 782 l 401 782 l 401 708 l 292 708 l 292 74 l 401 74 l 401 0 l 69 0 l 69 74 m 90 956 l 382 956 l 382 893 l 90 893 l 90 956 z "},"Į":{"ha":471,"x_min":69,"x_max":401,"o":"m 69 74 l 178 74 l 178 708 l 69 708 l 69 782 l 401 782 l 401 708 l 292 708 l 292 74 l 401 74 l 401 0 l 69 0 l 69 74 m 240 -235 q 161 -206 193 -235 q 129 -132 129 -178 q 147 -67 129 -99 q 203 0 165 -35 l 263 0 q 200 -111 200 -65 q 218 -156 200 -140 q 265 -171 236 -171 q 326 -153 296 -171 l 326 -208 q 283 -228 303 -222 q 240 -235 264 -235 z "},"Ĩ":{"ha":471,"x_min":53,"x_max":421,"o":"m 69 74 l 178 74 l 178 708 l 69 708 l 69 782 l 401 782 l 401 708 l 292 708 l 292 74 l 401 74 l 401 0 l 69 0 l 69 74 m 324 889 q 283 895 304 889 q 242 908 261 901 q 218 917 224 914 q 139 940 163 940 q 110 930 121 940 q 96 894 100 919 l 53 894 q 85 986 58 956 q 154 1017 111 1017 q 251 989 185 1017 q 329 965 310 965 q 363 976 350 965 q 381 1014 375 988 l 421 1014 q 393 923 417 957 q 324 889 369 889 z "},"J":{"ha":453,"x_min":46,"x_max":422,"o":"m 46 -58 l 129 -58 q 192 -31 176 -58 q 208 56 208 -3 l 208 708 l 101 708 l 101 782 l 422 782 l 422 708 l 321 708 l 321 57 q 281 -98 321 -49 q 147 -147 240 -147 l 46 -147 l 46 -58 z "},"Ĵ":{"ha":453,"x_min":46,"x_max":435,"o":"m 46 -58 l 129 -58 q 192 -31 176 -58 q 208 56 208 -3 l 208 708 l 101 708 l 101 782 l 422 782 l 422 708 l 321 708 l 321 57 q 281 -98 321 -49 q 147 -147 240 -147 l 46 -147 l 46 -58 m 211 1078 l 319 1078 l 435 860 l 357 860 l 265 1033 l 174 860 l 96 860 l 211 1078 z "},"K":{"ha":879,"x_min":54,"x_max":840,"o":"m 54 74 l 163 74 l 163 708 l 54 708 l 54 782 l 385 782 l 385 708 l 276 708 l 276 410 l 599 708 l 510 708 l 510 782 l 833 782 l 833 708 l 731 708 l 392 394 l 736 74 l 840 74 l 840 0 l 506 0 l 506 74 l 597 74 l 276 371 l 276 74 l 385 74 l 385 0 l 54 0 l 54 74 z "},"Ǩ":{"ha":879,"x_min":54,"x_max":840,"o":"m 54 74 l 163 74 l 163 708 l 54 708 l 54 782 l 385 782 l 385 708 l 276 708 l 276 410 l 599 708 l 510 708 l 510 782 l 833 782 l 833 708 l 731 708 l 392 394 l 736 74 l 840 74 l 840 0 l 506 0 l 506 74 l 597 74 l 276 371 l 276 74 l 385 74 l 385 0 l 54 0 l 54 74 m 279 1068 l 353 1068 l 442 917 l 528 1068 l 600 1068 l 490 858 l 392 858 l 279 1068 z "},"Ķ":{"ha":879,"x_min":54,"x_max":840,"o":"m 54 74 l 163 74 l 163 708 l 54 708 l 54 782 l 385 782 l 385 708 l 276 708 l 276 410 l 599 708 l 510 708 l 510 782 l 833 782 l 833 708 l 731 708 l 392 394 l 736 74 l 840 74 l 840 0 l 506 0 l 506 74 l 597 74 l 276 371 l 276 74 l 385 74 l 385 0 l 54 0 l 54 74 m 374 -283 q 433 -253 414 -276 q 451 -190 451 -231 l 376 -190 l 376 -69 l 508 -69 l 508 -193 q 475 -292 508 -257 q 374 -328 442 -328 l 374 -283 z "},"L":{"ha":729,"x_min":54,"x_max":693,"o":"m 54 74 l 163 74 l 163 708 l 54 708 l 54 782 l 385 782 l 385 708 l 276 708 l 276 74 l 601 74 l 601 314 l 693 314 l 693 0 l 54 0 l 54 74 z "},"Ǉ":{"ha":1182,"x_min":54,"x_max":1151,"o":"m 54 74 l 163 74 l 163 708 l 54 708 l 54 782 l 385 782 l 385 708 l 276 708 l 276 74 l 601 74 l 601 314 l 693 314 l 693 0 l 54 0 l 54 74 m 775 -58 l 858 -58 q 922 -31 906 -58 q 938 56 938 -3 l 938 708 l 831 708 l 831 782 l 1151 782 l 1151 708 l 1050 708 l 1050 57 q 1010 -98 1050 -49 q 876 -147 969 -147 l 775 -147 l 775 -58 z "},"Ĺ":{"ha":729,"x_min":54,"x_max":693,"o":"m 54 74 l 163 74 l 163 708 l 54 708 l 54 782 l 385 782 l 385 708 l 276 708 l 276 74 l 601 74 l 601 314 l 693 314 l 693 0 l 54 0 l 54 74 m 261 1100 l 378 1100 l 253 899 l 188 899 l 261 1100 z "},"Ľ":{"ha":729,"x_min":54,"x_max":693,"o":"m 54 74 l 163 74 l 163 708 l 54 708 l 54 782 l 385 782 l 385 708 l 276 708 l 276 74 l 601 74 l 601 314 l 693 314 l 693 0 l 54 0 l 54 74 m 558 571 q 617 597 599 578 q 635 658 635 617 l 560 658 l 560 782 l 693 782 l 692 657 q 660 560 693 594 q 558 525 626 525 l 558 571 z "},"Ļ":{"ha":729,"x_min":54,"x_max":693,"o":"m 54 74 l 163 74 l 163 708 l 54 708 l 54 782 l 385 782 l 385 708 l 276 708 l 276 74 l 601 74 l 601 314 l 693 314 l 693 0 l 54 0 l 54 74 m 317 -283 q 376 -253 357 -276 q 394 -190 394 -231 l 319 -190 l 319 -69 l 451 -69 l 451 -193 q 418 -292 451 -257 q 317 -328 385 -328 l 317 -283 z "},"Ŀ":{"ha":729,"x_min":54,"x_max":693,"o":"m 54 74 l 163 74 l 163 708 l 54 708 l 54 782 l 385 782 l 385 708 l 276 708 l 276 74 l 601 74 l 601 314 l 693 314 l 693 0 l 54 0 l 54 74 m 582 460 q 528 481 550 460 q 507 531 507 501 q 528 580 507 560 q 582 600 550 600 q 635 580 614 600 q 657 531 657 560 q 635 481 657 501 q 582 460 614 460 z "},"Ḷ":{"ha":729,"x_min":54,"x_max":693,"o":"m 54 74 l 163 74 l 163 708 l 54 708 l 54 782 l 385 782 l 385 708 l 276 708 l 276 74 l 601 74 l 601 314 l 693 314 l 693 0 l 54 0 l 54 74 m 383 -194 q 336 -176 356 -194 q 317 -132 317 -157 q 335 -87 317 -106 q 383 -69 354 -69 q 431 -86 413 -69 q 449 -132 449 -103 q 432 -176 450 -157 q 383 -194 414 -194 z "},"ǈ":{"ha":1075,"x_min":54,"x_max":990,"o":"m 54 74 l 163 74 l 163 708 l 54 708 l 54 782 l 385 782 l 385 708 l 276 708 l 276 74 l 601 74 l 601 314 l 693 314 l 693 0 l 54 0 l 54 74 m 915 665 q 862 686 883 665 q 840 738 840 707 q 862 787 840 767 q 915 807 883 807 q 969 787 947 807 q 990 738 990 767 q 969 686 990 707 q 915 665 947 665 m 736 -131 l 794 -131 q 867 -106 849 -131 q 885 -19 885 -81 l 885 472 l 774 472 l 774 546 l 989 546 l 989 6 q 976 -112 989 -67 q 922 -184 964 -157 q 796 -211 879 -211 l 736 -211 l 736 -131 z "},"Ḻ":{"ha":729,"x_min":54,"x_max":693,"o":"m 54 74 l 163 74 l 163 708 l 54 708 l 54 782 l 385 782 l 385 708 l 276 708 l 276 74 l 601 74 l 601 314 l 693 314 l 693 0 l 54 0 l 54 74 m 238 -51 l 529 -51 l 529 -114 l 238 -114 l 238 -51 z "},"Ł":{"ha":729,"x_min":54,"x_max":693,"o":"m 693 314 l 693 0 l 54 0 l 54 74 l 163 74 l 163 331 l 54 276 l 54 347 l 163 401 l 163 708 l 54 708 l 54 782 l 385 782 l 385 708 l 276 708 l 276 460 l 469 557 l 469 482 l 276 386 l 276 74 l 601 74 l 601 314 l 693 314 z "},"M":{"ha":1144,"x_min":56,"x_max":1089,"o":"m 56 74 l 161 74 l 161 708 l 56 708 l 56 782 l 321 782 l 576 233 l 819 782 l 1089 782 l 1089 708 l 983 708 l 983 74 l 1089 74 l 1089 0 l 774 0 l 774 74 l 875 74 l 875 689 l 581 40 l 544 40 l 246 689 l 246 74 l 347 74 l 347 0 l 56 0 l 56 74 z "},"Ṁ":{"ha":1144,"x_min":56,"x_max":1089,"o":"m 56 74 l 161 74 l 161 708 l 56 708 l 56 782 l 321 782 l 576 233 l 819 782 l 1089 782 l 1089 708 l 983 708 l 983 74 l 1089 74 l 1089 0 l 774 0 l 774 74 l 875 74 l 875 689 l 581 40 l 544 40 l 246 689 l 246 74 l 347 74 l 347 0 l 56 0 l 56 74 m 568 875 q 521 894 540 875 q 501 938 501 913 q 520 982 501 964 q 568 1000 539 1000 q 615 983 597 1000 q 633 938 633 967 q 617 894 635 913 q 568 875 599 875 z "},"Ṃ":{"ha":1144,"x_min":56,"x_max":1089,"o":"m 56 74 l 161 74 l 161 708 l 56 708 l 56 782 l 321 782 l 576 233 l 819 782 l 1089 782 l 1089 708 l 983 708 l 983 74 l 1089 74 l 1089 0 l 774 0 l 774 74 l 875 74 l 875 689 l 581 40 l 544 40 l 246 689 l 246 74 l 347 74 l 347 0 l 56 0 l 56 74 m 563 -194 q 515 -176 535 -194 q 496 -132 496 -157 q 515 -87 496 -106 q 563 -69 533 -69 q 610 -86 592 -69 q 628 -132 628 -103 q 611 -176 629 -157 q 563 -194 593 -194 z "},"N":{"ha":978,"x_min":57,"x_max":942,"o":"m 57 74 l 168 74 l 168 708 l 57 708 l 57 782 l 299 782 l 746 150 l 746 708 l 635 708 l 635 782 l 942 782 l 942 708 l 833 708 l 833 0 l 721 0 l 254 665 l 254 74 l 365 74 l 365 0 l 57 0 l 57 74 z "},"Ǌ":{"ha":1431,"x_min":57,"x_max":1400,"o":"m 57 74 l 168 74 l 168 708 l 57 708 l 57 782 l 299 782 l 746 150 l 746 708 l 635 708 l 635 782 l 942 782 l 942 708 l 833 708 l 833 0 l 721 0 l 254 665 l 254 74 l 365 74 l 365 0 l 57 0 l 57 74 m 1024 -58 l 1107 -58 q 1170 -31 1154 -58 q 1186 56 1186 -3 l 1186 708 l 1079 708 l 1079 782 l 1400 782 l 1400 708 l 1299 708 l 1299 57 q 1258 -98 1299 -49 q 1125 -147 1218 -147 l 1024 -147 l 1024 -58 z "},"Ń":{"ha":978,"x_min":57,"x_max":942,"o":"m 57 74 l 168 74 l 168 708 l 57 708 l 57 782 l 299 782 l 746 150 l 746 708 l 635 708 l 635 782 l 942 782 l 942 708 l 833 708 l 833 0 l 721 0 l 254 665 l 254 74 l 365 74 l 365 0 l 57 0 l 57 74 m 529 1100 l 646 1100 l 521 899 l 456 899 l 529 1100 z "},"Ň":{"ha":978,"x_min":57,"x_max":942,"o":"m 57 74 l 168 74 l 168 708 l 57 708 l 57 782 l 299 782 l 746 150 l 746 708 l 635 708 l 635 782 l 942 782 l 942 708 l 833 708 l 833 0 l 721 0 l 254 665 l 254 74 l 365 74 l 365 0 l 57 0 l 57 74 m 326 1068 l 400 1068 l 489 917 l 575 1068 l 647 1068 l 538 858 l 439 858 l 326 1068 z "},"Ņ":{"ha":978,"x_min":57,"x_max":942,"o":"m 57 74 l 168 74 l 168 708 l 57 708 l 57 782 l 299 782 l 746 150 l 746 708 l 635 708 l 635 782 l 942 782 l 942 708 l 833 708 l 833 0 l 721 0 l 254 665 l 254 74 l 365 74 l 365 0 l 57 0 l 57 74 m 444 -283 q 503 -253 485 -276 q 522 -190 522 -231 l 447 -190 l 447 -69 l 579 -69 l 579 -193 q 546 -292 579 -257 q 444 -328 513 -328 l 444 -283 z "},"Ṅ":{"ha":978,"x_min":57,"x_max":942,"o":"m 57 74 l 168 74 l 168 708 l 57 708 l 57 782 l 299 782 l 746 150 l 746 708 l 635 708 l 635 782 l 942 782 l 942 708 l 833 708 l 833 0 l 721 0 l 254 665 l 254 74 l 365 74 l 365 0 l 57 0 l 57 74 m 488 875 q 440 894 460 875 q 421 938 421 913 q 440 982 421 964 q 488 1000 458 1000 q 535 983 517 1000 q 553 938 553 967 q 536 894 554 913 q 488 875 518 875 z "},"Ṇ":{"ha":978,"x_min":57,"x_max":942,"o":"m 57 74 l 168 74 l 168 708 l 57 708 l 57 782 l 299 782 l 746 150 l 746 708 l 635 708 l 635 782 l 942 782 l 942 708 l 833 708 l 833 0 l 721 0 l 254 665 l 254 74 l 365 74 l 365 0 l 57 0 l 57 74 m 511 -194 q 464 -176 483 -194 q 444 -132 444 -157 q 463 -87 444 -106 q 511 -69 482 -69 q 558 -86 540 -69 q 576 -132 576 -103 q 560 -176 578 -157 q 511 -194 542 -194 z "},"Ǹ":{"ha":978,"x_min":57,"x_max":942,"o":"m 57 74 l 168 74 l 168 708 l 57 708 l 57 782 l 299 782 l 746 150 l 746 708 l 635 708 l 635 782 l 942 782 l 942 708 l 833 708 l 833 0 l 721 0 l 254 665 l 254 74 l 365 74 l 365 0 l 57 0 l 57 74 m 329 1100 l 446 1100 l 519 899 l 454 899 l 329 1100 z "},"Ŋ":{"ha":975,"x_min":54,"x_max":939,"o":"m 543 -181 l 568 -181 q 699 -139 654 -181 q 743 -19 744 -97 l 251 665 l 251 74 l 363 74 l 363 0 l 54 0 l 54 74 l 165 74 l 165 708 l 54 708 l 54 782 l 296 782 l 743 150 l 743 708 l 632 708 l 632 782 l 939 782 l 939 708 l 831 708 l 831 -1 q 758 -192 831 -128 q 571 -256 686 -256 l 543 -256 l 543 -181 z "},"ǋ":{"ha":1324,"x_min":57,"x_max":1239,"o":"m 57 74 l 168 74 l 168 708 l 57 708 l 57 782 l 299 782 l 746 150 l 746 708 l 635 708 l 635 782 l 942 782 l 942 708 l 833 708 l 833 0 l 721 0 l 254 665 l 254 74 l 365 74 l 365 0 l 57 0 l 57 74 m 1164 665 q 1110 686 1132 665 q 1089 738 1089 707 q 1110 787 1089 767 q 1164 807 1132 807 q 1217 787 1196 807 q 1239 738 1239 767 q 1217 686 1239 707 q 1164 665 1196 665 m 985 -131 l 1043 -131 q 1115 -106 1097 -131 q 1133 -19 1133 -81 l 1133 472 l 1022 472 l 1022 546 l 1238 546 l 1238 6 q 1225 -112 1238 -67 q 1170 -184 1213 -157 q 1044 -211 1128 -211 l 985 -211 l 985 -131 z "},"Ṉ":{"ha":978,"x_min":57,"x_max":942,"o":"m 57 74 l 168 74 l 168 708 l 57 708 l 57 782 l 299 782 l 746 150 l 746 708 l 635 708 l 635 782 l 942 782 l 942 708 l 833 708 l 833 0 l 721 0 l 254 665 l 254 74 l 365 74 l 365 0 l 57 0 l 57 74 m 365 -51 l 657 -51 l 657 -114 l 365 -114 l 365 -51 z "},"Ñ":{"ha":978,"x_min":57,"x_max":942,"o":"m 57 74 l 168 74 l 168 708 l 57 708 l 57 782 l 299 782 l 746 150 l 746 708 l 635 708 l 635 782 l 942 782 l 942 708 l 833 708 l 833 0 l 721 0 l 254 665 l 254 74 l 365 74 l 365 0 l 57 0 l 57 74 m 575 889 q 534 895 556 889 q 494 908 513 901 q 469 917 475 914 q 390 940 414 940 q 362 930 372 940 q 347 894 351 919 l 304 894 q 336 986 310 956 q 406 1017 363 1017 q 503 989 436 1017 q 581 965 561 965 q 614 976 601 965 q 632 1014 626 988 l 672 1014 q 644 923 668 957 q 575 889 621 889 z "},"O":{"ha":985,"x_min":68,"x_max":915,"o":"m 492 -15 q 270 40 367 -15 q 121 187 174 94 q 68 389 68 279 q 121 592 68 499 q 270 741 174 686 q 492 796 367 796 q 713 741 617 796 q 863 592 810 686 q 915 389 915 499 q 863 187 915 279 q 713 40 810 94 q 492 -15 617 -15 m 492 68 q 653 111 585 68 q 758 227 721 154 q 794 389 794 300 q 758 553 794 479 q 653 670 721 626 q 492 714 585 714 q 331 670 399 714 q 226 552 263 626 q 190 388 190 478 q 226 225 190 297 q 331 110 263 153 q 492 68 399 68 z "},"Ó":{"ha":985,"x_min":68,"x_max":915,"o":"m 492 -15 q 270 40 367 -15 q 121 187 174 94 q 68 389 68 279 q 121 592 68 499 q 270 741 174 686 q 492 796 367 796 q 713 741 617 796 q 863 592 810 686 q 915 389 915 499 q 863 187 915 279 q 713 40 810 94 q 492 -15 617 -15 m 492 68 q 653 111 585 68 q 758 227 721 154 q 794 389 794 300 q 758 553 794 479 q 653 670 721 626 q 492 714 585 714 q 331 670 399 714 q 226 552 263 626 q 190 388 190 478 q 226 225 190 297 q 331 110 263 153 q 492 68 399 68 m 532 1100 l 649 1100 l 524 899 l 458 899 l 532 1100 z "},"Ŏ":{"ha":985,"x_min":68,"x_max":915,"o":"m 492 -15 q 270 40 367 -15 q 121 187 174 94 q 68 389 68 279 q 121 592 68 499 q 270 741 174 686 q 492 796 367 796 q 713 741 617 796 q 863 592 810 686 q 915 389 915 499 q 863 187 915 279 q 713 40 810 94 q 492 -15 617 -15 m 492 68 q 653 111 585 68 q 758 227 721 154 q 794 389 794 300 q 758 553 794 479 q 653 670 721 626 q 492 714 585 714 q 331 670 399 714 q 226 552 263 626 q 190 388 190 478 q 226 225 190 297 q 331 110 263 153 q 492 68 399 68 m 488 861 q 385 899 426 861 q 338 1000 344 936 l 406 1000 q 490 924 421 924 q 545 944 522 924 q 574 1000 568 964 l 643 1000 q 594 898 636 935 q 488 861 553 861 z "},"Ǒ":{"ha":985,"x_min":68,"x_max":915,"o":"m 492 -15 q 270 40 367 -15 q 121 187 174 94 q 68 389 68 279 q 121 592 68 499 q 270 741 174 686 q 492 796 367 796 q 713 741 617 796 q 863 592 810 686 q 915 389 915 499 q 863 187 915 279 q 713 40 810 94 q 492 -15 617 -15 m 492 68 q 653 111 585 68 q 758 227 721 154 q 794 389 794 300 q 758 553 794 479 q 653 670 721 626 q 492 714 585 714 q 331 670 399 714 q 226 552 263 626 q 190 388 190 478 q 226 225 190 297 q 331 110 263 153 q 492 68 399 68 m 329 1068 l 403 1068 l 492 917 l 578 1068 l 650 1068 l 540 858 l 442 858 l 329 1068 z "},"Ô":{"ha":985,"x_min":68,"x_max":915,"o":"m 492 -15 q 270 40 367 -15 q 121 187 174 94 q 68 389 68 279 q 121 592 68 499 q 270 741 174 686 q 492 796 367 796 q 713 741 617 796 q 863 592 810 686 q 915 389 915 499 q 863 187 915 279 q 713 40 810 94 q 492 -15 617 -15 m 492 68 q 653 111 585 68 q 758 227 721 154 q 794 389 794 300 q 758 553 794 479 q 653 670 721 626 q 492 714 585 714 q 331 670 399 714 q 226 552 263 626 q 190 388 190 478 q 226 225 190 297 q 331 110 263 153 q 492 68 399 68 m 436 1078 l 544 1078 l 660 860 l 582 860 l 490 1033 l 399 860 l 321 860 l 436 1078 z "},"Ố":{"ha":985,"x_min":68,"x_max":915,"o":"m 492 -15 q 270 40 367 -15 q 121 187 174 94 q 68 389 68 279 q 121 592 68 499 q 270 741 174 686 q 492 796 367 796 q 713 741 617 796 q 863 592 810 686 q 915 389 915 499 q 863 187 915 279 q 713 40 810 94 q 492 -15 617 -15 m 492 68 q 653 111 585 68 q 758 227 721 154 q 794 389 794 300 q 758 553 794 479 q 653 670 721 626 q 492 714 585 714 q 331 670 399 714 q 226 552 263 626 q 190 388 190 478 q 226 225 190 297 q 331 110 263 153 q 492 68 399 68 m 681 1146 l 783 1146 l 686 986 l 621 986 l 681 1146 m 436 1036 l 544 1036 l 660 860 l 582 860 l 490 992 l 399 860 l 321 860 l 436 1036 z "},"Ộ":{"ha":985,"x_min":68,"x_max":915,"o":"m 492 -15 q 270 40 367 -15 q 121 187 174 94 q 68 389 68 279 q 121 592 68 499 q 270 741 174 686 q 492 796 367 796 q 713 741 617 796 q 863 592 810 686 q 915 389 915 499 q 863 187 915 279 q 713 40 810 94 q 492 -15 617 -15 m 492 68 q 653 111 585 68 q 758 227 721 154 q 794 389 794 300 q 758 553 794 479 q 653 670 721 626 q 492 714 585 714 q 331 670 399 714 q 226 552 263 626 q 190 388 190 478 q 226 225 190 297 q 331 110 263 153 q 492 68 399 68 m 493 -194 q 446 -176 465 -194 q 426 -132 426 -157 q 445 -87 426 -106 q 493 -69 464 -69 q 540 -86 522 -69 q 558 -132 558 -103 q 542 -176 560 -157 q 493 -194 524 -194 m 436 1078 l 544 1078 l 660 860 l 582 860 l 490 1033 l 399 860 l 321 860 l 436 1078 z "},"Ồ":{"ha":985,"x_min":68,"x_max":915,"o":"m 492 -15 q 270 40 367 -15 q 121 187 174 94 q 68 389 68 279 q 121 592 68 499 q 270 741 174 686 q 492 796 367 796 q 713 741 617 796 q 863 592 810 686 q 915 389 915 499 q 863 187 915 279 q 713 40 810 94 q 492 -15 617 -15 m 492 68 q 653 111 585 68 q 758 227 721 154 q 794 389 794 300 q 758 553 794 479 q 653 670 721 626 q 492 714 585 714 q 331 670 399 714 q 226 552 263 626 q 190 388 190 478 q 226 225 190 297 q 331 110 263 153 q 492 68 399 68 m 649 986 l 551 1146 l 654 1146 l 714 986 l 649 986 m 436 1036 l 544 1036 l 660 860 l 582 860 l 490 992 l 399 860 l 321 860 l 436 1036 z "},"Ổ":{"ha":985,"x_min":68,"x_max":915,"o":"m 492 -15 q 270 40 367 -15 q 121 187 174 94 q 68 389 68 279 q 121 592 68 499 q 270 741 174 686 q 492 796 367 796 q 713 741 617 796 q 863 592 810 686 q 915 389 915 499 q 863 187 915 279 q 713 40 810 94 q 492 -15 617 -15 m 492 68 q 653 111 585 68 q 758 227 721 154 q 794 389 794 300 q 758 553 794 479 q 653 670 721 626 q 492 714 585 714 q 331 670 399 714 q 226 552 263 626 q 190 388 190 478 q 226 225 190 297 q 331 110 263 153 q 492 68 399 68 m 607 1033 q 654 1083 654 1049 q 641 1111 654 1101 q 607 1121 628 1121 q 547 1103 579 1121 l 526 1161 q 614 1185 568 1185 q 696 1157 664 1185 q 728 1086 728 1129 q 626 972 728 1000 l 607 1033 m 436 1036 l 544 1036 l 660 860 l 582 860 l 490 992 l 399 860 l 321 860 l 436 1036 z "},"Ỗ":{"ha":985,"x_min":68,"x_max":915,"o":"m 492 -15 q 270 40 367 -15 q 121 187 174 94 q 68 389 68 279 q 121 592 68 499 q 270 741 174 686 q 492 796 367 796 q 713 741 617 796 q 863 592 810 686 q 915 389 915 499 q 863 187 915 279 q 713 40 810 94 q 492 -15 617 -15 m 492 68 q 653 111 585 68 q 758 227 721 154 q 794 389 794 300 q 758 553 794 479 q 653 670 721 626 q 492 714 585 714 q 331 670 399 714 q 226 552 263 626 q 190 388 190 478 q 226 225 190 297 q 331 110 263 153 q 492 68 399 68 m 578 1072 q 537 1078 558 1072 q 497 1091 515 1085 q 472 1100 478 1097 q 393 1124 417 1124 q 365 1113 375 1124 q 350 1078 354 1103 l 307 1078 q 339 1169 313 1139 q 408 1200 365 1200 q 506 1172 439 1200 q 583 1149 564 1149 q 617 1160 604 1149 q 635 1197 629 1171 l 675 1197 q 647 1106 671 1140 q 578 1072 624 1072 m 436 1036 l 544 1036 l 660 860 l 582 860 l 490 992 l 399 860 l 321 860 l 436 1036 z "},"Ȍ":{"ha":985,"x_min":68,"x_max":915,"o":"m 492 -15 q 270 40 367 -15 q 121 187 174 94 q 68 389 68 279 q 121 592 68 499 q 270 741 174 686 q 492 796 367 796 q 713 741 617 796 q 863 592 810 686 q 915 389 915 499 q 863 187 915 279 q 713 40 810 94 q 492 -15 617 -15 m 492 68 q 653 111 585 68 q 758 227 721 154 q 794 389 794 300 q 758 553 794 479 q 653 670 721 626 q 492 714 585 714 q 331 670 399 714 q 226 552 263 626 q 190 388 190 478 q 226 225 190 297 q 331 110 263 153 q 492 68 399 68 m 217 1110 l 333 1110 l 413 899 l 347 899 l 217 1110 m 406 1110 l 522 1110 l 600 899 l 535 899 l 406 1110 z "},"Ö":{"ha":985,"x_min":68,"x_max":915,"o":"m 492 -15 q 270 40 367 -15 q 121 187 174 94 q 68 389 68 279 q 121 592 68 499 q 270 741 174 686 q 492 796 367 796 q 713 741 617 796 q 863 592 810 686 q 915 389 915 499 q 863 187 915 279 q 713 40 810 94 q 492 -15 617 -15 m 492 68 q 653 111 585 68 q 758 227 721 154 q 794 389 794 300 q 758 553 794 479 q 653 670 721 626 q 492 714 585 714 q 331 670 399 714 q 226 552 263 626 q 190 388 190 478 q 226 225 190 297 q 331 110 263 153 q 492 68 399 68 m 357 871 q 312 888 329 871 q 294 931 294 904 q 312 974 294 957 q 357 990 329 990 q 402 974 385 990 q 419 931 419 957 q 402 888 419 904 q 357 871 385 871 m 624 871 q 579 887 596 871 q 563 931 563 903 q 579 974 563 958 q 624 990 596 990 q 669 974 651 990 q 686 931 686 957 q 669 888 686 904 q 624 871 651 871 z "},"Ȫ":{"ha":985,"x_min":68,"x_max":915,"o":"m 492 -15 q 270 40 367 -15 q 121 187 174 94 q 68 389 68 279 q 121 592 68 499 q 270 741 174 686 q 492 796 367 796 q 713 741 617 796 q 863 592 810 686 q 915 389 915 499 q 863 187 915 279 q 713 40 810 94 q 492 -15 617 -15 m 492 68 q 653 111 585 68 q 758 227 721 154 q 794 389 794 300 q 758 553 794 479 q 653 670 721 626 q 492 714 585 714 q 331 670 399 714 q 226 552 263 626 q 190 388 190 478 q 226 225 190 297 q 331 110 263 153 q 492 68 399 68 m 357 871 q 312 888 329 871 q 294 931 294 904 q 312 974 294 957 q 357 990 329 990 q 402 974 385 990 q 419 931 419 957 q 402 888 419 904 q 357 871 385 871 m 624 871 q 579 887 596 871 q 563 931 563 903 q 579 974 563 958 q 624 990 596 990 q 669 974 651 990 q 686 931 686 957 q 669 888 686 904 q 624 871 651 871 m 344 1164 l 636 1164 l 636 1101 l 344 1101 l 344 1164 z "},"Ȯ":{"ha":985,"x_min":68,"x_max":915,"o":"m 492 -15 q 270 40 367 -15 q 121 187 174 94 q 68 389 68 279 q 121 592 68 499 q 270 741 174 686 q 492 796 367 796 q 713 741 617 796 q 863 592 810 686 q 915 389 915 499 q 863 187 915 279 q 713 40 810 94 q 492 -15 617 -15 m 492 68 q 653 111 585 68 q 758 227 721 154 q 794 389 794 300 q 758 553 794 479 q 653 670 721 626 q 492 714 585 714 q 331 670 399 714 q 226 552 263 626 q 190 388 190 478 q 226 225 190 297 q 331 110 263 153 q 492 68 399 68 m 490 875 q 443 894 463 875 q 424 938 424 913 q 442 982 424 964 q 490 1000 461 1000 q 538 983 519 1000 q 556 938 556 967 q 539 894 557 913 q 490 875 521 875 z "},"Ȱ":{"ha":985,"x_min":68,"x_max":915,"o":"m 492 -15 q 270 40 367 -15 q 121 187 174 94 q 68 389 68 279 q 121 592 68 499 q 270 741 174 686 q 492 796 367 796 q 713 741 617 796 q 863 592 810 686 q 915 389 915 499 q 863 187 915 279 q 713 40 810 94 q 492 -15 617 -15 m 492 68 q 653 111 585 68 q 758 227 721 154 q 794 389 794 300 q 758 553 794 479 q 653 670 721 626 q 492 714 585 714 q 331 670 399 714 q 226 552 263 626 q 190 388 190 478 q 226 225 190 297 q 331 110 263 153 q 492 68 399 68 m 490 875 q 443 894 463 875 q 424 938 424 913 q 442 982 424 964 q 490 1000 461 1000 q 538 983 519 1000 q 556 938 556 967 q 539 894 557 913 q 490 875 521 875 m 344 1160 l 636 1160 l 636 1097 l 344 1097 l 344 1160 z "},"Ọ":{"ha":985,"x_min":68,"x_max":915,"o":"m 492 -15 q 270 40 367 -15 q 121 187 174 94 q 68 389 68 279 q 121 592 68 499 q 270 741 174 686 q 492 796 367 796 q 713 741 617 796 q 863 592 810 686 q 915 389 915 499 q 863 187 915 279 q 713 40 810 94 q 492 -15 617 -15 m 492 68 q 653 111 585 68 q 758 227 721 154 q 794 389 794 300 q 758 553 794 479 q 653 670 721 626 q 492 714 585 714 q 331 670 399 714 q 226 552 263 626 q 190 388 190 478 q 226 225 190 297 q 331 110 263 153 q 492 68 399 68 m 493 -194 q 446 -176 465 -194 q 426 -132 426 -157 q 445 -87 426 -106 q 493 -69 464 -69 q 540 -86 522 -69 q 558 -132 558 -103 q 542 -176 560 -157 q 493 -194 524 -194 z "},"Ò":{"ha":985,"x_min":68,"x_max":915,"o":"m 492 -15 q 270 40 367 -15 q 121 187 174 94 q 68 389 68 279 q 121 592 68 499 q 270 741 174 686 q 492 796 367 796 q 713 741 617 796 q 863 592 810 686 q 915 389 915 499 q 863 187 915 279 q 713 40 810 94 q 492 -15 617 -15 m 492 68 q 653 111 585 68 q 758 227 721 154 q 794 389 794 300 q 758 553 794 479 q 653 670 721 626 q 492 714 585 714 q 331 670 399 714 q 226 552 263 626 q 190 388 190 478 q 226 225 190 297 q 331 110 263 153 q 492 68 399 68 m 332 1100 l 449 1100 l 522 899 l 457 899 l 332 1100 z "},"Ỏ":{"ha":985,"x_min":68,"x_max":915,"o":"m 492 -15 q 270 40 367 -15 q 121 187 174 94 q 68 389 68 279 q 121 592 68 499 q 270 741 174 686 q 492 796 367 796 q 713 741 617 796 q 863 592 810 686 q 915 389 915 499 q 863 187 915 279 q 713 40 810 94 q 492 -15 617 -15 m 492 68 q 653 111 585 68 q 758 227 721 154 q 794 389 794 300 q 758 553 794 479 q 653 670 721 626 q 492 714 585 714 q 331 670 399 714 q 226 552 263 626 q 190 388 190 478 q 226 225 190 297 q 331 110 263 153 q 492 68 399 68 m 471 903 q 518 953 518 918 q 505 981 518 971 q 471 990 492 990 q 411 972 443 990 l 390 1031 q 478 1054 432 1054 q 560 1026 528 1054 q 592 956 592 999 q 490 842 592 869 l 471 903 z "},"Ơ":{"ha":985,"x_min":68,"x_max":915,"o":"m 726 733 q 865 587 815 678 q 915 389 915 496 q 863 187 915 279 q 713 40 810 94 q 492 -15 617 -15 q 270 40 367 -15 q 121 187 174 94 q 68 389 68 279 q 121 593 68 500 q 270 742 174 686 q 492 797 367 797 q 568 792 524 797 q 595 789 579 790 q 632 788 611 788 q 700 810 674 788 q 731 878 726 832 l 843 878 q 806 786 836 824 q 726 733 775 749 m 492 68 q 653 111 585 68 q 758 227 721 154 q 794 389 794 300 q 758 553 794 479 q 653 672 721 628 q 492 715 585 715 q 331 672 399 715 q 226 553 263 628 q 190 388 190 479 q 226 225 190 297 q 331 110 263 153 q 492 68 399 68 z "},"Ớ":{"ha":985,"x_min":68,"x_max":915,"o":"m 726 733 q 865 587 815 678 q 915 389 915 496 q 863 187 915 279 q 713 40 810 94 q 492 -15 617 -15 q 270 40 367 -15 q 121 187 174 94 q 68 389 68 279 q 121 593 68 500 q 270 742 174 686 q 492 797 367 797 q 568 792 524 797 q 595 789 579 790 q 632 788 611 788 q 700 810 674 788 q 731 878 726 832 l 843 878 q 806 786 836 824 q 726 733 775 749 m 492 68 q 653 111 585 68 q 758 227 721 154 q 794 389 794 300 q 758 553 794 479 q 653 672 721 628 q 492 715 585 715 q 331 672 399 715 q 226 553 263 628 q 190 388 190 479 q 226 225 190 297 q 331 110 263 153 q 492 68 399 68 m 532 1100 l 649 1100 l 524 899 l 458 899 l 532 1100 z "},"Ợ":{"ha":985,"x_min":68,"x_max":915,"o":"m 726 733 q 865 587 815 678 q 915 389 915 496 q 863 187 915 279 q 713 40 810 94 q 492 -15 617 -15 q 270 40 367 -15 q 121 187 174 94 q 68 389 68 279 q 121 593 68 500 q 270 742 174 686 q 492 797 367 797 q 568 792 524 797 q 595 789 579 790 q 632 788 611 788 q 700 810 674 788 q 731 878 726 832 l 843 878 q 806 786 836 824 q 726 733 775 749 m 492 68 q 653 111 585 68 q 758 227 721 154 q 794 389 794 300 q 758 553 794 479 q 653 672 721 628 q 492 715 585 715 q 331 672 399 715 q 226 553 263 628 q 190 388 190 479 q 226 225 190 297 q 331 110 263 153 q 492 68 399 68 m 492 -194 q 444 -176 464 -194 q 425 -132 425 -157 q 444 -87 425 -106 q 492 -69 463 -69 q 539 -86 521 -69 q 557 -132 557 -103 q 540 -176 558 -157 q 492 -194 522 -194 z "},"Ờ":{"ha":985,"x_min":68,"x_max":915,"o":"m 726 733 q 865 587 815 678 q 915 389 915 496 q 863 187 915 279 q 713 40 810 94 q 492 -15 617 -15 q 270 40 367 -15 q 121 187 174 94 q 68 389 68 279 q 121 593 68 500 q 270 742 174 686 q 492 797 367 797 q 568 792 524 797 q 595 789 579 790 q 632 788 611 788 q 700 810 674 788 q 731 878 726 832 l 843 878 q 806 786 836 824 q 726 733 775 749 m 492 68 q 653 111 585 68 q 758 227 721 154 q 794 389 794 300 q 758 553 794 479 q 653 672 721 628 q 492 715 585 715 q 331 672 399 715 q 226 553 263 628 q 190 388 190 479 q 226 225 190 297 q 331 110 263 153 q 492 68 399 68 m 332 1100 l 449 1100 l 522 899 l 457 899 l 332 1100 z "},"Ở":{"ha":985,"x_min":68,"x_max":915,"o":"m 726 733 q 865 587 815 678 q 915 389 915 496 q 863 187 915 279 q 713 40 810 94 q 492 -15 617 -15 q 270 40 367 -15 q 121 187 174 94 q 68 389 68 279 q 121 593 68 500 q 270 742 174 686 q 492 797 367 797 q 568 792 524 797 q 595 789 579 790 q 632 788 611 788 q 700 810 674 788 q 731 878 726 832 l 843 878 q 806 786 836 824 q 726 733 775 749 m 492 68 q 653 111 585 68 q 758 227 721 154 q 794 389 794 300 q 758 553 794 479 q 653 672 721 628 q 492 715 585 715 q 331 672 399 715 q 226 553 263 628 q 190 388 190 479 q 226 225 190 297 q 331 110 263 153 q 492 68 399 68 m 471 903 q 518 953 518 918 q 505 981 518 971 q 471 990 492 990 q 411 972 443 990 l 390 1031 q 478 1054 432 1054 q 560 1026 528 1054 q 592 956 592 999 q 490 842 592 869 l 471 903 z "},"Ỡ":{"ha":985,"x_min":68,"x_max":915,"o":"m 726 733 q 865 587 815 678 q 915 389 915 496 q 863 187 915 279 q 713 40 810 94 q 492 -15 617 -15 q 270 40 367 -15 q 121 187 174 94 q 68 389 68 279 q 121 593 68 500 q 270 742 174 686 q 492 797 367 797 q 568 792 524 797 q 595 789 579 790 q 632 788 611 788 q 700 810 674 788 q 731 878 726 832 l 843 878 q 806 786 836 824 q 726 733 775 749 m 492 68 q 653 111 585 68 q 758 227 721 154 q 794 389 794 300 q 758 553 794 479 q 653 672 721 628 q 492 715 585 715 q 331 672 399 715 q 226 553 263 628 q 190 388 190 479 q 226 225 190 297 q 331 110 263 153 q 492 68 399 68 m 578 889 q 537 895 558 889 q 497 908 515 901 q 472 917 478 914 q 393 940 417 940 q 365 930 375 940 q 350 894 354 919 l 307 894 q 339 986 313 956 q 408 1017 365 1017 q 506 989 439 1017 q 583 965 564 965 q 617 976 604 965 q 635 1014 629 988 l 675 1014 q 647 923 671 957 q 578 889 624 889 z "},"Ő":{"ha":985,"x_min":68,"x_max":915,"o":"m 492 -15 q 270 40 367 -15 q 121 187 174 94 q 68 389 68 279 q 121 592 68 499 q 270 741 174 686 q 492 796 367 796 q 713 741 617 796 q 863 592 810 686 q 915 389 915 499 q 863 187 915 279 q 713 40 810 94 q 492 -15 617 -15 m 492 68 q 653 111 585 68 q 758 227 721 154 q 794 389 794 300 q 758 553 794 479 q 653 670 721 626 q 492 714 585 714 q 331 670 399 714 q 226 552 263 626 q 190 388 190 478 q 226 225 190 297 q 331 110 263 153 q 492 68 399 68 m 444 1110 l 561 1110 l 431 899 l 367 899 l 444 1110 m 632 1110 l 749 1110 l 619 899 l 554 899 l 632 1110 z "},"Ȏ":{"ha":985,"x_min":68,"x_max":915,"o":"m 492 -15 q 270 40 367 -15 q 121 187 174 94 q 68 389 68 279 q 121 592 68 499 q 270 741 174 686 q 492 796 367 796 q 713 741 617 796 q 863 592 810 686 q 915 389 915 499 q 863 187 915 279 q 713 40 810 94 q 492 -15 617 -15 m 492 68 q 653 111 585 68 q 758 227 721 154 q 794 389 794 300 q 758 553 794 479 q 653 670 721 626 q 492 714 585 714 q 331 670 399 714 q 226 552 263 626 q 190 388 190 478 q 226 225 190 297 q 331 110 263 153 q 492 68 399 68 m 328 861 q 378 969 335 929 q 490 1010 422 1010 q 601 969 557 1010 q 651 861 644 929 l 569 861 q 542 914 563 896 q 490 932 522 932 q 410 861 422 932 l 328 861 z "},"Ō":{"ha":985,"x_min":68,"x_max":915,"o":"m 492 -15 q 270 40 367 -15 q 121 187 174 94 q 68 389 68 279 q 121 592 68 499 q 270 741 174 686 q 492 796 367 796 q 713 741 617 796 q 863 592 810 686 q 915 389 915 499 q 863 187 915 279 q 713 40 810 94 q 492 -15 617 -15 m 492 68 q 653 111 585 68 q 758 227 721 154 q 794 389 794 300 q 758 553 794 479 q 653 670 721 626 q 492 714 585 714 q 331 670 399 714 q 226 552 263 626 q 190 388 190 478 q 226 225 190 297 q 331 110 263 153 q 492 68 399 68 m 344 956 l 636 956 l 636 893 l 344 893 l 344 956 z "},"Ṓ":{"ha":985,"x_min":68,"x_max":915,"o":"m 492 -15 q 270 40 367 -15 q 121 187 174 94 q 68 389 68 279 q 121 592 68 499 q 270 741 174 686 q 492 796 367 796 q 713 741 617 796 q 863 592 810 686 q 915 389 915 499 q 863 187 915 279 q 713 40 810 94 q 492 -15 617 -15 m 492 68 q 653 111 585 68 q 758 227 721 154 q 794 389 794 300 q 758 553 794 479 q 653 670 721 626 q 492 714 585 714 q 331 670 399 714 q 226 552 263 626 q 190 388 190 478 q 226 225 190 297 q 331 110 263 153 q 492 68 399 68 m 344 956 l 636 956 l 636 893 l 344 893 l 344 956 m 532 1258 l 649 1258 l 524 1057 l 458 1057 l 532 1258 z "},"Ṑ":{"ha":985,"x_min":68,"x_max":915,"o":"m 492 -15 q 270 40 367 -15 q 121 187 174 94 q 68 389 68 279 q 121 592 68 499 q 270 741 174 686 q 492 796 367 796 q 713 741 617 796 q 863 592 810 686 q 915 389 915 499 q 863 187 915 279 q 713 40 810 94 q 492 -15 617 -15 m 492 68 q 653 111 585 68 q 758 227 721 154 q 794 389 794 300 q 758 553 794 479 q 653 670 721 626 q 492 714 585 714 q 331 670 399 714 q 226 552 263 626 q 190 388 190 478 q 226 225 190 297 q 331 110 263 153 q 492 68 399 68 m 344 956 l 636 956 l 636 893 l 344 893 l 344 956 m 332 1258 l 449 1258 l 522 1057 l 457 1057 l 332 1258 z "},"Ǫ":{"ha":985,"x_min":68,"x_max":915,"o":"m 915 389 q 867 194 915 283 q 731 49 819 106 q 526 -14 642 -7 q 476 -111 476 -68 q 494 -156 476 -140 q 542 -171 513 -171 q 603 -153 572 -171 l 603 -208 q 560 -228 579 -222 q 517 -235 540 -235 q 438 -206 469 -235 q 406 -132 406 -178 q 464 -14 406 -75 q 257 48 347 -8 q 117 194 167 104 q 68 389 68 283 q 121 592 68 499 q 270 741 174 686 q 492 796 367 796 q 713 741 617 796 q 863 592 810 686 q 915 389 915 499 m 190 388 q 226 225 190 297 q 331 110 263 153 q 492 68 399 68 q 653 111 585 68 q 758 227 721 154 q 794 389 794 300 q 758 553 794 479 q 653 670 721 626 q 492 714 585 714 q 331 670 399 714 q 226 552 263 626 q 190 388 190 478 z "},"Ø":{"ha":917,"x_min":35,"x_max":882,"o":"m 746 693 q 847 556 811 636 q 882 388 882 476 q 829 185 882 278 q 680 38 776 93 q 458 -17 583 -17 q 233 40 335 -17 l 163 -51 l 110 -14 l 181 76 q 73 214 111 133 q 35 388 35 294 q 88 591 35 497 q 237 740 140 685 q 458 794 333 794 q 694 731 590 794 l 769 826 l 822 790 l 746 693 m 157 386 q 178 256 157 317 q 242 154 200 196 l 636 657 q 458 713 561 713 q 297 669 365 713 q 193 551 229 625 q 157 386 157 476 m 458 67 q 619 110 551 67 q 724 226 688 153 q 761 388 761 299 q 741 511 761 453 q 683 614 721 569 l 292 113 q 458 67 361 67 z "},"Ǿ":{"ha":917,"x_min":35,"x_max":882,"o":"m 746 693 q 847 556 811 636 q 882 388 882 476 q 829 185 882 278 q 680 38 776 93 q 458 -17 583 -17 q 233 40 335 -17 l 163 -51 l 110 -14 l 181 76 q 73 214 111 133 q 35 388 35 294 q 88 591 35 497 q 237 740 140 685 q 458 794 333 794 q 694 731 590 794 l 769 826 l 822 790 l 746 693 m 157 386 q 178 256 157 317 q 242 154 200 196 l 636 657 q 458 713 561 713 q 297 669 365 713 q 193 551 229 625 q 157 386 157 476 m 458 67 q 619 110 551 67 q 724 226 688 153 q 761 388 761 299 q 741 511 761 453 q 683 614 721 569 l 292 113 q 458 67 361 67 m 500 1100 l 617 1100 l 492 899 l 426 899 l 500 1100 z "},"Õ":{"ha":985,"x_min":68,"x_max":915,"o":"m 492 -15 q 270 40 367 -15 q 121 187 174 94 q 68 389 68 279 q 121 592 68 499 q 270 741 174 686 q 492 796 367 796 q 713 741 617 796 q 863 592 810 686 q 915 389 915 499 q 863 187 915 279 q 713 40 810 94 q 492 -15 617 -15 m 492 68 q 653 111 585 68 q 758 227 721 154 q 794 389 794 300 q 758 553 794 479 q 653 670 721 626 q 492 714 585 714 q 331 670 399 714 q 226 552 263 626 q 190 388 190 478 q 226 225 190 297 q 331 110 263 153 q 492 68 399 68 m 578 889 q 537 895 558 889 q 497 908 515 901 q 472 917 478 914 q 393 940 417 940 q 365 930 375 940 q 350 894 354 919 l 307 894 q 339 986 313 956 q 408 1017 365 1017 q 506 989 439 1017 q 583 965 564 965 q 617 976 604 965 q 635 1014 629 988 l 675 1014 q 647 923 671 957 q 578 889 624 889 z "},"Ṍ":{"ha":985,"x_min":68,"x_max":915,"o":"m 492 -15 q 270 40 367 -15 q 121 187 174 94 q 68 389 68 279 q 121 592 68 499 q 270 741 174 686 q 492 796 367 796 q 713 741 617 796 q 863 592 810 686 q 915 389 915 499 q 863 187 915 279 q 713 40 810 94 q 492 -15 617 -15 m 492 68 q 653 111 585 68 q 758 227 721 154 q 794 389 794 300 q 758 553 794 479 q 653 670 721 626 q 492 714 585 714 q 331 670 399 714 q 226 552 263 626 q 190 388 190 478 q 226 225 190 297 q 331 110 263 153 q 492 68 399 68 m 578 889 q 537 895 558 889 q 497 908 515 901 q 472 917 478 914 q 393 940 417 940 q 365 930 375 940 q 350 894 354 919 l 307 894 q 339 986 313 956 q 408 1017 365 1017 q 506 989 439 1017 q 583 965 564 965 q 617 976 604 965 q 635 1014 629 988 l 675 1014 q 647 923 671 957 q 578 889 624 889 m 533 1307 l 650 1307 l 525 1106 l 460 1106 l 533 1307 z "},"Ṏ":{"ha":985,"x_min":68,"x_max":915,"o":"m 492 -15 q 270 40 367 -15 q 121 187 174 94 q 68 389 68 279 q 121 592 68 499 q 270 741 174 686 q 492 796 367 796 q 713 741 617 796 q 863 592 810 686 q 915 389 915 499 q 863 187 915 279 q 713 40 810 94 q 492 -15 617 -15 m 492 68 q 653 111 585 68 q 758 227 721 154 q 794 389 794 300 q 758 553 794 479 q 653 670 721 626 q 492 714 585 714 q 331 670 399 714 q 226 552 263 626 q 190 388 190 478 q 226 225 190 297 q 331 110 263 153 q 492 68 399 68 m 578 889 q 537 895 558 889 q 497 908 515 901 q 472 917 478 914 q 393 940 417 940 q 365 930 375 940 q 350 894 354 919 l 307 894 q 339 986 313 956 q 408 1017 365 1017 q 506 989 439 1017 q 583 965 564 965 q 617 976 604 965 q 635 1014 629 988 l 675 1014 q 647 923 671 957 q 578 889 624 889 m 358 1078 q 313 1094 331 1078 q 296 1138 296 1111 q 313 1181 296 1164 q 358 1197 331 1197 q 403 1181 386 1197 q 421 1138 421 1164 q 403 1094 421 1111 q 358 1078 386 1078 m 625 1078 q 581 1094 597 1078 q 564 1138 564 1110 q 581 1181 564 1165 q 625 1197 597 1197 q 670 1181 653 1197 q 688 1138 688 1164 q 670 1094 688 1111 q 625 1078 653 1078 z "},"Ȭ":{"ha":985,"x_min":68,"x_max":915,"o":"m 492 -15 q 270 40 367 -15 q 121 187 174 94 q 68 389 68 279 q 121 592 68 499 q 270 741 174 686 q 492 796 367 796 q 713 741 617 796 q 863 592 810 686 q 915 389 915 499 q 863 187 915 279 q 713 40 810 94 q 492 -15 617 -15 m 492 68 q 653 111 585 68 q 758 227 721 154 q 794 389 794 300 q 758 553 794 479 q 653 670 721 626 q 492 714 585 714 q 331 670 399 714 q 226 552 263 626 q 190 388 190 478 q 226 225 190 297 q 331 110 263 153 q 492 68 399 68 m 578 889 q 537 895 558 889 q 497 908 515 901 q 472 917 478 914 q 393 940 417 940 q 365 930 375 940 q 350 894 354 919 l 307 894 q 339 986 313 956 q 408 1017 365 1017 q 506 989 439 1017 q 583 965 564 965 q 617 976 604 965 q 635 1014 629 988 l 675 1014 q 647 923 671 957 q 578 889 624 889 m 346 1163 l 638 1163 l 638 1100 l 346 1100 l 346 1163 z "},"Œ":{"ha":1322,"x_min":68,"x_max":1256,"o":"m 504 0 q 272 47 371 0 q 121 183 174 94 q 68 393 68 272 q 121 600 68 513 q 272 735 174 688 q 503 782 369 782 l 1249 782 l 1249 547 l 1161 547 l 1161 708 l 792 708 l 792 435 l 1038 435 l 1038 525 l 1094 525 l 1094 268 l 1038 268 l 1038 360 l 792 360 l 792 72 l 1168 72 l 1168 242 l 1256 242 l 1256 0 l 504 0 m 679 72 l 679 708 l 511 708 q 276 624 363 708 q 189 392 189 539 q 276 158 189 244 q 513 72 363 72 l 679 72 z "},"P":{"ha":782,"x_min":54,"x_max":733,"o":"m 54 74 l 163 74 l 163 708 l 54 708 l 54 782 l 440 782 q 658 725 583 782 q 733 560 733 668 q 656 384 733 444 q 433 324 579 324 l 329 324 l 329 397 l 429 397 q 568 439 519 397 q 617 558 617 481 q 574 669 617 631 q 453 708 532 708 l 276 708 l 276 74 l 385 74 l 385 0 l 54 0 l 54 74 z "},"Ṗ":{"ha":782,"x_min":54,"x_max":733,"o":"m 54 74 l 163 74 l 163 708 l 54 708 l 54 782 l 440 782 q 658 725 583 782 q 733 560 733 668 q 656 384 733 444 q 433 324 579 324 l 329 324 l 329 397 l 429 397 q 568 439 519 397 q 617 558 617 481 q 574 669 617 631 q 453 708 532 708 l 276 708 l 276 74 l 385 74 l 385 0 l 54 0 l 54 74 m 404 875 q 357 894 376 875 q 338 938 338 913 q 356 982 338 964 q 404 1000 375 1000 q 451 983 433 1000 q 469 938 469 967 q 453 894 471 913 q 404 875 435 875 z "},"Þ":{"ha":771,"x_min":69,"x_max":722,"o":"m 460 619 q 653 568 585 619 q 722 425 722 517 q 655 274 722 326 q 463 222 588 222 l 333 222 l 333 289 l 463 289 q 574 324 535 289 q 614 425 614 358 q 573 515 614 482 q 460 547 532 547 l 292 547 l 292 74 l 401 74 l 401 0 l 69 0 l 69 74 l 178 74 l 178 708 l 69 708 l 69 782 l 401 782 l 401 708 l 292 708 l 292 619 l 460 619 z "},"Q":{"ha":981,"x_min":68,"x_max":915,"o":"m 729 -186 q 454 -12 569 -186 q 251 51 339 -6 q 115 196 163 107 q 68 389 68 285 q 121 592 68 499 q 270 741 174 686 q 492 796 367 796 q 713 741 617 796 q 863 592 810 686 q 915 389 915 499 q 871 201 915 288 q 744 58 826 115 q 553 -11 663 1 q 634 -86 594 -61 q 729 -111 674 -111 q 808 -100 761 -111 l 810 -174 q 729 -186 768 -186 m 492 68 q 653 111 585 68 q 758 227 721 154 q 794 389 794 300 q 758 553 794 479 q 653 670 721 626 q 492 714 585 714 q 331 670 399 714 q 226 552 263 626 q 190 388 190 478 q 226 225 190 297 q 331 110 263 153 q 492 68 399 68 z "},"R":{"ha":860,"x_min":54,"x_max":824,"o":"m 54 74 l 163 74 l 163 708 l 54 708 l 54 782 l 465 782 q 660 730 590 782 q 731 578 731 678 q 529 369 731 400 l 708 74 l 824 74 l 824 0 l 631 0 l 421 358 l 325 358 l 325 435 l 447 435 q 579 476 540 435 q 618 576 618 517 q 580 672 618 635 q 467 708 542 708 l 276 708 l 276 74 l 385 74 l 385 0 l 54 0 l 54 74 z "},"Ŕ":{"ha":860,"x_min":54,"x_max":824,"o":"m 54 74 l 163 74 l 163 708 l 54 708 l 54 782 l 465 782 q 660 730 590 782 q 731 578 731 678 q 529 369 731 400 l 708 74 l 824 74 l 824 0 l 631 0 l 421 358 l 325 358 l 325 435 l 447 435 q 579 476 540 435 q 618 576 618 517 q 580 672 618 635 q 467 708 542 708 l 276 708 l 276 74 l 385 74 l 385 0 l 54 0 l 54 74 m 447 1100 l 564 1100 l 439 899 l 374 899 l 447 1100 z "},"Ř":{"ha":860,"x_min":54,"x_max":824,"o":"m 54 74 l 163 74 l 163 708 l 54 708 l 54 782 l 465 782 q 660 730 590 782 q 731 578 731 678 q 529 369 731 400 l 708 74 l 824 74 l 824 0 l 631 0 l 421 358 l 325 358 l 325 435 l 447 435 q 579 476 540 435 q 618 576 618 517 q 580 672 618 635 q 467 708 542 708 l 276 708 l 276 74 l 385 74 l 385 0 l 54 0 l 54 74 m 244 1068 l 318 1068 l 407 917 l 493 1068 l 565 1068 l 456 858 l 357 858 l 244 1068 z "},"Ŗ":{"ha":860,"x_min":54,"x_max":824,"o":"m 54 74 l 163 74 l 163 708 l 54 708 l 54 782 l 465 782 q 660 730 590 782 q 731 578 731 678 q 529 369 731 400 l 708 74 l 824 74 l 824 0 l 631 0 l 421 358 l 325 358 l 325 435 l 447 435 q 579 476 540 435 q 618 576 618 517 q 580 672 618 635 q 467 708 542 708 l 276 708 l 276 74 l 385 74 l 385 0 l 54 0 l 54 74 m 383 -283 q 442 -253 424 -276 q 461 -190 461 -231 l 386 -190 l 386 -69 l 518 -69 l 518 -193 q 485 -292 518 -257 q 383 -328 451 -328 l 383 -283 z "},"Ȑ":{"ha":860,"x_min":54,"x_max":824,"o":"m 54 74 l 163 74 l 163 708 l 54 708 l 54 782 l 465 782 q 660 730 590 782 q 731 578 731 678 q 529 369 731 400 l 708 74 l 824 74 l 824 0 l 631 0 l 421 358 l 325 358 l 325 435 l 447 435 q 579 476 540 435 q 618 576 618 517 q 580 672 618 635 q 467 708 542 708 l 276 708 l 276 74 l 385 74 l 385 0 l 54 0 l 54 74 m 132 1110 l 249 1110 l 328 899 l 263 899 l 132 1110 m 321 1110 l 438 1110 l 515 899 l 450 899 l 321 1110 z "},"Ṛ":{"ha":860,"x_min":54,"x_max":824,"o":"m 54 74 l 163 74 l 163 708 l 54 708 l 54 782 l 465 782 q 660 730 590 782 q 731 578 731 678 q 529 369 731 400 l 708 74 l 824 74 l 824 0 l 631 0 l 421 358 l 325 358 l 325 435 l 447 435 q 579 476 540 435 q 618 576 618 517 q 580 672 618 635 q 467 708 542 708 l 276 708 l 276 74 l 385 74 l 385 0 l 54 0 l 54 74 m 450 -194 q 403 -176 422 -194 q 383 -132 383 -157 q 402 -87 383 -106 q 450 -69 421 -69 q 497 -86 479 -69 q 515 -132 515 -103 q 499 -176 517 -157 q 450 -194 481 -194 z "},"Ȓ":{"ha":860,"x_min":54,"x_max":824,"o":"m 54 74 l 163 74 l 163 708 l 54 708 l 54 782 l 465 782 q 660 730 590 782 q 731 578 731 678 q 529 369 731 400 l 708 74 l 824 74 l 824 0 l 631 0 l 421 358 l 325 358 l 325 435 l 447 435 q 579 476 540 435 q 618 576 618 517 q 580 672 618 635 q 467 708 542 708 l 276 708 l 276 74 l 385 74 l 385 0 l 54 0 l 54 74 m 243 861 q 294 969 250 929 q 406 1010 338 1010 q 516 969 472 1010 q 567 861 560 929 l 485 861 q 458 914 478 896 q 406 932 438 932 q 325 861 338 932 l 243 861 z "},"Ṟ":{"ha":860,"x_min":54,"x_max":824,"o":"m 54 74 l 163 74 l 163 708 l 54 708 l 54 782 l 465 782 q 660 730 590 782 q 731 578 731 678 q 529 369 731 400 l 708 74 l 824 74 l 824 0 l 631 0 l 421 358 l 325 358 l 325 435 l 447 435 q 579 476 540 435 q 618 576 618 517 q 580 672 618 635 q 467 708 542 708 l 276 708 l 276 74 l 385 74 l 385 0 l 54 0 l 54 74 m 304 -51 l 596 -51 l 596 -114 l 304 -114 l 304 -51 z "},"S":{"ha":725,"x_min":94,"x_max":667,"o":"m 396 450 q 603 374 540 425 q 667 215 667 324 q 638 101 667 153 q 551 17 608 49 q 417 -14 494 -14 q 285 15 344 -14 q 189 96 226 44 l 189 0 l 99 0 l 99 264 l 182 264 q 252 122 190 176 q 413 67 314 67 q 525 101 485 67 q 565 199 565 136 q 547 277 565 249 q 490 322 529 306 q 376 350 450 338 l 343 356 q 160 431 225 375 q 94 583 94 488 q 161 741 94 685 q 340 797 228 797 q 456 776 404 797 q 540 714 508 754 l 540 782 l 629 782 l 629 561 l 547 561 q 346 717 521 717 q 235 683 275 717 q 196 594 196 650 q 238 503 196 536 q 364 456 279 471 l 396 450 z "},"Ś":{"ha":725,"x_min":94,"x_max":667,"o":"m 396 450 q 603 374 540 425 q 667 215 667 324 q 638 101 667 153 q 551 17 608 49 q 417 -14 494 -14 q 285 15 344 -14 q 189 96 226 44 l 189 0 l 99 0 l 99 264 l 182 264 q 252 122 190 176 q 413 67 314 67 q 525 101 485 67 q 565 199 565 136 q 547 277 565 249 q 490 322 529 306 q 376 350 450 338 l 343 356 q 160 431 225 375 q 94 583 94 488 q 161 741 94 685 q 340 797 228 797 q 456 776 404 797 q 540 714 508 754 l 540 782 l 629 782 l 629 561 l 547 561 q 346 717 521 717 q 235 683 275 717 q 196 594 196 650 q 238 503 196 536 q 364 456 279 471 l 396 450 m 421 1100 l 538 1100 l 413 899 l 347 899 l 421 1100 z "},"Ṥ":{"ha":725,"x_min":94,"x_max":667,"o":"m 396 450 q 603 374 540 425 q 667 215 667 324 q 638 101 667 153 q 551 17 608 49 q 417 -14 494 -14 q 285 15 344 -14 q 189 96 226 44 l 189 0 l 99 0 l 99 264 l 182 264 q 252 122 190 176 q 413 67 314 67 q 525 101 485 67 q 565 199 565 136 q 547 277 565 249 q 490 322 529 306 q 376 350 450 338 l 343 356 q 160 431 225 375 q 94 583 94 488 q 161 741 94 685 q 340 797 228 797 q 456 776 404 797 q 540 714 508 754 l 540 782 l 629 782 l 629 561 l 547 561 q 346 717 521 717 q 235 683 275 717 q 196 594 196 650 q 238 503 196 536 q 364 456 279 471 l 396 450 m 421 1100 l 538 1100 l 413 899 l 347 899 l 421 1100 m 379 1199 q 332 1217 351 1199 q 313 1261 313 1236 q 331 1306 313 1288 q 379 1324 350 1324 q 426 1307 408 1324 q 444 1261 444 1290 q 428 1217 446 1236 q 379 1199 410 1199 z "},"Š":{"ha":725,"x_min":94,"x_max":667,"o":"m 396 450 q 603 374 540 425 q 667 215 667 324 q 638 101 667 153 q 551 17 608 49 q 417 -14 494 -14 q 285 15 344 -14 q 189 96 226 44 l 189 0 l 99 0 l 99 264 l 182 264 q 252 122 190 176 q 413 67 314 67 q 525 101 485 67 q 565 199 565 136 q 547 277 565 249 q 490 322 529 306 q 376 350 450 338 l 343 356 q 160 431 225 375 q 94 583 94 488 q 161 741 94 685 q 340 797 228 797 q 456 776 404 797 q 540 714 508 754 l 540 782 l 629 782 l 629 561 l 547 561 q 346 717 521 717 q 235 683 275 717 q 196 594 196 650 q 238 503 196 536 q 364 456 279 471 l 396 450 m 218 1068 l 292 1068 l 381 917 l 467 1068 l 539 1068 l 429 858 l 331 858 l 218 1068 z "},"Ṧ":{"ha":725,"x_min":94,"x_max":667,"o":"m 396 450 q 603 374 540 425 q 667 215 667 324 q 638 101 667 153 q 551 17 608 49 q 417 -14 494 -14 q 285 15 344 -14 q 189 96 226 44 l 189 0 l 99 0 l 99 264 l 182 264 q 252 122 190 176 q 413 67 314 67 q 525 101 485 67 q 565 199 565 136 q 547 277 565 249 q 490 322 529 306 q 376 350 450 338 l 343 356 q 160 431 225 375 q 94 583 94 488 q 161 741 94 685 q 340 797 228 797 q 456 776 404 797 q 540 714 508 754 l 540 782 l 629 782 l 629 561 l 547 561 q 346 717 521 717 q 235 683 275 717 q 196 594 196 650 q 238 503 196 536 q 364 456 279 471 l 396 450 m 218 1068 l 292 1068 l 381 917 l 467 1068 l 539 1068 l 429 858 l 331 858 l 218 1068 m 379 1161 q 332 1180 351 1161 q 313 1224 313 1199 q 331 1268 313 1250 q 379 1286 350 1286 q 426 1269 408 1286 q 444 1224 444 1253 q 428 1180 446 1199 q 379 1161 410 1161 z "},"Ş":{"ha":725,"x_min":94,"x_max":667,"o":"m 667 215 q 639 103 667 154 q 557 20 611 51 q 429 -14 503 -11 l 411 -81 q 486 -109 461 -86 q 511 -164 511 -132 q 484 -224 511 -204 q 413 -243 457 -243 q 292 -217 353 -243 l 292 -176 q 371 -190 340 -190 q 424 -154 424 -190 q 344 -111 424 -115 l 383 -12 q 272 22 322 -7 q 189 96 222 50 l 189 0 l 99 0 l 99 264 l 182 264 q 252 122 190 176 q 413 67 314 67 q 525 101 485 67 q 565 199 565 136 q 547 277 565 249 q 490 322 529 306 q 376 350 450 338 l 343 356 q 160 431 225 375 q 94 583 94 488 q 161 741 94 685 q 340 797 228 797 q 456 776 404 797 q 540 714 508 754 l 540 782 l 629 782 l 629 561 l 547 561 q 346 717 521 717 q 235 683 275 717 q 196 594 196 650 q 238 503 196 536 q 364 456 279 471 l 396 450 q 603 374 540 425 q 667 215 667 324 z "},"Ŝ":{"ha":725,"x_min":94,"x_max":667,"o":"m 396 450 q 603 374 540 425 q 667 215 667 324 q 638 101 667 153 q 551 17 608 49 q 417 -14 494 -14 q 285 15 344 -14 q 189 96 226 44 l 189 0 l 99 0 l 99 264 l 182 264 q 252 122 190 176 q 413 67 314 67 q 525 101 485 67 q 565 199 565 136 q 547 277 565 249 q 490 322 529 306 q 376 350 450 338 l 343 356 q 160 431 225 375 q 94 583 94 488 q 161 741 94 685 q 340 797 228 797 q 456 776 404 797 q 540 714 508 754 l 540 782 l 629 782 l 629 561 l 547 561 q 346 717 521 717 q 235 683 275 717 q 196 594 196 650 q 238 503 196 536 q 364 456 279 471 l 396 450 m 325 1078 l 433 1078 l 549 860 l 471 860 l 379 1033 l 288 860 l 210 860 l 325 1078 z "},"Ș":{"ha":725,"x_min":94,"x_max":667,"o":"m 396 450 q 603 374 540 425 q 667 215 667 324 q 638 101 667 153 q 551 17 608 49 q 417 -14 494 -14 q 285 15 344 -14 q 189 96 226 44 l 189 0 l 99 0 l 99 264 l 182 264 q 252 122 190 176 q 413 67 314 67 q 525 101 485 67 q 565 199 565 136 q 547 277 565 249 q 490 322 529 306 q 376 350 450 338 l 343 356 q 160 431 225 375 q 94 583 94 488 q 161 741 94 685 q 340 797 228 797 q 456 776 404 797 q 540 714 508 754 l 540 782 l 629 782 l 629 561 l 547 561 q 346 717 521 717 q 235 683 275 717 q 196 594 196 650 q 238 503 196 536 q 364 456 279 471 l 396 450 m 343 -283 q 402 -253 383 -276 q 421 -190 421 -231 l 346 -190 l 346 -69 l 478 -69 l 478 -193 q 444 -292 478 -257 q 343 -328 411 -328 l 343 -283 z "},"Ṡ":{"ha":725,"x_min":94,"x_max":667,"o":"m 396 450 q 603 374 540 425 q 667 215 667 324 q 638 101 667 153 q 551 17 608 49 q 417 -14 494 -14 q 285 15 344 -14 q 189 96 226 44 l 189 0 l 99 0 l 99 264 l 182 264 q 252 122 190 176 q 413 67 314 67 q 525 101 485 67 q 565 199 565 136 q 547 277 565 249 q 490 322 529 306 q 376 350 450 338 l 343 356 q 160 431 225 375 q 94 583 94 488 q 161 741 94 685 q 340 797 228 797 q 456 776 404 797 q 540 714 508 754 l 540 782 l 629 782 l 629 561 l 547 561 q 346 717 521 717 q 235 683 275 717 q 196 594 196 650 q 238 503 196 536 q 364 456 279 471 l 396 450 m 379 875 q 332 894 351 875 q 313 938 313 913 q 331 982 313 964 q 379 1000 350 1000 q 426 983 408 1000 q 444 938 444 967 q 428 894 446 913 q 379 875 410 875 z "},"Ṣ":{"ha":725,"x_min":94,"x_max":667,"o":"m 396 450 q 603 374 540 425 q 667 215 667 324 q 638 101 667 153 q 551 17 608 49 q 417 -14 494 -14 q 285 15 344 -14 q 189 96 226 44 l 189 0 l 99 0 l 99 264 l 182 264 q 252 122 190 176 q 413 67 314 67 q 525 101 485 67 q 565 199 565 136 q 547 277 565 249 q 490 322 529 306 q 376 350 450 338 l 343 356 q 160 431 225 375 q 94 583 94 488 q 161 741 94 685 q 340 797 228 797 q 456 776 404 797 q 540 714 508 754 l 540 782 l 629 782 l 629 561 l 547 561 q 346 717 521 717 q 235 683 275 717 q 196 594 196 650 q 238 503 196 536 q 364 456 279 471 l 396 450 m 410 -194 q 363 -176 382 -194 q 343 -132 343 -157 q 362 -87 343 -106 q 410 -69 381 -69 q 457 -86 439 -69 q 475 -132 475 -103 q 458 -176 476 -157 q 410 -194 440 -194 z "},"Ṩ":{"ha":725,"x_min":94,"x_max":667,"o":"m 396 450 q 603 374 540 425 q 667 215 667 324 q 638 101 667 153 q 551 17 608 49 q 417 -14 494 -14 q 285 15 344 -14 q 189 96 226 44 l 189 0 l 99 0 l 99 264 l 182 264 q 252 122 190 176 q 413 67 314 67 q 525 101 485 67 q 565 199 565 136 q 547 277 565 249 q 490 322 529 306 q 376 350 450 338 l 343 356 q 160 431 225 375 q 94 583 94 488 q 161 741 94 685 q 340 797 228 797 q 456 776 404 797 q 540 714 508 754 l 540 782 l 629 782 l 629 561 l 547 561 q 346 717 521 717 q 235 683 275 717 q 196 594 196 650 q 238 503 196 536 q 364 456 279 471 l 396 450 m 410 -194 q 363 -176 382 -194 q 343 -132 343 -157 q 362 -87 343 -106 q 410 -69 381 -69 q 457 -86 439 -69 q 475 -132 475 -103 q 458 -176 476 -157 q 410 -194 440 -194 m 379 875 q 332 894 351 875 q 313 938 313 913 q 331 982 313 964 q 379 1000 350 1000 q 426 983 408 1000 q 444 938 444 967 q 428 894 446 913 q 379 875 410 875 z "},"ẞ":{"ha":833,"x_min":50,"x_max":778,"o":"m 453 69 q 656 219 656 69 q 439 371 656 371 l 439 449 l 610 685 q 440 713 538 713 q 288 664 342 713 q 233 518 233 615 l 233 74 l 311 74 l 311 0 l 50 0 l 50 74 l 119 74 l 119 515 q 202 722 119 649 q 439 796 285 796 q 576 780 517 796 q 693 736 636 764 l 693 658 l 539 446 q 717 376 656 433 q 778 224 778 319 q 694 47 778 107 q 453 -14 611 -14 l 453 69 z "},"Ə":{"ha":940,"x_min":61,"x_max":871,"o":"m 458 796 q 669 745 575 796 q 817 603 763 694 q 871 393 871 511 q 816 178 871 271 q 667 35 761 85 q 457 -15 572 -15 q 246 33 335 -15 q 109 172 157 82 q 61 382 61 261 l 61 419 l 749 419 q 659 635 739 556 q 454 714 579 714 q 119 575 275 714 l 75 640 q 458 796 244 796 m 460 71 q 656 143 576 71 q 747 340 735 215 l 181 340 q 258 143 181 215 q 460 71 336 71 z "},"T":{"ha":776,"x_min":35,"x_max":740,"o":"m 225 74 l 333 74 l 333 708 l 119 708 l 119 510 l 35 510 l 35 782 l 740 782 l 740 510 l 656 510 l 656 708 l 446 708 l 446 74 l 554 74 l 554 0 l 225 0 l 225 74 z "},"Ŧ":{"ha":776,"x_min":35,"x_max":740,"o":"m 740 782 l 740 510 l 656 510 l 656 708 l 446 708 l 446 425 l 533 425 l 533 363 l 446 363 l 446 74 l 554 74 l 554 0 l 225 0 l 225 74 l 333 74 l 333 363 l 242 363 l 242 425 l 333 425 l 333 708 l 119 708 l 119 510 l 35 510 l 35 782 l 740 782 z "},"Ť":{"ha":776,"x_min":35,"x_max":740,"o":"m 225 74 l 333 74 l 333 708 l 119 708 l 119 510 l 35 510 l 35 782 l 740 782 l 740 510 l 656 510 l 656 708 l 446 708 l 446 74 l 554 74 l 554 0 l 225 0 l 225 74 m 225 1068 l 299 1068 l 388 917 l 474 1068 l 546 1068 l 436 858 l 338 858 l 225 1068 z "},"Ţ":{"ha":776,"x_min":35,"x_max":740,"o":"m 225 74 l 333 74 l 333 708 l 119 708 l 119 510 l 35 510 l 35 782 l 740 782 l 740 510 l 656 510 l 656 708 l 446 708 l 446 74 l 554 74 l 554 0 l 225 0 l 225 74 m 393 -243 q 272 -217 333 -243 l 272 -176 q 351 -190 321 -190 q 404 -154 404 -190 q 325 -111 404 -115 l 368 0 l 414 0 l 392 -81 q 467 -109 442 -86 q 492 -164 492 -132 q 465 -224 492 -204 q 393 -243 438 -243 z "},"Ț":{"ha":776,"x_min":35,"x_max":740,"o":"m 225 74 l 333 74 l 333 708 l 119 708 l 119 510 l 35 510 l 35 782 l 740 782 l 740 510 l 656 510 l 656 708 l 446 708 l 446 74 l 554 74 l 554 0 l 225 0 l 225 74 m 324 -283 q 383 -253 364 -276 q 401 -190 401 -231 l 326 -190 l 326 -69 l 458 -69 l 458 -193 q 425 -292 458 -257 q 324 -328 392 -328 l 324 -283 z "},"Ṫ":{"ha":776,"x_min":35,"x_max":740,"o":"m 225 74 l 333 74 l 333 708 l 119 708 l 119 510 l 35 510 l 35 782 l 740 782 l 740 510 l 656 510 l 656 708 l 446 708 l 446 74 l 554 74 l 554 0 l 225 0 l 225 74 m 386 875 q 339 894 358 875 q 319 938 319 913 q 338 982 319 964 q 386 1000 357 1000 q 433 983 415 1000 q 451 938 451 967 q 435 894 453 913 q 386 875 417 875 z "},"Ṭ":{"ha":776,"x_min":35,"x_max":740,"o":"m 225 74 l 333 74 l 333 708 l 119 708 l 119 510 l 35 510 l 35 782 l 740 782 l 740 510 l 656 510 l 656 708 l 446 708 l 446 74 l 554 74 l 554 0 l 225 0 l 225 74 m 390 -194 q 343 -176 363 -194 q 324 -132 324 -157 q 342 -87 324 -106 q 390 -69 361 -69 q 438 -86 419 -69 q 456 -132 456 -103 q 439 -176 457 -157 q 390 -194 421 -194 z "},"Ṯ":{"ha":776,"x_min":35,"x_max":740,"o":"m 225 74 l 333 74 l 333 708 l 119 708 l 119 510 l 35 510 l 35 782 l 740 782 l 740 510 l 656 510 l 656 708 l 446 708 l 446 74 l 554 74 l 554 0 l 225 0 l 225 74 m 244 -51 l 536 -51 l 536 -114 l 244 -114 l 244 -51 z "},"U":{"ha":931,"x_min":38,"x_max":903,"o":"m 468 -14 q 222 67 301 -14 q 142 283 142 147 l 142 708 l 38 708 l 38 782 l 358 782 l 358 708 l 254 708 l 254 268 q 312 122 254 175 q 471 69 369 69 q 641 122 581 69 q 701 269 701 175 l 701 708 l 599 708 l 599 782 l 903 782 l 903 708 l 797 708 l 797 274 q 708 60 797 133 q 468 -14 618 -14 z "},"Ú":{"ha":931,"x_min":38,"x_max":903,"o":"m 468 -14 q 222 67 301 -14 q 142 283 142 147 l 142 708 l 38 708 l 38 782 l 358 782 l 358 708 l 254 708 l 254 268 q 312 122 254 175 q 471 69 369 69 q 641 122 581 69 q 701 269 701 175 l 701 708 l 599 708 l 599 782 l 903 782 l 903 708 l 797 708 l 797 274 q 708 60 797 133 q 468 -14 618 -14 m 519 1100 l 636 1100 l 511 899 l 446 899 l 519 1100 z "},"Ŭ":{"ha":931,"x_min":38,"x_max":903,"o":"m 468 -14 q 222 67 301 -14 q 142 283 142 147 l 142 708 l 38 708 l 38 782 l 358 782 l 358 708 l 254 708 l 254 268 q 312 122 254 175 q 471 69 369 69 q 641 122 581 69 q 701 269 701 175 l 701 708 l 599 708 l 599 782 l 903 782 l 903 708 l 797 708 l 797 274 q 708 60 797 133 q 468 -14 618 -14 m 475 861 q 373 899 414 861 q 325 1000 332 936 l 393 1000 q 478 924 408 924 q 533 944 510 924 q 561 1000 556 964 l 631 1000 q 582 898 624 935 q 475 861 540 861 z "},"Ǔ":{"ha":931,"x_min":38,"x_max":903,"o":"m 468 -14 q 222 67 301 -14 q 142 283 142 147 l 142 708 l 38 708 l 38 782 l 358 782 l 358 708 l 254 708 l 254 268 q 312 122 254 175 q 471 69 369 69 q 641 122 581 69 q 701 269 701 175 l 701 708 l 599 708 l 599 782 l 903 782 l 903 708 l 797 708 l 797 274 q 708 60 797 133 q 468 -14 618 -14 m 317 1068 l 390 1068 l 479 917 l 565 1068 l 638 1068 l 528 858 l 429 858 l 317 1068 z "},"Û":{"ha":931,"x_min":38,"x_max":903,"o":"m 468 -14 q 222 67 301 -14 q 142 283 142 147 l 142 708 l 38 708 l 38 782 l 358 782 l 358 708 l 254 708 l 254 268 q 312 122 254 175 q 471 69 369 69 q 641 122 581 69 q 701 269 701 175 l 701 708 l 599 708 l 599 782 l 903 782 l 903 708 l 797 708 l 797 274 q 708 60 797 133 q 468 -14 618 -14 m 424 1078 l 532 1078 l 647 860 l 569 860 l 478 1033 l 386 860 l 308 860 l 424 1078 z "},"Ȕ":{"ha":931,"x_min":38,"x_max":903,"o":"m 468 -14 q 222 67 301 -14 q 142 283 142 147 l 142 708 l 38 708 l 38 782 l 358 782 l 358 708 l 254 708 l 254 268 q 312 122 254 175 q 471 69 369 69 q 641 122 581 69 q 701 269 701 175 l 701 708 l 599 708 l 599 782 l 903 782 l 903 708 l 797 708 l 797 274 q 708 60 797 133 q 468 -14 618 -14 m 204 1110 l 321 1110 l 400 899 l 335 899 l 204 1110 m 393 1110 l 510 1110 l 588 899 l 522 899 l 393 1110 z "},"Ü":{"ha":931,"x_min":38,"x_max":903,"o":"m 468 -14 q 222 67 301 -14 q 142 283 142 147 l 142 708 l 38 708 l 38 782 l 358 782 l 358 708 l 254 708 l 254 268 q 312 122 254 175 q 471 69 369 69 q 641 122 581 69 q 701 269 701 175 l 701 708 l 599 708 l 599 782 l 903 782 l 903 708 l 797 708 l 797 274 q 708 60 797 133 q 468 -14 618 -14 m 344 871 q 299 888 317 871 q 282 931 282 904 q 299 974 282 957 q 344 990 317 990 q 390 974 372 990 q 407 931 407 957 q 390 888 407 904 q 344 871 372 871 m 611 871 q 567 887 583 871 q 550 931 550 903 q 567 974 550 958 q 611 990 583 990 q 656 974 639 990 q 674 931 674 957 q 656 888 674 904 q 611 871 639 871 z "},"Ụ":{"ha":931,"x_min":38,"x_max":903,"o":"m 468 -14 q 222 67 301 -14 q 142 283 142 147 l 142 708 l 38 708 l 38 782 l 358 782 l 358 708 l 254 708 l 254 268 q 312 122 254 175 q 471 69 369 69 q 641 122 581 69 q 701 269 701 175 l 701 708 l 599 708 l 599 782 l 903 782 l 903 708 l 797 708 l 797 274 q 708 60 797 133 q 468 -14 618 -14 m 469 -194 q 422 -176 442 -194 q 403 -132 403 -157 q 422 -87 403 -106 q 469 -69 440 -69 q 517 -86 499 -69 q 535 -132 535 -103 q 518 -176 536 -157 q 469 -194 500 -194 z "},"Ù":{"ha":931,"x_min":38,"x_max":903,"o":"m 468 -14 q 222 67 301 -14 q 142 283 142 147 l 142 708 l 38 708 l 38 782 l 358 782 l 358 708 l 254 708 l 254 268 q 312 122 254 175 q 471 69 369 69 q 641 122 581 69 q 701 269 701 175 l 701 708 l 599 708 l 599 782 l 903 782 l 903 708 l 797 708 l 797 274 q 708 60 797 133 q 468 -14 618 -14 m 319 1100 l 436 1100 l 510 899 l 444 899 l 319 1100 z "},"Ủ":{"ha":931,"x_min":38,"x_max":903,"o":"m 468 -14 q 222 67 301 -14 q 142 283 142 147 l 142 708 l 38 708 l 38 782 l 358 782 l 358 708 l 254 708 l 254 268 q 312 122 254 175 q 471 69 369 69 q 641 122 581 69 q 701 269 701 175 l 701 708 l 599 708 l 599 782 l 903 782 l 903 708 l 797 708 l 797 274 q 708 60 797 133 q 468 -14 618 -14 m 458 903 q 506 953 506 918 q 492 981 506 971 q 458 990 479 990 q 399 972 431 990 l 378 1031 q 465 1054 419 1054 q 547 1026 515 1054 q 579 956 579 999 q 478 842 579 869 l 458 903 z "},"Ư":{"ha":931,"x_min":38,"x_max":926,"o":"m 926 878 q 885 778 919 818 q 797 724 851 739 l 797 274 q 708 60 797 133 q 468 -14 618 -14 q 222 67 301 -14 q 142 283 142 147 l 142 708 l 38 708 l 38 782 l 358 782 l 358 708 l 254 708 l 254 268 q 312 122 254 175 q 471 69 369 69 q 641 122 581 69 q 701 269 701 175 l 701 708 l 599 708 l 599 782 l 715 782 q 783 805 757 782 q 814 878 810 828 l 926 878 z "},"Ứ":{"ha":931,"x_min":38,"x_max":926,"o":"m 926 878 q 885 778 919 818 q 797 724 851 739 l 797 274 q 708 60 797 133 q 468 -14 618 -14 q 222 67 301 -14 q 142 283 142 147 l 142 708 l 38 708 l 38 782 l 358 782 l 358 708 l 254 708 l 254 268 q 312 122 254 175 q 471 69 369 69 q 641 122 581 69 q 701 269 701 175 l 701 708 l 599 708 l 599 782 l 715 782 q 783 805 757 782 q 814 878 810 828 l 926 878 m 519 1100 l 636 1100 l 511 899 l 446 899 l 519 1100 z "},"Ự":{"ha":931,"x_min":38,"x_max":926,"o":"m 926 878 q 885 778 919 818 q 797 724 851 739 l 797 274 q 708 60 797 133 q 468 -14 618 -14 q 222 67 301 -14 q 142 283 142 147 l 142 708 l 38 708 l 38 782 l 358 782 l 358 708 l 254 708 l 254 268 q 312 122 254 175 q 471 69 369 69 q 641 122 581 69 q 701 269 701 175 l 701 708 l 599 708 l 599 782 l 715 782 q 783 805 757 782 q 814 878 810 828 l 926 878 m 469 -194 q 422 -176 442 -194 q 403 -132 403 -157 q 422 -87 403 -106 q 469 -69 440 -69 q 517 -86 499 -69 q 535 -132 535 -103 q 518 -176 536 -157 q 469 -194 500 -194 z "},"Ừ":{"ha":931,"x_min":38,"x_max":926,"o":"m 926 878 q 885 778 919 818 q 797 724 851 739 l 797 274 q 708 60 797 133 q 468 -14 618 -14 q 222 67 301 -14 q 142 283 142 147 l 142 708 l 38 708 l 38 782 l 358 782 l 358 708 l 254 708 l 254 268 q 312 122 254 175 q 471 69 369 69 q 641 122 581 69 q 701 269 701 175 l 701 708 l 599 708 l 599 782 l 715 782 q 783 805 757 782 q 814 878 810 828 l 926 878 m 319 1100 l 436 1100 l 510 899 l 444 899 l 319 1100 z "},"Ử":{"ha":931,"x_min":38,"x_max":926,"o":"m 926 878 q 885 778 919 818 q 797 724 851 739 l 797 274 q 708 60 797 133 q 468 -14 618 -14 q 222 67 301 -14 q 142 283 142 147 l 142 708 l 38 708 l 38 782 l 358 782 l 358 708 l 254 708 l 254 268 q 312 122 254 175 q 471 69 369 69 q 641 122 581 69 q 701 269 701 175 l 701 708 l 599 708 l 599 782 l 715 782 q 783 805 757 782 q 814 878 810 828 l 926 878 m 458 903 q 506 953 506 918 q 492 981 506 971 q 458 990 479 990 q 399 972 431 990 l 378 1031 q 465 1054 419 1054 q 547 1026 515 1054 q 579 956 579 999 q 478 842 579 869 l 458 903 z "},"Ữ":{"ha":931,"x_min":38,"x_max":926,"o":"m 926 878 q 885 778 919 818 q 797 724 851 739 l 797 274 q 708 60 797 133 q 468 -14 618 -14 q 222 67 301 -14 q 142 283 142 147 l 142 708 l 38 708 l 38 782 l 358 782 l 358 708 l 254 708 l 254 268 q 312 122 254 175 q 471 69 369 69 q 641 122 581 69 q 701 269 701 175 l 701 708 l 599 708 l 599 782 l 715 782 q 783 805 757 782 q 814 878 810 828 l 926 878 m 565 889 q 524 895 546 889 q 484 908 503 901 q 460 917 465 914 q 381 940 404 940 q 352 930 363 940 q 338 894 342 919 l 294 894 q 326 986 300 956 q 396 1017 353 1017 q 493 989 426 1017 q 571 965 551 965 q 604 976 592 965 q 622 1014 617 988 l 663 1014 q 635 923 658 957 q 565 889 611 889 z "},"Ű":{"ha":931,"x_min":38,"x_max":903,"o":"m 468 -14 q 222 67 301 -14 q 142 283 142 147 l 142 708 l 38 708 l 38 782 l 358 782 l 358 708 l 254 708 l 254 268 q 312 122 254 175 q 471 69 369 69 q 641 122 581 69 q 701 269 701 175 l 701 708 l 599 708 l 599 782 l 903 782 l 903 708 l 797 708 l 797 274 q 708 60 797 133 q 468 -14 618 -14 m 432 1110 l 549 1110 l 418 899 l 354 899 l 432 1110 m 619 1110 l 736 1110 l 607 899 l 542 899 l 619 1110 z "},"Ȗ":{"ha":931,"x_min":38,"x_max":903,"o":"m 468 -14 q 222 67 301 -14 q 142 283 142 147 l 142 708 l 38 708 l 38 782 l 358 782 l 358 708 l 254 708 l 254 268 q 312 122 254 175 q 471 69 369 69 q 641 122 581 69 q 701 269 701 175 l 701 708 l 599 708 l 599 782 l 903 782 l 903 708 l 797 708 l 797 274 q 708 60 797 133 q 468 -14 618 -14 m 315 861 q 366 969 322 929 q 478 1010 410 1010 q 588 969 544 1010 q 639 861 632 929 l 557 861 q 530 914 550 896 q 478 932 510 932 q 397 861 410 932 l 315 861 z "},"Ū":{"ha":931,"x_min":38,"x_max":903,"o":"m 468 -14 q 222 67 301 -14 q 142 283 142 147 l 142 708 l 38 708 l 38 782 l 358 782 l 358 708 l 254 708 l 254 268 q 312 122 254 175 q 471 69 369 69 q 641 122 581 69 q 701 269 701 175 l 701 708 l 599 708 l 599 782 l 903 782 l 903 708 l 797 708 l 797 274 q 708 60 797 133 q 468 -14 618 -14 m 332 956 l 624 956 l 624 893 l 332 893 l 332 956 z "},"Ṻ":{"ha":931,"x_min":38,"x_max":903,"o":"m 468 -14 q 222 67 301 -14 q 142 283 142 147 l 142 708 l 38 708 l 38 782 l 358 782 l 358 708 l 254 708 l 254 268 q 312 122 254 175 q 471 69 369 69 q 641 122 581 69 q 701 269 701 175 l 701 708 l 599 708 l 599 782 l 903 782 l 903 708 l 797 708 l 797 274 q 708 60 797 133 q 468 -14 618 -14 m 332 956 l 624 956 l 624 893 l 332 893 l 332 956 m 344 1029 q 299 1046 317 1029 q 282 1089 282 1063 q 299 1132 282 1115 q 344 1149 317 1149 q 390 1132 372 1149 q 407 1089 407 1115 q 390 1046 407 1063 q 344 1029 372 1029 m 611 1029 q 567 1045 583 1029 q 550 1089 550 1061 q 567 1133 550 1117 q 611 1149 583 1149 q 656 1132 639 1149 q 674 1089 674 1115 q 656 1046 674 1063 q 611 1029 639 1029 z "},"Ų":{"ha":931,"x_min":38,"x_max":903,"o":"m 903 782 l 903 708 l 797 708 l 797 274 q 715 66 797 139 q 492 -14 632 -7 q 442 -111 442 -68 q 460 -156 442 -140 q 507 -171 478 -171 q 568 -153 538 -171 l 568 -208 q 525 -228 544 -222 q 482 -235 506 -235 q 403 -206 435 -235 q 371 -132 371 -178 q 432 -12 371 -74 q 213 76 283 -4 q 142 283 142 156 l 142 708 l 38 708 l 38 782 l 358 782 l 358 708 l 254 708 l 254 268 q 312 122 254 175 q 471 69 369 69 q 641 122 581 69 q 701 269 701 175 l 701 708 l 599 708 l 599 782 l 903 782 z "},"Ů":{"ha":931,"x_min":38,"x_max":903,"o":"m 468 -14 q 222 67 301 -14 q 142 283 142 147 l 142 708 l 38 708 l 38 782 l 358 782 l 358 708 l 254 708 l 254 268 q 312 122 254 175 q 471 69 369 69 q 641 122 581 69 q 701 269 701 175 l 701 708 l 599 708 l 599 782 l 903 782 l 903 708 l 797 708 l 797 274 q 708 60 797 133 q 468 -14 618 -14 m 478 831 q 398 860 428 831 q 368 935 368 890 q 397 1008 368 979 q 478 1036 426 1036 q 558 1008 529 1036 q 588 935 588 979 q 558 860 588 890 q 478 831 528 831 m 478 874 q 522 891 506 874 q 539 935 539 908 q 522 978 539 961 q 478 994 506 994 q 432 978 449 994 q 415 935 415 961 q 433 891 415 908 q 478 874 450 874 z "},"Ũ":{"ha":931,"x_min":38,"x_max":903,"o":"m 468 -14 q 222 67 301 -14 q 142 283 142 147 l 142 708 l 38 708 l 38 782 l 358 782 l 358 708 l 254 708 l 254 268 q 312 122 254 175 q 471 69 369 69 q 641 122 581 69 q 701 269 701 175 l 701 708 l 599 708 l 599 782 l 903 782 l 903 708 l 797 708 l 797 274 q 708 60 797 133 q 468 -14 618 -14 m 565 889 q 524 895 546 889 q 484 908 503 901 q 460 917 465 914 q 381 940 404 940 q 352 930 363 940 q 338 894 342 919 l 294 894 q 326 986 300 956 q 396 1017 353 1017 q 493 989 426 1017 q 571 965 551 965 q 604 976 592 965 q 622 1014 617 988 l 663 1014 q 635 923 658 957 q 565 889 611 889 z "},"Ṹ":{"ha":931,"x_min":38,"x_max":903,"o":"m 468 -14 q 222 67 301 -14 q 142 283 142 147 l 142 708 l 38 708 l 38 782 l 358 782 l 358 708 l 254 708 l 254 268 q 312 122 254 175 q 471 69 369 69 q 641 122 581 69 q 701 269 701 175 l 701 708 l 599 708 l 599 782 l 903 782 l 903 708 l 797 708 l 797 274 q 708 60 797 133 q 468 -14 618 -14 m 565 889 q 524 895 546 889 q 484 908 503 901 q 460 917 465 914 q 381 940 404 940 q 352 930 363 940 q 338 894 342 919 l 294 894 q 326 986 300 956 q 396 1017 353 1017 q 493 989 426 1017 q 571 965 551 965 q 604 976 592 965 q 622 1014 617 988 l 663 1014 q 635 923 658 957 q 565 889 611 889 m 521 1307 l 638 1307 l 513 1106 l 447 1106 l 521 1307 z "},"V":{"ha":897,"x_min":22,"x_max":874,"o":"m 121 708 l 22 708 l 22 782 l 340 782 l 340 708 l 238 708 l 458 124 l 676 708 l 576 708 l 576 782 l 874 782 l 874 708 l 778 708 l 500 0 l 401 0 l 121 708 z "},"W":{"ha":1281,"x_min":33,"x_max":1249,"o":"m 129 708 l 33 708 l 33 782 l 339 782 l 339 708 l 238 708 l 407 144 l 608 768 l 690 768 l 893 144 l 1058 708 l 957 708 l 957 782 l 1249 782 l 1249 708 l 1151 708 l 936 0 l 839 0 l 643 592 l 449 0 l 351 0 l 129 708 z "},"Ẃ":{"ha":1281,"x_min":33,"x_max":1249,"o":"m 129 708 l 33 708 l 33 782 l 339 782 l 339 708 l 238 708 l 407 144 l 608 768 l 690 768 l 893 144 l 1058 708 l 957 708 l 957 782 l 1249 782 l 1249 708 l 1151 708 l 936 0 l 839 0 l 643 592 l 449 0 l 351 0 l 129 708 m 692 1086 l 808 1086 l 683 885 l 618 885 l 692 1086 z "},"Ŵ":{"ha":1281,"x_min":33,"x_max":1249,"o":"m 129 708 l 33 708 l 33 782 l 339 782 l 339 708 l 238 708 l 407 144 l 608 768 l 690 768 l 893 144 l 1058 708 l 957 708 l 957 782 l 1249 782 l 1249 708 l 1151 708 l 936 0 l 839 0 l 643 592 l 449 0 l 351 0 l 129 708 m 596 1064 l 704 1064 l 819 846 l 742 846 l 650 1019 l 558 846 l 481 846 l 596 1064 z "},"Ẅ":{"ha":1281,"x_min":33,"x_max":1249,"o":"m 129 708 l 33 708 l 33 782 l 339 782 l 339 708 l 238 708 l 407 144 l 608 768 l 690 768 l 893 144 l 1058 708 l 957 708 l 957 782 l 1249 782 l 1249 708 l 1151 708 l 936 0 l 839 0 l 643 592 l 449 0 l 351 0 l 129 708 m 517 857 q 472 874 489 857 q 454 917 454 890 q 472 960 454 943 q 517 976 489 976 q 562 960 544 976 q 579 917 579 943 q 562 874 579 890 q 517 857 544 857 m 783 857 q 739 873 756 857 q 722 917 722 889 q 739 960 722 944 q 783 976 756 976 q 828 960 811 976 q 846 917 846 943 q 828 874 846 890 q 783 857 811 857 z "},"Ẁ":{"ha":1281,"x_min":33,"x_max":1249,"o":"m 129 708 l 33 708 l 33 782 l 339 782 l 339 708 l 238 708 l 407 144 l 608 768 l 690 768 l 893 144 l 1058 708 l 957 708 l 957 782 l 1249 782 l 1249 708 l 1151 708 l 936 0 l 839 0 l 643 592 l 449 0 l 351 0 l 129 708 m 492 1086 l 608 1086 l 682 885 l 617 885 l 492 1086 z "},"X":{"ha":885,"x_min":42,"x_max":843,"o":"m 42 69 l 150 69 l 379 400 l 158 711 l 51 711 l 51 782 l 372 782 l 372 711 l 278 711 l 449 464 l 617 711 l 521 711 l 521 782 l 825 782 l 825 711 l 718 711 l 499 401 l 733 69 l 843 69 l 843 0 l 515 0 l 515 69 l 613 69 l 432 338 l 253 69 l 351 69 l 351 0 l 42 0 l 42 69 z "},"Y":{"ha":878,"x_min":19,"x_max":858,"o":"m 271 74 l 385 74 l 385 335 l 124 708 l 19 708 l 19 782 l 344 782 l 344 708 l 246 708 l 451 408 l 650 708 l 550 708 l 550 782 l 858 782 l 858 708 l 751 708 l 497 336 l 497 74 l 613 74 l 613 0 l 271 0 l 271 74 z "},"Ý":{"ha":878,"x_min":19,"x_max":858,"o":"m 271 74 l 385 74 l 385 335 l 124 708 l 19 708 l 19 782 l 344 782 l 344 708 l 246 708 l 451 408 l 650 708 l 550 708 l 550 782 l 858 782 l 858 708 l 751 708 l 497 336 l 497 74 l 613 74 l 613 0 l 271 0 l 271 74 m 489 1100 l 606 1100 l 481 899 l 415 899 l 489 1100 z "},"Ŷ":{"ha":878,"x_min":19,"x_max":858,"o":"m 271 74 l 385 74 l 385 335 l 124 708 l 19 708 l 19 782 l 344 782 l 344 708 l 246 708 l 451 408 l 650 708 l 550 708 l 550 782 l 858 782 l 858 708 l 751 708 l 497 336 l 497 74 l 613 74 l 613 0 l 271 0 l 271 74 m 393 1078 l 501 1078 l 617 860 l 539 860 l 447 1033 l 356 860 l 278 860 l 393 1078 z "},"Ÿ":{"ha":878,"x_min":19,"x_max":858,"o":"m 271 74 l 385 74 l 385 335 l 124 708 l 19 708 l 19 782 l 344 782 l 344 708 l 246 708 l 451 408 l 650 708 l 550 708 l 550 782 l 858 782 l 858 708 l 751 708 l 497 336 l 497 74 l 613 74 l 613 0 l 271 0 l 271 74 m 314 871 q 269 888 286 871 q 251 931 251 904 q 269 974 251 957 q 314 990 286 990 q 359 974 342 990 q 376 931 376 957 q 359 888 376 904 q 314 871 342 871 m 581 871 q 536 887 553 871 q 519 931 519 903 q 536 974 519 958 q 581 990 553 990 q 626 974 608 990 q 643 931 643 957 q 626 888 643 904 q 581 871 608 871 z "},"Ẏ":{"ha":878,"x_min":19,"x_max":858,"o":"m 271 74 l 385 74 l 385 335 l 124 708 l 19 708 l 19 782 l 344 782 l 344 708 l 246 708 l 451 408 l 650 708 l 550 708 l 550 782 l 858 782 l 858 708 l 751 708 l 497 336 l 497 74 l 613 74 l 613 0 l 271 0 l 271 74 m 447 875 q 400 894 419 875 q 381 938 381 913 q 399 982 381 964 q 447 1000 418 1000 q 494 983 476 1000 q 513 938 513 967 q 496 894 514 913 q 447 875 478 875 z "},"Ỵ":{"ha":878,"x_min":19,"x_max":858,"o":"m 271 74 l 385 74 l 385 335 l 124 708 l 19 708 l 19 782 l 344 782 l 344 708 l 246 708 l 451 408 l 650 708 l 550 708 l 550 782 l 858 782 l 858 708 l 751 708 l 497 336 l 497 74 l 613 74 l 613 0 l 271 0 l 271 74 m 442 -194 q 394 -176 414 -194 q 375 -132 375 -157 q 394 -87 375 -106 q 442 -69 413 -69 q 489 -86 471 -69 q 507 -132 507 -103 q 490 -176 508 -157 q 442 -194 472 -194 z "},"Ỳ":{"ha":878,"x_min":19,"x_max":858,"o":"m 271 74 l 385 74 l 385 335 l 124 708 l 19 708 l 19 782 l 344 782 l 344 708 l 246 708 l 451 408 l 650 708 l 550 708 l 550 782 l 858 782 l 858 708 l 751 708 l 497 336 l 497 74 l 613 74 l 613 0 l 271 0 l 271 74 m 289 1100 l 406 1100 l 479 899 l 414 899 l 289 1100 z "},"Ỷ":{"ha":878,"x_min":19,"x_max":858,"o":"m 271 74 l 385 74 l 385 335 l 124 708 l 19 708 l 19 782 l 344 782 l 344 708 l 246 708 l 451 408 l 650 708 l 550 708 l 550 782 l 858 782 l 858 708 l 751 708 l 497 336 l 497 74 l 613 74 l 613 0 l 271 0 l 271 74 m 428 903 q 475 953 475 918 q 462 981 475 971 q 428 990 449 990 q 368 972 400 990 l 347 1031 q 435 1054 389 1054 q 517 1026 485 1054 q 549 956 549 999 q 447 842 549 869 l 428 903 z "},"Ȳ":{"ha":878,"x_min":19,"x_max":858,"o":"m 271 74 l 385 74 l 385 335 l 124 708 l 19 708 l 19 782 l 344 782 l 344 708 l 246 708 l 451 408 l 650 708 l 550 708 l 550 782 l 858 782 l 858 708 l 751 708 l 497 336 l 497 74 l 613 74 l 613 0 l 271 0 l 271 74 m 301 956 l 593 956 l 593 893 l 301 893 l 301 956 z "},"Ỹ":{"ha":878,"x_min":19,"x_max":858,"o":"m 271 74 l 385 74 l 385 335 l 124 708 l 19 708 l 19 782 l 344 782 l 344 708 l 246 708 l 451 408 l 650 708 l 550 708 l 550 782 l 858 782 l 858 708 l 751 708 l 497 336 l 497 74 l 613 74 l 613 0 l 271 0 l 271 74 m 535 889 q 494 895 515 889 q 453 908 472 901 q 429 917 435 914 q 350 940 374 940 q 322 930 332 940 q 307 894 311 919 l 264 894 q 296 986 269 956 q 365 1017 322 1017 q 463 989 396 1017 q 540 965 521 965 q 574 976 561 965 q 592 1014 586 988 l 632 1014 q 604 923 628 957 q 535 889 581 889 z "},"Z":{"ha":800,"x_min":86,"x_max":726,"o":"m 86 79 l 579 708 l 190 708 l 190 524 l 107 524 l 107 782 l 717 782 l 717 711 l 219 74 l 643 74 l 643 271 l 726 271 l 726 0 l 86 0 l 86 79 z "},"Ź":{"ha":800,"x_min":86,"x_max":726,"o":"m 86 79 l 579 708 l 190 708 l 190 524 l 107 524 l 107 782 l 717 782 l 717 711 l 219 74 l 643 74 l 643 271 l 726 271 l 726 0 l 86 0 l 86 79 m 454 1100 l 571 1100 l 446 899 l 381 899 l 454 1100 z "},"Ž":{"ha":800,"x_min":86,"x_max":726,"o":"m 86 79 l 579 708 l 190 708 l 190 524 l 107 524 l 107 782 l 717 782 l 717 711 l 219 74 l 643 74 l 643 271 l 726 271 l 726 0 l 86 0 l 86 79 m 251 1068 l 325 1068 l 414 917 l 500 1068 l 572 1068 l 463 858 l 364 858 l 251 1068 z "},"Ż":{"ha":800,"x_min":86,"x_max":726,"o":"m 86 79 l 579 708 l 190 708 l 190 524 l 107 524 l 107 782 l 717 782 l 717 711 l 219 74 l 643 74 l 643 271 l 726 271 l 726 0 l 86 0 l 86 79 m 413 875 q 365 894 385 875 q 346 938 346 913 q 365 982 346 964 q 413 1000 383 1000 q 460 983 442 1000 q 478 938 478 967 q 461 894 479 913 q 413 875 443 875 z "},"Ẓ":{"ha":800,"x_min":86,"x_max":726,"o":"m 86 79 l 579 708 l 190 708 l 190 524 l 107 524 l 107 782 l 717 782 l 717 711 l 219 74 l 643 74 l 643 271 l 726 271 l 726 0 l 86 0 l 86 79 m 407 -194 q 360 -176 379 -194 q 340 -132 340 -157 q 359 -87 340 -106 q 407 -69 378 -69 q 454 -86 436 -69 q 472 -132 472 -103 q 456 -176 474 -157 q 407 -194 438 -194 z "},"a":{"ha":633,"x_min":54,"x_max":613,"o":"m 613 74 l 613 0 l 436 0 l 431 49 q 342 0 386 15 q 242 -15 297 -15 q 106 31 158 -15 q 54 147 54 78 q 115 277 54 236 q 274 318 175 318 q 425 300 344 318 l 425 357 q 391 451 425 419 q 296 483 357 483 q 203 470 256 483 q 108 433 151 457 l 78 500 q 184 544 124 529 q 297 560 244 560 q 465 508 404 560 q 526 367 526 456 l 526 74 l 613 74 m 151 153 q 180 83 151 110 q 257 56 208 56 q 425 115 339 56 l 425 240 q 281 257 351 257 q 188 233 225 257 q 151 153 151 208 z "},"á":{"ha":633,"x_min":54,"x_max":613,"o":"m 613 74 l 613 0 l 436 0 l 431 49 q 342 0 386 15 q 242 -15 297 -15 q 106 31 158 -15 q 54 147 54 78 q 115 277 54 236 q 274 318 175 318 q 425 300 344 318 l 425 357 q 391 451 425 419 q 296 483 357 483 q 203 470 256 483 q 108 433 151 457 l 78 500 q 184 544 124 529 q 297 560 244 560 q 465 508 404 560 q 526 367 526 456 l 526 74 l 613 74 m 151 153 q 180 83 151 110 q 257 56 208 56 q 425 115 339 56 l 425 240 q 281 257 351 257 q 188 233 225 257 q 151 153 151 208 m 343 864 l 460 864 l 335 663 l 269 663 l 343 864 z "},"ă":{"ha":633,"x_min":54,"x_max":613,"o":"m 613 74 l 613 0 l 436 0 l 431 49 q 342 0 386 15 q 242 -15 297 -15 q 106 31 158 -15 q 54 147 54 78 q 115 277 54 236 q 274 318 175 318 q 425 300 344 318 l 425 357 q 391 451 425 419 q 296 483 357 483 q 203 470 256 483 q 108 433 151 457 l 78 500 q 184 544 124 529 q 297 560 244 560 q 465 508 404 560 q 526 367 526 456 l 526 74 l 613 74 m 151 153 q 180 83 151 110 q 257 56 208 56 q 425 115 339 56 l 425 240 q 281 257 351 257 q 188 233 225 257 q 151 153 151 208 m 299 625 q 197 663 238 625 q 149 764 156 700 l 217 764 q 301 688 232 688 q 356 708 333 688 q 385 764 379 728 l 454 764 q 406 662 447 699 q 299 625 364 625 z "},"ắ":{"ha":633,"x_min":54,"x_max":613,"o":"m 613 74 l 613 0 l 436 0 l 431 49 q 342 0 386 15 q 242 -15 297 -15 q 106 31 158 -15 q 54 147 54 78 q 115 277 54 236 q 274 318 175 318 q 425 300 344 318 l 425 357 q 391 451 425 419 q 296 483 357 483 q 203 470 256 483 q 108 433 151 457 l 78 500 q 184 544 124 529 q 297 560 244 560 q 465 508 404 560 q 526 367 526 456 l 526 74 l 613 74 m 151 153 q 180 83 151 110 q 257 56 208 56 q 425 115 339 56 l 425 240 q 281 257 351 257 q 188 233 225 257 q 151 153 151 208 m 315 929 l 432 929 l 326 783 l 261 783 l 315 929 m 299 625 q 197 663 238 625 q 149 764 156 700 l 217 764 q 301 688 232 688 q 356 708 333 688 q 385 764 379 728 l 454 764 q 406 662 447 699 q 299 625 364 625 z "},"ặ":{"ha":633,"x_min":54,"x_max":613,"o":"m 613 74 l 613 0 l 436 0 l 431 49 q 342 0 386 15 q 242 -15 297 -15 q 106 31 158 -15 q 54 147 54 78 q 115 277 54 236 q 274 318 175 318 q 425 300 344 318 l 425 357 q 391 451 425 419 q 296 483 357 483 q 203 470 256 483 q 108 433 151 457 l 78 500 q 184 544 124 529 q 297 560 244 560 q 465 508 404 560 q 526 367 526 456 l 526 74 l 613 74 m 151 153 q 180 83 151 110 q 257 56 208 56 q 425 115 339 56 l 425 240 q 281 257 351 257 q 188 233 225 257 q 151 153 151 208 m 336 -194 q 289 -176 308 -194 q 269 -132 269 -157 q 288 -87 269 -106 q 336 -69 307 -69 q 383 -86 365 -69 q 401 -132 401 -103 q 385 -176 403 -157 q 336 -194 367 -194 m 299 625 q 197 663 238 625 q 149 764 156 700 l 217 764 q 301 688 232 688 q 356 708 333 688 q 385 764 379 728 l 454 764 q 406 662 447 699 q 299 625 364 625 z "},"ằ":{"ha":633,"x_min":54,"x_max":613,"o":"m 613 74 l 613 0 l 436 0 l 431 49 q 342 0 386 15 q 242 -15 297 -15 q 106 31 158 -15 q 54 147 54 78 q 115 277 54 236 q 274 318 175 318 q 425 300 344 318 l 425 357 q 391 451 425 419 q 296 483 357 483 q 203 470 256 483 q 108 433 151 457 l 78 500 q 184 544 124 529 q 297 560 244 560 q 465 508 404 560 q 526 367 526 456 l 526 74 l 613 74 m 151 153 q 180 83 151 110 q 257 56 208 56 q 425 115 339 56 l 425 240 q 281 257 351 257 q 188 233 225 257 q 151 153 151 208 m 169 929 l 286 929 l 340 783 l 275 783 l 169 929 m 299 625 q 197 663 238 625 q 149 764 156 700 l 217 764 q 301 688 232 688 q 356 708 333 688 q 385 764 379 728 l 454 764 q 406 662 447 699 q 299 625 364 625 z "},"ẳ":{"ha":633,"x_min":54,"x_max":613,"o":"m 613 74 l 613 0 l 436 0 l 431 49 q 342 0 386 15 q 242 -15 297 -15 q 106 31 158 -15 q 54 147 54 78 q 115 277 54 236 q 274 318 175 318 q 425 300 344 318 l 425 357 q 391 451 425 419 q 296 483 357 483 q 203 470 256 483 q 108 433 151 457 l 78 500 q 184 544 124 529 q 297 560 244 560 q 465 508 404 560 q 526 367 526 456 l 526 74 l 613 74 m 151 153 q 180 83 151 110 q 257 56 208 56 q 425 115 339 56 l 425 240 q 281 257 351 257 q 188 233 225 257 q 151 153 151 208 m 272 824 q 319 874 319 839 q 306 901 319 892 q 272 911 293 911 q 213 893 244 911 l 192 951 q 279 975 233 975 q 361 947 329 975 q 393 876 393 919 q 292 763 393 790 l 272 824 m 299 625 q 197 663 238 625 q 149 764 156 700 l 217 764 q 301 688 232 688 q 356 708 333 688 q 385 764 379 728 l 454 764 q 406 662 447 699 q 299 625 364 625 z "},"ẵ":{"ha":633,"x_min":54,"x_max":613,"o":"m 613 74 l 613 0 l 436 0 l 431 49 q 342 0 386 15 q 242 -15 297 -15 q 106 31 158 -15 q 54 147 54 78 q 115 277 54 236 q 274 318 175 318 q 425 300 344 318 l 425 357 q 391 451 425 419 q 296 483 357 483 q 203 470 256 483 q 108 433 151 457 l 78 500 q 184 544 124 529 q 297 560 244 560 q 465 508 404 560 q 526 367 526 456 l 526 74 l 613 74 m 151 153 q 180 83 151 110 q 257 56 208 56 q 425 115 339 56 l 425 240 q 281 257 351 257 q 188 233 225 257 q 151 153 151 208 m 389 815 q 348 822 369 815 q 308 834 326 828 q 283 843 289 840 q 204 867 228 867 q 176 856 186 867 q 161 821 165 846 l 118 821 q 150 913 124 882 q 219 943 176 943 q 317 915 250 943 q 394 892 375 892 q 428 903 415 892 q 446 940 440 914 l 486 940 q 458 849 482 883 q 389 815 435 815 m 299 625 q 197 663 238 625 q 149 764 156 700 l 217 764 q 301 688 232 688 q 356 708 333 688 q 385 764 379 728 l 454 764 q 406 662 447 699 q 299 625 364 625 z "},"ǎ":{"ha":633,"x_min":54,"x_max":613,"o":"m 613 74 l 613 0 l 436 0 l 431 49 q 342 0 386 15 q 242 -15 297 -15 q 106 31 158 -15 q 54 147 54 78 q 115 277 54 236 q 274 318 175 318 q 425 300 344 318 l 425 357 q 391 451 425 419 q 296 483 357 483 q 203 470 256 483 q 108 433 151 457 l 78 500 q 184 544 124 529 q 297 560 244 560 q 465 508 404 560 q 526 367 526 456 l 526 74 l 613 74 m 151 153 q 180 83 151 110 q 257 56 208 56 q 425 115 339 56 l 425 240 q 281 257 351 257 q 188 233 225 257 q 151 153 151 208 m 140 832 l 214 832 l 303 681 l 389 832 l 461 832 l 351 622 l 253 622 l 140 832 z "},"â":{"ha":633,"x_min":54,"x_max":613,"o":"m 613 74 l 613 0 l 436 0 l 431 49 q 342 0 386 15 q 242 -15 297 -15 q 106 31 158 -15 q 54 147 54 78 q 115 277 54 236 q 274 318 175 318 q 425 300 344 318 l 425 357 q 391 451 425 419 q 296 483 357 483 q 203 470 256 483 q 108 433 151 457 l 78 500 q 184 544 124 529 q 297 560 244 560 q 465 508 404 560 q 526 367 526 456 l 526 74 l 613 74 m 151 153 q 180 83 151 110 q 257 56 208 56 q 425 115 339 56 l 425 240 q 281 257 351 257 q 188 233 225 257 q 151 153 151 208 m 247 842 l 356 842 l 471 624 l 393 624 l 301 797 l 210 624 l 132 624 l 247 842 z "},"ấ":{"ha":633,"x_min":54,"x_max":613,"o":"m 613 74 l 613 0 l 436 0 l 431 49 q 342 0 386 15 q 242 -15 297 -15 q 106 31 158 -15 q 54 147 54 78 q 115 277 54 236 q 274 318 175 318 q 425 300 344 318 l 425 357 q 391 451 425 419 q 296 483 357 483 q 203 470 256 483 q 108 433 151 457 l 78 500 q 184 544 124 529 q 297 560 244 560 q 465 508 404 560 q 526 367 526 456 l 526 74 l 613 74 m 151 153 q 180 83 151 110 q 257 56 208 56 q 425 115 339 56 l 425 240 q 281 257 351 257 q 188 233 225 257 q 151 153 151 208 m 492 910 l 594 910 l 497 750 l 432 750 l 492 910 m 247 800 l 356 800 l 471 624 l 393 624 l 301 756 l 210 624 l 132 624 l 247 800 z "},"ậ":{"ha":633,"x_min":54,"x_max":613,"o":"m 613 74 l 613 0 l 436 0 l 431 49 q 342 0 386 15 q 242 -15 297 -15 q 106 31 158 -15 q 54 147 54 78 q 115 277 54 236 q 274 318 175 318 q 425 300 344 318 l 425 357 q 391 451 425 419 q 296 483 357 483 q 203 470 256 483 q 108 433 151 457 l 78 500 q 184 544 124 529 q 297 560 244 560 q 465 508 404 560 q 526 367 526 456 l 526 74 l 613 74 m 151 153 q 180 83 151 110 q 257 56 208 56 q 425 115 339 56 l 425 240 q 281 257 351 257 q 188 233 225 257 q 151 153 151 208 m 336 -194 q 289 -176 308 -194 q 269 -132 269 -157 q 288 -87 269 -106 q 336 -69 307 -69 q 383 -86 365 -69 q 401 -132 401 -103 q 385 -176 403 -157 q 336 -194 367 -194 m 247 842 l 356 842 l 471 624 l 393 624 l 301 797 l 210 624 l 132 624 l 247 842 z "},"ầ":{"ha":633,"x_min":54,"x_max":613,"o":"m 613 74 l 613 0 l 436 0 l 431 49 q 342 0 386 15 q 242 -15 297 -15 q 106 31 158 -15 q 54 147 54 78 q 115 277 54 236 q 274 318 175 318 q 425 300 344 318 l 425 357 q 391 451 425 419 q 296 483 357 483 q 203 470 256 483 q 108 433 151 457 l 78 500 q 184 544 124 529 q 297 560 244 560 q 465 508 404 560 q 526 367 526 456 l 526 74 l 613 74 m 151 153 q 180 83 151 110 q 257 56 208 56 q 425 115 339 56 l 425 240 q 281 257 351 257 q 188 233 225 257 q 151 153 151 208 m 460 750 l 363 910 l 465 910 l 525 750 l 460 750 m 247 800 l 356 800 l 471 624 l 393 624 l 301 756 l 210 624 l 132 624 l 247 800 z "},"ẩ":{"ha":633,"x_min":54,"x_max":613,"o":"m 613 74 l 613 0 l 436 0 l 431 49 q 342 0 386 15 q 242 -15 297 -15 q 106 31 158 -15 q 54 147 54 78 q 115 277 54 236 q 274 318 175 318 q 425 300 344 318 l 425 357 q 391 451 425 419 q 296 483 357 483 q 203 470 256 483 q 108 433 151 457 l 78 500 q 184 544 124 529 q 297 560 244 560 q 465 508 404 560 q 526 367 526 456 l 526 74 l 613 74 m 151 153 q 180 83 151 110 q 257 56 208 56 q 425 115 339 56 l 425 240 q 281 257 351 257 q 188 233 225 257 q 151 153 151 208 m 418 797 q 465 847 465 813 q 452 875 465 865 q 418 885 439 885 q 358 867 390 885 l 338 925 q 425 949 379 949 q 507 921 475 949 q 539 850 539 893 q 438 736 539 764 l 418 797 m 247 800 l 356 800 l 471 624 l 393 624 l 301 756 l 210 624 l 132 624 l 247 800 z "},"ẫ":{"ha":633,"x_min":54,"x_max":613,"o":"m 613 74 l 613 0 l 436 0 l 431 49 q 342 0 386 15 q 242 -15 297 -15 q 106 31 158 -15 q 54 147 54 78 q 115 277 54 236 q 274 318 175 318 q 425 300 344 318 l 425 357 q 391 451 425 419 q 296 483 357 483 q 203 470 256 483 q 108 433 151 457 l 78 500 q 184 544 124 529 q 297 560 244 560 q 465 508 404 560 q 526 367 526 456 l 526 74 l 613 74 m 151 153 q 180 83 151 110 q 257 56 208 56 q 425 115 339 56 l 425 240 q 281 257 351 257 q 188 233 225 257 q 151 153 151 208 m 389 836 q 348 842 369 836 q 308 855 326 849 q 283 864 289 861 q 204 888 228 888 q 176 877 186 888 q 161 842 165 867 l 118 842 q 150 933 124 903 q 219 964 176 964 q 317 936 250 964 q 394 913 375 913 q 428 924 415 913 q 446 961 440 935 l 486 961 q 458 870 482 904 q 389 836 435 836 m 247 800 l 356 800 l 471 624 l 393 624 l 301 756 l 210 624 l 132 624 l 247 800 z "},"ȁ":{"ha":633,"x_min":28,"x_max":613,"o":"m 613 74 l 613 0 l 436 0 l 431 49 q 342 0 386 15 q 242 -15 297 -15 q 106 31 158 -15 q 54 147 54 78 q 115 277 54 236 q 274 318 175 318 q 425 300 344 318 l 425 357 q 391 451 425 419 q 296 483 357 483 q 203 470 256 483 q 108 433 151 457 l 78 500 q 184 544 124 529 q 297 560 244 560 q 465 508 404 560 q 526 367 526 456 l 526 74 l 613 74 m 151 153 q 180 83 151 110 q 257 56 208 56 q 425 115 339 56 l 425 240 q 281 257 351 257 q 188 233 225 257 q 151 153 151 208 m 28 874 l 144 874 l 224 663 l 158 663 l 28 874 m 217 874 l 333 874 l 411 663 l 346 663 l 217 874 z "},"ä":{"ha":633,"x_min":54,"x_max":613,"o":"m 613 74 l 613 0 l 436 0 l 431 49 q 342 0 386 15 q 242 -15 297 -15 q 106 31 158 -15 q 54 147 54 78 q 115 277 54 236 q 274 318 175 318 q 425 300 344 318 l 425 357 q 391 451 425 419 q 296 483 357 483 q 203 470 256 483 q 108 433 151 457 l 78 500 q 184 544 124 529 q 297 560 244 560 q 465 508 404 560 q 526 367 526 456 l 526 74 l 613 74 m 151 153 q 180 83 151 110 q 257 56 208 56 q 425 115 339 56 l 425 240 q 281 257 351 257 q 188 233 225 257 q 151 153 151 208 m 168 635 q 123 651 140 635 q 106 694 106 668 q 123 738 106 721 q 168 754 140 754 q 213 738 196 754 q 231 694 231 721 q 213 651 231 668 q 168 635 196 635 m 435 635 q 390 651 407 635 q 374 694 374 667 q 390 738 374 722 q 435 754 407 754 q 480 738 463 754 q 497 694 497 721 q 480 651 497 668 q 435 635 463 635 z "},"ȧ":{"ha":633,"x_min":54,"x_max":613,"o":"m 613 74 l 613 0 l 436 0 l 431 49 q 342 0 386 15 q 242 -15 297 -15 q 106 31 158 -15 q 54 147 54 78 q 115 277 54 236 q 274 318 175 318 q 425 300 344 318 l 425 357 q 391 451 425 419 q 296 483 357 483 q 203 470 256 483 q 108 433 151 457 l 78 500 q 184 544 124 529 q 297 560 244 560 q 465 508 404 560 q 526 367 526 456 l 526 74 l 613 74 m 151 153 q 180 83 151 110 q 257 56 208 56 q 425 115 339 56 l 425 240 q 281 257 351 257 q 188 233 225 257 q 151 153 151 208 m 301 639 q 254 658 274 639 q 235 701 235 676 q 253 746 235 728 q 301 764 272 764 q 349 747 331 764 q 367 701 367 731 q 350 658 368 676 q 301 639 332 639 z "},"ạ":{"ha":633,"x_min":54,"x_max":613,"o":"m 613 74 l 613 0 l 436 0 l 431 49 q 342 0 386 15 q 242 -15 297 -15 q 106 31 158 -15 q 54 147 54 78 q 115 277 54 236 q 274 318 175 318 q 425 300 344 318 l 425 357 q 391 451 425 419 q 296 483 357 483 q 203 470 256 483 q 108 433 151 457 l 78 500 q 184 544 124 529 q 297 560 244 560 q 465 508 404 560 q 526 367 526 456 l 526 74 l 613 74 m 151 153 q 180 83 151 110 q 257 56 208 56 q 425 115 339 56 l 425 240 q 281 257 351 257 q 188 233 225 257 q 151 153 151 208 m 336 -194 q 289 -176 308 -194 q 269 -132 269 -157 q 288 -87 269 -106 q 336 -69 307 -69 q 383 -86 365 -69 q 401 -132 401 -103 q 385 -176 403 -157 q 336 -194 367 -194 z "},"à":{"ha":633,"x_min":54,"x_max":613,"o":"m 613 74 l 613 0 l 436 0 l 431 49 q 342 0 386 15 q 242 -15 297 -15 q 106 31 158 -15 q 54 147 54 78 q 115 277 54 236 q 274 318 175 318 q 425 300 344 318 l 425 357 q 391 451 425 419 q 296 483 357 483 q 203 470 256 483 q 108 433 151 457 l 78 500 q 184 544 124 529 q 297 560 244 560 q 465 508 404 560 q 526 367 526 456 l 526 74 l 613 74 m 151 153 q 180 83 151 110 q 257 56 208 56 q 425 115 339 56 l 425 240 q 281 257 351 257 q 188 233 225 257 q 151 153 151 208 m 143 864 l 260 864 l 333 663 l 268 663 l 143 864 z "},"ả":{"ha":633,"x_min":54,"x_max":613,"o":"m 613 74 l 613 0 l 436 0 l 431 49 q 342 0 386 15 q 242 -15 297 -15 q 106 31 158 -15 q 54 147 54 78 q 115 277 54 236 q 274 318 175 318 q 425 300 344 318 l 425 357 q 391 451 425 419 q 296 483 357 483 q 203 470 256 483 q 108 433 151 457 l 78 500 q 184 544 124 529 q 297 560 244 560 q 465 508 404 560 q 526 367 526 456 l 526 74 l 613 74 m 151 153 q 180 83 151 110 q 257 56 208 56 q 425 115 339 56 l 425 240 q 281 257 351 257 q 188 233 225 257 q 151 153 151 208 m 282 667 q 329 717 329 682 q 316 744 329 735 q 282 754 303 754 q 222 736 254 754 l 201 794 q 289 818 243 818 q 371 790 339 818 q 403 719 403 763 q 301 606 403 633 l 282 667 z "},"ȃ":{"ha":633,"x_min":54,"x_max":613,"o":"m 613 74 l 613 0 l 436 0 l 431 49 q 342 0 386 15 q 242 -15 297 -15 q 106 31 158 -15 q 54 147 54 78 q 115 277 54 236 q 274 318 175 318 q 425 300 344 318 l 425 357 q 391 451 425 419 q 296 483 357 483 q 203 470 256 483 q 108 433 151 457 l 78 500 q 184 544 124 529 q 297 560 244 560 q 465 508 404 560 q 526 367 526 456 l 526 74 l 613 74 m 151 153 q 180 83 151 110 q 257 56 208 56 q 425 115 339 56 l 425 240 q 281 257 351 257 q 188 233 225 257 q 151 153 151 208 m 139 625 q 190 733 146 693 q 301 774 233 774 q 412 733 368 774 q 463 625 456 693 l 381 625 q 353 678 374 660 q 301 696 333 696 q 221 625 233 696 l 139 625 z "},"ā":{"ha":633,"x_min":54,"x_max":613,"o":"m 613 74 l 613 0 l 436 0 l 431 49 q 342 0 386 15 q 242 -15 297 -15 q 106 31 158 -15 q 54 147 54 78 q 115 277 54 236 q 274 318 175 318 q 425 300 344 318 l 425 357 q 391 451 425 419 q 296 483 357 483 q 203 470 256 483 q 108 433 151 457 l 78 500 q 184 544 124 529 q 297 560 244 560 q 465 508 404 560 q 526 367 526 456 l 526 74 l 613 74 m 151 153 q 180 83 151 110 q 257 56 208 56 q 425 115 339 56 l 425 240 q 281 257 351 257 q 188 233 225 257 q 151 153 151 208 m 156 719 l 447 719 l 447 657 l 156 657 l 156 719 z "},"ą":{"ha":633,"x_min":54,"x_max":640,"o":"m 579 -171 q 640 -153 610 -171 l 640 -208 q 597 -228 617 -222 q 554 -235 578 -235 q 475 -206 507 -235 q 443 -132 443 -178 q 461 -67 443 -99 q 517 0 479 -35 l 436 0 l 431 49 q 342 0 386 15 q 242 -15 297 -15 q 106 31 158 -15 q 54 147 54 78 q 115 277 54 236 q 274 318 175 318 q 425 300 344 318 l 425 357 q 391 451 425 419 q 296 483 357 483 q 203 470 256 483 q 108 433 151 457 l 78 500 q 184 544 124 529 q 297 560 244 560 q 465 508 404 560 q 526 367 526 456 l 526 74 l 613 74 l 613 0 l 576 0 q 514 -111 514 -65 q 532 -156 514 -140 q 579 -171 550 -171 m 151 153 q 180 83 151 110 q 257 56 208 56 q 425 115 339 56 l 425 240 q 281 257 351 257 q 188 233 225 257 q 151 153 151 208 z "},"å":{"ha":633,"x_min":54,"x_max":613,"o":"m 613 74 l 613 0 l 436 0 l 431 49 q 342 0 386 15 q 242 -15 297 -15 q 106 31 158 -15 q 54 147 54 78 q 115 277 54 236 q 274 318 175 318 q 425 300 344 318 l 425 357 q 391 451 425 419 q 296 483 357 483 q 203 470 256 483 q 108 433 151 457 l 78 500 q 184 544 124 529 q 297 560 244 560 q 465 508 404 560 q 526 367 526 456 l 526 74 l 613 74 m 151 153 q 180 83 151 110 q 257 56 208 56 q 425 115 339 56 l 425 240 q 281 257 351 257 q 188 233 225 257 q 151 153 151 208 m 301 594 q 222 624 251 594 q 192 699 192 654 q 221 772 192 743 q 301 800 250 800 q 382 772 353 800 q 411 699 411 743 q 381 624 411 654 q 301 594 351 594 m 301 638 q 346 655 329 638 q 363 699 363 672 q 346 742 363 725 q 301 758 329 758 q 256 742 272 758 q 239 699 239 725 q 256 655 239 672 q 301 638 274 638 z "},"ǻ":{"ha":633,"x_min":54,"x_max":613,"o":"m 613 74 l 613 0 l 436 0 l 431 49 q 342 0 386 15 q 242 -15 297 -15 q 106 31 158 -15 q 54 147 54 78 q 115 277 54 236 q 274 318 175 318 q 425 300 344 318 l 425 357 q 391 451 425 419 q 296 483 357 483 q 203 470 256 483 q 108 433 151 457 l 78 500 q 184 544 124 529 q 297 560 244 560 q 465 508 404 560 q 526 367 526 456 l 526 74 l 613 74 m 151 153 q 180 83 151 110 q 257 56 208 56 q 425 115 339 56 l 425 240 q 281 257 351 257 q 188 233 225 257 q 151 153 151 208 m 301 594 q 222 624 251 594 q 192 699 192 654 q 221 772 192 743 q 301 800 250 800 q 382 772 353 800 q 411 699 411 743 q 381 624 411 654 q 301 594 351 594 m 301 638 q 346 655 329 638 q 363 699 363 672 q 346 742 363 725 q 301 758 329 758 q 256 742 272 758 q 239 699 239 725 q 256 655 239 672 q 301 638 274 638 m 343 1051 l 460 1051 l 335 850 l 269 850 l 343 1051 z "},"ã":{"ha":633,"x_min":54,"x_max":613,"o":"m 613 74 l 613 0 l 436 0 l 431 49 q 342 0 386 15 q 242 -15 297 -15 q 106 31 158 -15 q 54 147 54 78 q 115 277 54 236 q 274 318 175 318 q 425 300 344 318 l 425 357 q 391 451 425 419 q 296 483 357 483 q 203 470 256 483 q 108 433 151 457 l 78 500 q 184 544 124 529 q 297 560 244 560 q 465 508 404 560 q 526 367 526 456 l 526 74 l 613 74 m 151 153 q 180 83 151 110 q 257 56 208 56 q 425 115 339 56 l 425 240 q 281 257 351 257 q 188 233 225 257 q 151 153 151 208 m 389 653 q 348 659 369 653 q 308 672 326 665 q 283 681 289 678 q 204 704 228 704 q 176 694 186 704 q 161 658 165 683 l 118 658 q 150 750 124 719 q 219 781 176 781 q 317 753 250 781 q 394 729 375 729 q 428 740 415 729 q 446 778 440 751 l 486 778 q 458 687 482 721 q 389 653 435 653 z "},"æ":{"ha":1031,"x_min":54,"x_max":982,"o":"m 249 -15 q 108 31 163 -15 q 54 147 54 78 q 118 275 54 235 q 286 315 182 315 l 425 315 l 425 357 q 391 451 425 419 q 296 483 357 483 q 203 470 256 483 q 108 433 151 457 l 78 500 q 184 544 124 529 q 297 560 244 560 q 418 536 367 560 q 497 471 469 513 q 592 538 536 514 q 714 561 649 561 q 910 485 839 561 q 982 278 982 408 l 982 251 l 532 251 q 594 113 542 164 q 729 63 647 63 q 936 150 844 63 l 972 88 q 871 12 932 40 q 733 -17 810 -17 q 597 10 660 -17 q 492 86 533 38 q 377 9 435 33 q 249 -15 319 -15 m 881 315 q 834 440 881 394 q 714 486 788 486 q 592 440 642 486 q 532 315 542 394 l 881 315 m 264 56 q 360 75 314 56 q 457 138 406 94 q 425 251 429 189 l 293 251 q 191 228 231 251 q 151 153 151 206 q 182 83 151 110 q 264 56 213 56 z "},"ǽ":{"ha":1031,"x_min":54,"x_max":982,"o":"m 249 -15 q 108 31 163 -15 q 54 147 54 78 q 118 275 54 235 q 286 315 182 315 l 425 315 l 425 357 q 391 451 425 419 q 296 483 357 483 q 203 470 256 483 q 108 433 151 457 l 78 500 q 184 544 124 529 q 297 560 244 560 q 418 536 367 560 q 497 471 469 513 q 592 538 536 514 q 714 561 649 561 q 910 485 839 561 q 982 278 982 408 l 982 251 l 532 251 q 594 113 542 164 q 729 63 647 63 q 936 150 844 63 l 972 88 q 871 12 932 40 q 733 -17 810 -17 q 597 10 660 -17 q 492 86 533 38 q 377 9 435 33 q 249 -15 319 -15 m 881 315 q 834 440 881 394 q 714 486 788 486 q 592 440 642 486 q 532 315 542 394 l 881 315 m 264 56 q 360 75 314 56 q 457 138 406 94 q 425 251 429 189 l 293 251 q 191 228 231 251 q 151 153 151 206 q 182 83 151 110 q 264 56 213 56 m 539 864 l 656 864 l 531 663 l 465 663 l 539 864 z "},"ǣ":{"ha":1031,"x_min":54,"x_max":982,"o":"m 249 -15 q 108 31 163 -15 q 54 147 54 78 q 118 275 54 235 q 286 315 182 315 l 425 315 l 425 357 q 391 451 425 419 q 296 483 357 483 q 203 470 256 483 q 108 433 151 457 l 78 500 q 184 544 124 529 q 297 560 244 560 q 418 536 367 560 q 497 471 469 513 q 592 538 536 514 q 714 561 649 561 q 910 485 839 561 q 982 278 982 408 l 982 251 l 532 251 q 594 113 542 164 q 729 63 647 63 q 936 150 844 63 l 972 88 q 871 12 932 40 q 733 -17 810 -17 q 597 10 660 -17 q 492 86 533 38 q 377 9 435 33 q 249 -15 319 -15 m 881 315 q 834 440 881 394 q 714 486 788 486 q 592 440 642 486 q 532 315 542 394 l 881 315 m 264 56 q 360 75 314 56 q 457 138 406 94 q 425 251 429 189 l 293 251 q 191 228 231 251 q 151 153 151 206 q 182 83 151 110 q 264 56 213 56 m 351 719 l 643 719 l 643 657 l 351 657 l 351 719 z "},"b":{"ha":725,"x_min":35,"x_max":690,"o":"m 425 560 q 560 527 500 560 q 656 431 621 494 q 690 281 690 368 q 652 124 690 190 q 549 22 614 57 q 407 -14 483 -14 q 239 46 307 -14 l 239 0 l 35 0 l 35 74 l 136 74 l 136 724 l 38 724 l 38 796 l 239 796 l 239 497 q 329 544 281 528 q 425 560 378 560 m 389 63 q 529 117 475 63 q 583 272 583 172 q 531 425 583 369 q 397 481 479 481 q 317 465 358 481 q 239 421 275 450 l 239 118 q 312 77 272 92 q 389 63 351 63 z "},"ḃ":{"ha":725,"x_min":35,"x_max":690,"o":"m 425 560 q 560 527 500 560 q 656 431 621 494 q 690 281 690 368 q 652 124 690 190 q 549 22 614 57 q 407 -14 483 -14 q 239 46 307 -14 l 239 0 l 35 0 l 35 74 l 136 74 l 136 724 l 38 724 l 38 796 l 239 796 l 239 497 q 329 544 281 528 q 425 560 378 560 m 389 63 q 529 117 475 63 q 583 272 583 172 q 531 425 583 369 q 397 481 479 481 q 317 465 358 481 q 239 421 275 450 l 239 118 q 312 77 272 92 q 389 63 351 63 m 435 639 q 388 658 407 639 q 368 701 368 676 q 387 746 368 728 q 435 764 406 764 q 482 747 464 764 q 500 701 500 731 q 483 658 501 676 q 435 639 465 639 z "},"c":{"ha":651,"x_min":36,"x_max":589,"o":"m 346 481 q 200 424 257 481 q 143 279 143 367 q 199 126 143 185 q 343 67 254 67 q 456 92 410 67 q 544 167 501 118 l 588 104 q 481 17 544 49 q 333 -14 417 -14 q 180 24 247 -14 q 74 127 113 61 q 36 276 36 193 q 73 424 36 360 q 175 525 110 489 q 322 561 240 561 q 431 539 383 561 q 503 479 478 517 l 503 549 l 589 549 l 589 353 l 511 353 q 454 447 499 413 q 346 481 410 481 z "},"ć":{"ha":651,"x_min":36,"x_max":589,"o":"m 346 481 q 200 424 257 481 q 143 279 143 367 q 199 126 143 185 q 343 67 254 67 q 456 92 410 67 q 544 167 501 118 l 588 104 q 481 17 544 49 q 333 -14 417 -14 q 180 24 247 -14 q 74 127 113 61 q 36 276 36 193 q 73 424 36 360 q 175 525 110 489 q 322 561 240 561 q 431 539 383 561 q 503 479 478 517 l 503 549 l 589 549 l 589 353 l 511 353 q 454 447 499 413 q 346 481 410 481 m 381 864 l 497 864 l 372 663 l 307 663 l 381 864 z "},"č":{"ha":651,"x_min":36,"x_max":589,"o":"m 346 481 q 200 424 257 481 q 143 279 143 367 q 199 126 143 185 q 343 67 254 67 q 456 92 410 67 q 544 167 501 118 l 588 104 q 481 17 544 49 q 333 -14 417 -14 q 180 24 247 -14 q 74 127 113 61 q 36 276 36 193 q 73 424 36 360 q 175 525 110 489 q 322 561 240 561 q 431 539 383 561 q 503 479 478 517 l 503 549 l 589 549 l 589 353 l 511 353 q 454 447 499 413 q 346 481 410 481 m 178 832 l 251 832 l 340 681 l 426 832 l 499 832 l 389 622 l 290 622 l 178 832 z "},"ç":{"ha":651,"x_min":36,"x_max":589,"o":"m 346 481 q 200 424 257 481 q 143 279 143 367 q 199 126 143 185 q 343 67 254 67 q 456 92 410 67 q 544 167 501 118 l 588 104 q 353 -14 503 -6 l 335 -81 q 410 -109 385 -86 q 435 -164 435 -132 q 408 -224 435 -204 q 336 -243 381 -243 q 215 -217 276 -243 l 215 -176 q 294 -190 264 -190 q 347 -154 347 -190 q 268 -111 347 -115 l 306 -12 q 166 31 228 -7 q 70 133 104 69 q 36 276 36 197 q 73 424 36 360 q 175 525 110 489 q 322 561 240 561 q 431 539 383 561 q 503 479 478 517 l 503 549 l 589 549 l 589 353 l 511 353 q 454 447 499 413 q 346 481 410 481 z "},"ḉ":{"ha":651,"x_min":36,"x_max":589,"o":"m 372 663 l 307 663 l 381 864 l 497 864 l 372 663 m 346 481 q 200 424 257 481 q 143 279 143 367 q 199 126 143 185 q 343 67 254 67 q 456 92 410 67 q 544 167 501 118 l 588 104 q 353 -14 503 -6 l 335 -81 q 410 -109 385 -86 q 435 -164 435 -132 q 408 -224 435 -204 q 336 -243 381 -243 q 215 -217 276 -243 l 215 -176 q 294 -190 264 -190 q 347 -154 347 -190 q 268 -111 347 -115 l 306 -12 q 166 31 228 -7 q 70 133 104 69 q 36 276 36 197 q 73 424 36 360 q 175 525 110 489 q 322 561 240 561 q 431 539 383 561 q 503 479 478 517 l 503 549 l 589 549 l 589 353 l 511 353 q 454 447 499 413 q 346 481 410 481 z "},"ĉ":{"ha":651,"x_min":36,"x_max":589,"o":"m 346 481 q 200 424 257 481 q 143 279 143 367 q 199 126 143 185 q 343 67 254 67 q 456 92 410 67 q 544 167 501 118 l 588 104 q 481 17 544 49 q 333 -14 417 -14 q 180 24 247 -14 q 74 127 113 61 q 36 276 36 193 q 73 424 36 360 q 175 525 110 489 q 322 561 240 561 q 431 539 383 561 q 503 479 478 517 l 503 549 l 589 549 l 589 353 l 511 353 q 454 447 499 413 q 346 481 410 481 m 285 842 l 393 842 l 508 624 l 431 624 l 339 797 l 247 624 l 169 624 l 285 842 z "},"ċ":{"ha":651,"x_min":36,"x_max":589,"o":"m 346 481 q 200 424 257 481 q 143 279 143 367 q 199 126 143 185 q 343 67 254 67 q 456 92 410 67 q 544 167 501 118 l 588 104 q 481 17 544 49 q 333 -14 417 -14 q 180 24 247 -14 q 74 127 113 61 q 36 276 36 193 q 73 424 36 360 q 175 525 110 489 q 322 561 240 561 q 431 539 383 561 q 503 479 478 517 l 503 549 l 589 549 l 589 353 l 511 353 q 454 447 499 413 q 346 481 410 481 m 339 639 q 292 658 311 639 q 272 701 272 676 q 291 746 272 728 q 339 764 310 764 q 386 747 368 764 q 404 701 404 731 q 388 658 406 676 q 339 639 369 639 z "},"d":{"ha":713,"x_min":39,"x_max":681,"o":"m 681 74 l 681 0 l 492 0 l 492 39 q 318 -15 415 -15 q 178 19 242 -15 q 76 120 114 54 q 39 274 39 186 q 75 428 39 363 q 172 526 111 493 q 307 560 233 560 q 403 545 354 560 q 492 503 451 531 l 492 724 l 394 724 l 394 796 l 594 796 l 594 74 l 681 74 m 146 265 q 201 117 146 171 q 340 63 256 63 q 492 113 419 63 l 492 429 q 410 468 453 454 q 328 482 367 482 q 196 425 246 482 q 146 265 146 368 z "},"ð":{"ha":665,"x_min":58,"x_max":614,"o":"m 408 714 q 559 507 504 615 q 614 271 614 399 q 578 124 614 189 q 478 22 542 58 q 336 -14 415 -14 q 186 22 249 -14 q 91 120 124 58 q 58 258 58 182 q 90 401 58 338 q 183 499 122 464 q 325 535 243 535 q 418 519 379 535 q 475 486 457 503 q 329 678 429 581 l 154 600 l 124 663 l 275 731 q 108 867 203 796 l 158 929 q 356 765 283 832 l 532 844 l 564 783 l 408 714 m 336 68 q 473 127 426 68 q 519 271 519 186 q 470 409 519 358 q 336 460 421 460 q 205 405 253 460 q 157 260 157 350 q 205 124 157 181 q 336 68 253 68 z "},"ď":{"ha":769,"x_min":39,"x_max":783,"o":"m 681 74 l 681 0 l 492 0 l 492 39 q 318 -15 415 -15 q 178 19 242 -15 q 76 120 114 54 q 39 274 39 186 q 75 428 39 363 q 172 526 111 493 q 307 560 233 560 q 403 545 354 560 q 492 503 451 531 l 492 724 l 394 724 l 394 796 l 594 796 l 594 74 l 681 74 m 146 265 q 201 117 146 171 q 340 63 256 63 q 492 113 419 63 l 492 429 q 410 468 453 454 q 328 482 367 482 q 196 425 246 482 q 146 265 146 368 m 649 585 q 707 611 689 592 q 725 672 725 631 l 650 672 l 650 796 l 783 796 l 782 671 q 750 574 783 608 q 649 539 717 539 l 649 585 z "},"đ":{"ha":713,"x_min":39,"x_max":681,"o":"m 594 639 l 594 74 l 681 74 l 681 0 l 492 0 l 492 39 q 318 -15 415 -15 q 178 19 242 -15 q 76 120 114 54 q 39 274 39 186 q 75 428 39 363 q 172 526 111 493 q 307 560 233 560 q 403 545 354 560 q 492 503 451 531 l 492 639 l 333 639 l 333 701 l 492 701 l 492 797 l 594 797 l 594 701 l 681 701 l 681 639 l 594 639 m 146 265 q 201 117 146 171 q 340 63 256 63 q 492 113 419 63 l 492 429 q 410 468 453 454 q 328 482 367 482 q 196 425 246 482 q 146 265 146 368 z "},"ḋ":{"ha":713,"x_min":39,"x_max":681,"o":"m 681 74 l 681 0 l 492 0 l 492 39 q 318 -15 415 -15 q 178 19 242 -15 q 76 120 114 54 q 39 274 39 186 q 75 428 39 363 q 172 526 111 493 q 307 560 233 560 q 403 545 354 560 q 492 503 451 531 l 492 724 l 394 724 l 394 796 l 594 796 l 594 74 l 681 74 m 146 265 q 201 117 146 171 q 340 63 256 63 q 492 113 419 63 l 492 429 q 410 468 453 454 q 328 482 367 482 q 196 425 246 482 q 146 265 146 368 m 543 889 q 496 908 515 889 q 476 951 476 926 q 495 996 476 978 q 543 1014 514 1014 q 590 997 572 1014 q 608 951 608 981 q 592 908 610 926 q 543 889 574 889 z "},"ḍ":{"ha":713,"x_min":39,"x_max":681,"o":"m 681 74 l 681 0 l 492 0 l 492 39 q 318 -15 415 -15 q 178 19 242 -15 q 76 120 114 54 q 39 274 39 186 q 75 428 39 363 q 172 526 111 493 q 307 560 233 560 q 403 545 354 560 q 492 503 451 531 l 492 724 l 394 724 l 394 796 l 594 796 l 594 74 l 681 74 m 146 265 q 201 117 146 171 q 340 63 256 63 q 492 113 419 63 l 492 429 q 410 468 453 454 q 328 482 367 482 q 196 425 246 482 q 146 265 146 368 m 368 -194 q 321 -176 340 -194 q 301 -132 301 -157 q 320 -87 301 -106 q 368 -69 339 -69 q 415 -86 397 -69 q 433 -132 433 -103 q 417 -176 435 -157 q 368 -194 399 -194 z "},"ḏ":{"ha":713,"x_min":39,"x_max":681,"o":"m 681 74 l 681 0 l 492 0 l 492 39 q 318 -15 415 -15 q 178 19 242 -15 q 76 120 114 54 q 39 274 39 186 q 75 428 39 363 q 172 526 111 493 q 307 560 233 560 q 403 545 354 560 q 492 503 451 531 l 492 724 l 394 724 l 394 796 l 594 796 l 594 74 l 681 74 m 146 265 q 201 117 146 171 q 340 63 256 63 q 492 113 419 63 l 492 429 q 410 468 453 454 q 328 482 367 482 q 196 425 246 482 q 146 265 146 368 m 222 -51 l 514 -51 l 514 -114 l 222 -114 l 222 -51 z "},"ǳ":{"ha":1321,"x_min":39,"x_max":1263,"o":"m 681 74 l 681 0 l 492 0 l 492 39 q 318 -15 415 -15 q 178 19 242 -15 q 76 120 114 54 q 39 274 39 186 q 75 428 39 363 q 172 526 111 493 q 307 560 233 560 q 403 545 354 560 q 492 503 451 531 l 492 724 l 394 724 l 394 796 l 594 796 l 594 74 l 681 74 m 146 265 q 201 117 146 171 q 340 63 256 63 q 492 113 419 63 l 492 429 q 410 468 453 454 q 328 482 367 482 q 196 425 246 482 q 146 265 146 368 m 783 72 l 1135 475 l 868 475 l 868 363 l 790 363 l 790 546 l 1254 546 l 1254 469 l 903 69 l 1182 69 l 1182 194 l 1263 194 l 1263 0 l 783 0 l 783 72 z "},"ǆ":{"ha":1321,"x_min":39,"x_max":1263,"o":"m 681 74 l 681 0 l 492 0 l 492 39 q 318 -15 415 -15 q 178 19 242 -15 q 76 120 114 54 q 39 274 39 186 q 75 428 39 363 q 172 526 111 493 q 307 560 233 560 q 403 545 354 560 q 492 503 451 531 l 492 724 l 394 724 l 394 796 l 594 796 l 594 74 l 681 74 m 146 265 q 201 117 146 171 q 340 63 256 63 q 492 113 419 63 l 492 429 q 410 468 453 454 q 328 482 367 482 q 196 425 246 482 q 146 265 146 368 m 783 72 l 1135 475 l 868 475 l 868 363 l 790 363 l 790 546 l 1254 546 l 1254 469 l 903 69 l 1182 69 l 1182 194 l 1263 194 l 1263 0 l 783 0 l 783 72 m 868 832 l 942 832 l 1031 681 l 1117 832 l 1189 832 l 1079 622 l 981 622 l 868 832 z "},"e":{"ha":640,"x_min":35,"x_max":592,"o":"m 592 251 l 142 251 q 204 113 151 164 q 339 63 257 63 q 546 150 453 63 l 582 88 q 481 12 542 40 q 343 -17 419 -17 q 186 19 257 -17 q 75 122 115 56 q 35 272 35 188 q 73 424 35 358 q 177 526 111 490 q 324 561 243 561 q 520 485 449 561 q 592 278 592 408 l 592 251 m 490 315 q 444 440 490 394 q 324 486 397 486 q 201 440 251 486 q 142 315 151 394 l 490 315 z "},"é":{"ha":640,"x_min":35,"x_max":592,"o":"m 592 251 l 142 251 q 204 113 151 164 q 339 63 257 63 q 546 150 453 63 l 582 88 q 481 12 542 40 q 343 -17 419 -17 q 186 19 257 -17 q 75 122 115 56 q 35 272 35 188 q 73 424 35 358 q 177 526 111 490 q 324 561 243 561 q 520 485 449 561 q 592 278 592 408 l 592 251 m 490 315 q 444 440 490 394 q 324 486 397 486 q 201 440 251 486 q 142 315 151 394 l 490 315 m 369 864 l 486 864 l 361 663 l 296 663 l 369 864 z "},"ĕ":{"ha":640,"x_min":35,"x_max":592,"o":"m 592 251 l 142 251 q 204 113 151 164 q 339 63 257 63 q 546 150 453 63 l 582 88 q 481 12 542 40 q 343 -17 419 -17 q 186 19 257 -17 q 75 122 115 56 q 35 272 35 188 q 73 424 35 358 q 177 526 111 490 q 324 561 243 561 q 520 485 449 561 q 592 278 592 408 l 592 251 m 490 315 q 444 440 490 394 q 324 486 397 486 q 201 440 251 486 q 142 315 151 394 l 490 315 m 325 625 q 223 663 264 625 q 175 764 182 700 l 243 764 q 328 688 258 688 q 383 708 360 688 q 411 764 406 728 l 481 764 q 432 662 474 699 q 325 625 390 625 z "},"ě":{"ha":640,"x_min":35,"x_max":592,"o":"m 592 251 l 142 251 q 204 113 151 164 q 339 63 257 63 q 546 150 453 63 l 582 88 q 481 12 542 40 q 343 -17 419 -17 q 186 19 257 -17 q 75 122 115 56 q 35 272 35 188 q 73 424 35 358 q 177 526 111 490 q 324 561 243 561 q 520 485 449 561 q 592 278 592 408 l 592 251 m 490 315 q 444 440 490 394 q 324 486 397 486 q 201 440 251 486 q 142 315 151 394 l 490 315 m 167 832 l 240 832 l 329 681 l 415 832 l 488 832 l 378 622 l 279 622 l 167 832 z "},"ȩ":{"ha":640,"x_min":35,"x_max":592,"o":"m 592 251 l 142 251 q 204 113 151 164 q 339 63 257 63 q 546 150 453 63 l 582 88 q 483 13 542 42 q 349 -17 424 -15 l 331 -81 q 406 -109 381 -86 q 431 -164 431 -132 q 403 -224 431 -204 q 332 -243 376 -243 q 211 -217 272 -243 l 211 -176 q 290 -190 260 -190 q 343 -154 343 -190 q 264 -111 343 -115 l 301 -14 q 110 76 185 -1 q 35 272 35 154 q 73 424 35 358 q 177 526 111 490 q 324 561 243 561 q 520 485 449 561 q 592 278 592 408 l 592 251 m 490 315 q 444 440 490 394 q 324 486 397 486 q 201 440 251 486 q 142 315 151 394 l 490 315 z "},"ḝ":{"ha":640,"x_min":35,"x_max":592,"o":"m 325 625 q 223 663 264 625 q 175 764 182 700 l 243 764 q 328 688 258 688 q 383 708 360 688 q 411 764 406 728 l 481 764 q 432 662 474 699 q 325 625 390 625 m 592 251 l 142 251 q 204 113 151 164 q 339 63 257 63 q 546 150 453 63 l 582 88 q 483 13 542 42 q 349 -17 424 -15 l 331 -81 q 406 -109 381 -86 q 431 -164 431 -132 q 403 -224 431 -204 q 332 -243 376 -243 q 211 -217 272 -243 l 211 -176 q 290 -190 260 -190 q 343 -154 343 -190 q 264 -111 343 -115 l 301 -14 q 110 76 185 -1 q 35 272 35 154 q 73 424 35 358 q 177 526 111 490 q 324 561 243 561 q 520 485 449 561 q 592 278 592 408 l 592 251 m 490 315 q 444 440 490 394 q 324 486 397 486 q 201 440 251 486 q 142 315 151 394 l 490 315 z "},"ê":{"ha":640,"x_min":35,"x_max":592,"o":"m 592 251 l 142 251 q 204 113 151 164 q 339 63 257 63 q 546 150 453 63 l 582 88 q 481 12 542 40 q 343 -17 419 -17 q 186 19 257 -17 q 75 122 115 56 q 35 272 35 188 q 73 424 35 358 q 177 526 111 490 q 324 561 243 561 q 520 485 449 561 q 592 278 592 408 l 592 251 m 490 315 q 444 440 490 394 q 324 486 397 486 q 201 440 251 486 q 142 315 151 394 l 490 315 m 274 842 l 382 842 l 497 624 l 419 624 l 328 797 l 236 624 l 158 624 l 274 842 z "},"ế":{"ha":640,"x_min":35,"x_max":621,"o":"m 592 251 l 142 251 q 204 113 151 164 q 339 63 257 63 q 546 150 453 63 l 582 88 q 481 12 542 40 q 343 -17 419 -17 q 186 19 257 -17 q 75 122 115 56 q 35 272 35 188 q 73 424 35 358 q 177 526 111 490 q 324 561 243 561 q 520 485 449 561 q 592 278 592 408 l 592 251 m 490 315 q 444 440 490 394 q 324 486 397 486 q 201 440 251 486 q 142 315 151 394 l 490 315 m 518 910 l 621 910 l 524 750 l 458 750 l 518 910 m 274 800 l 382 800 l 497 624 l 419 624 l 328 756 l 236 624 l 158 624 l 274 800 z "},"ệ":{"ha":640,"x_min":35,"x_max":592,"o":"m 592 251 l 142 251 q 204 113 151 164 q 339 63 257 63 q 546 150 453 63 l 582 88 q 481 12 542 40 q 343 -17 419 -17 q 186 19 257 -17 q 75 122 115 56 q 35 272 35 188 q 73 424 35 358 q 177 526 111 490 q 324 561 243 561 q 520 485 449 561 q 592 278 592 408 l 592 251 m 490 315 q 444 440 490 394 q 324 486 397 486 q 201 440 251 486 q 142 315 151 394 l 490 315 m 329 -194 q 282 -176 301 -194 q 263 -132 263 -157 q 281 -87 263 -106 q 329 -69 300 -69 q 376 -86 358 -69 q 394 -132 394 -103 q 378 -176 396 -157 q 329 -194 360 -194 m 274 842 l 382 842 l 497 624 l 419 624 l 328 797 l 236 624 l 158 624 l 274 842 z "},"ề":{"ha":640,"x_min":35,"x_max":592,"o":"m 592 251 l 142 251 q 204 113 151 164 q 339 63 257 63 q 546 150 453 63 l 582 88 q 481 12 542 40 q 343 -17 419 -17 q 186 19 257 -17 q 75 122 115 56 q 35 272 35 188 q 73 424 35 358 q 177 526 111 490 q 324 561 243 561 q 520 485 449 561 q 592 278 592 408 l 592 251 m 490 315 q 444 440 490 394 q 324 486 397 486 q 201 440 251 486 q 142 315 151 394 l 490 315 m 486 750 l 389 910 l 492 910 l 551 750 l 486 750 m 274 800 l 382 800 l 497 624 l 419 624 l 328 756 l 236 624 l 158 624 l 274 800 z "},"ể":{"ha":640,"x_min":35,"x_max":592,"o":"m 592 251 l 142 251 q 204 113 151 164 q 339 63 257 63 q 546 150 453 63 l 582 88 q 481 12 542 40 q 343 -17 419 -17 q 186 19 257 -17 q 75 122 115 56 q 35 272 35 188 q 73 424 35 358 q 177 526 111 490 q 324 561 243 561 q 520 485 449 561 q 592 278 592 408 l 592 251 m 490 315 q 444 440 490 394 q 324 486 397 486 q 201 440 251 486 q 142 315 151 394 l 490 315 m 444 797 q 492 847 492 813 q 478 875 492 865 q 444 885 465 885 q 385 867 417 885 l 364 925 q 451 949 406 949 q 533 921 501 949 q 565 850 565 893 q 464 736 565 764 l 444 797 m 274 800 l 382 800 l 497 624 l 419 624 l 328 756 l 236 624 l 158 624 l 274 800 z "},"ễ":{"ha":640,"x_min":35,"x_max":592,"o":"m 592 251 l 142 251 q 204 113 151 164 q 339 63 257 63 q 546 150 453 63 l 582 88 q 481 12 542 40 q 343 -17 419 -17 q 186 19 257 -17 q 75 122 115 56 q 35 272 35 188 q 73 424 35 358 q 177 526 111 490 q 324 561 243 561 q 520 485 449 561 q 592 278 592 408 l 592 251 m 490 315 q 444 440 490 394 q 324 486 397 486 q 201 440 251 486 q 142 315 151 394 l 490 315 m 415 836 q 374 842 396 836 q 334 855 353 849 q 310 864 315 861 q 231 888 254 888 q 202 877 213 888 q 188 842 192 867 l 144 842 q 176 933 150 903 q 246 964 203 964 q 343 936 276 964 q 421 913 401 913 q 454 924 442 913 q 472 961 467 935 l 513 961 q 485 870 508 904 q 415 836 461 836 m 274 800 l 382 800 l 497 624 l 419 624 l 328 756 l 236 624 l 158 624 l 274 800 z "},"ȅ":{"ha":640,"x_min":35,"x_max":592,"o":"m 592 251 l 142 251 q 204 113 151 164 q 339 63 257 63 q 546 150 453 63 l 582 88 q 481 12 542 40 q 343 -17 419 -17 q 186 19 257 -17 q 75 122 115 56 q 35 272 35 188 q 73 424 35 358 q 177 526 111 490 q 324 561 243 561 q 520 485 449 561 q 592 278 592 408 l 592 251 m 490 315 q 444 440 490 394 q 324 486 397 486 q 201 440 251 486 q 142 315 151 394 l 490 315 m 54 874 l 171 874 l 250 663 l 185 663 l 54 874 m 243 874 l 360 874 l 438 663 l 372 663 l 243 874 z "},"ë":{"ha":640,"x_min":35,"x_max":592,"o":"m 592 251 l 142 251 q 204 113 151 164 q 339 63 257 63 q 546 150 453 63 l 582 88 q 481 12 542 40 q 343 -17 419 -17 q 186 19 257 -17 q 75 122 115 56 q 35 272 35 188 q 73 424 35 358 q 177 526 111 490 q 324 561 243 561 q 520 485 449 561 q 592 278 592 408 l 592 251 m 490 315 q 444 440 490 394 q 324 486 397 486 q 201 440 251 486 q 142 315 151 394 l 490 315 m 194 635 q 149 651 167 635 q 132 694 132 668 q 149 738 132 721 q 194 754 167 754 q 240 738 222 754 q 257 694 257 721 q 240 651 257 668 q 194 635 222 635 m 461 635 q 417 651 433 635 q 400 694 400 667 q 417 738 400 722 q 461 754 433 754 q 506 738 489 754 q 524 694 524 721 q 506 651 524 668 q 461 635 489 635 z "},"ė":{"ha":640,"x_min":35,"x_max":592,"o":"m 592 251 l 142 251 q 204 113 151 164 q 339 63 257 63 q 546 150 453 63 l 582 88 q 481 12 542 40 q 343 -17 419 -17 q 186 19 257 -17 q 75 122 115 56 q 35 272 35 188 q 73 424 35 358 q 177 526 111 490 q 324 561 243 561 q 520 485 449 561 q 592 278 592 408 l 592 251 m 490 315 q 444 440 490 394 q 324 486 397 486 q 201 440 251 486 q 142 315 151 394 l 490 315 m 328 639 q 281 658 300 639 q 261 701 261 676 q 280 746 261 728 q 328 764 299 764 q 375 747 357 764 q 393 701 393 731 q 376 658 394 676 q 328 639 358 639 z "},"ẹ":{"ha":640,"x_min":35,"x_max":592,"o":"m 592 251 l 142 251 q 204 113 151 164 q 339 63 257 63 q 546 150 453 63 l 582 88 q 481 12 542 40 q 343 -17 419 -17 q 186 19 257 -17 q 75 122 115 56 q 35 272 35 188 q 73 424 35 358 q 177 526 111 490 q 324 561 243 561 q 520 485 449 561 q 592 278 592 408 l 592 251 m 490 315 q 444 440 490 394 q 324 486 397 486 q 201 440 251 486 q 142 315 151 394 l 490 315 m 329 -194 q 282 -176 301 -194 q 263 -132 263 -157 q 281 -87 263 -106 q 329 -69 300 -69 q 376 -86 358 -69 q 394 -132 394 -103 q 378 -176 396 -157 q 329 -194 360 -194 z "},"è":{"ha":640,"x_min":35,"x_max":592,"o":"m 592 251 l 142 251 q 204 113 151 164 q 339 63 257 63 q 546 150 453 63 l 582 88 q 481 12 542 40 q 343 -17 419 -17 q 186 19 257 -17 q 75 122 115 56 q 35 272 35 188 q 73 424 35 358 q 177 526 111 490 q 324 561 243 561 q 520 485 449 561 q 592 278 592 408 l 592 251 m 490 315 q 444 440 490 394 q 324 486 397 486 q 201 440 251 486 q 142 315 151 394 l 490 315 m 169 864 l 286 864 l 360 663 l 294 663 l 169 864 z "},"ẻ":{"ha":640,"x_min":35,"x_max":592,"o":"m 592 251 l 142 251 q 204 113 151 164 q 339 63 257 63 q 546 150 453 63 l 582 88 q 481 12 542 40 q 343 -17 419 -17 q 186 19 257 -17 q 75 122 115 56 q 35 272 35 188 q 73 424 35 358 q 177 526 111 490 q 324 561 243 561 q 520 485 449 561 q 592 278 592 408 l 592 251 m 490 315 q 444 440 490 394 q 324 486 397 486 q 201 440 251 486 q 142 315 151 394 l 490 315 m 308 667 q 356 717 356 682 q 342 744 356 735 q 308 754 329 754 q 249 736 281 754 l 228 794 q 315 818 269 818 q 397 790 365 818 q 429 719 429 763 q 328 606 429 633 l 308 667 z "},"ȇ":{"ha":640,"x_min":35,"x_max":592,"o":"m 592 251 l 142 251 q 204 113 151 164 q 339 63 257 63 q 546 150 453 63 l 582 88 q 481 12 542 40 q 343 -17 419 -17 q 186 19 257 -17 q 75 122 115 56 q 35 272 35 188 q 73 424 35 358 q 177 526 111 490 q 324 561 243 561 q 520 485 449 561 q 592 278 592 408 l 592 251 m 490 315 q 444 440 490 394 q 324 486 397 486 q 201 440 251 486 q 142 315 151 394 l 490 315 m 165 625 q 216 733 172 693 q 328 774 260 774 q 438 733 394 774 q 489 625 482 693 l 407 625 q 380 678 400 660 q 328 696 360 696 q 247 625 260 696 l 165 625 z "},"ē":{"ha":640,"x_min":35,"x_max":592,"o":"m 592 251 l 142 251 q 204 113 151 164 q 339 63 257 63 q 546 150 453 63 l 582 88 q 481 12 542 40 q 343 -17 419 -17 q 186 19 257 -17 q 75 122 115 56 q 35 272 35 188 q 73 424 35 358 q 177 526 111 490 q 324 561 243 561 q 520 485 449 561 q 592 278 592 408 l 592 251 m 490 315 q 444 440 490 394 q 324 486 397 486 q 201 440 251 486 q 142 315 151 394 l 490 315 m 182 719 l 474 719 l 474 657 l 182 657 l 182 719 z "},"ḗ":{"ha":640,"x_min":35,"x_max":592,"o":"m 592 251 l 142 251 q 204 113 151 164 q 339 63 257 63 q 546 150 453 63 l 582 88 q 481 12 542 40 q 343 -17 419 -17 q 186 19 257 -17 q 75 122 115 56 q 35 272 35 188 q 73 424 35 358 q 177 526 111 490 q 324 561 243 561 q 520 485 449 561 q 592 278 592 408 l 592 251 m 490 315 q 444 440 490 394 q 324 486 397 486 q 201 440 251 486 q 142 315 151 394 l 490 315 m 182 719 l 474 719 l 474 657 l 182 657 l 182 719 m 369 1022 l 486 1022 l 361 821 l 296 821 l 369 1022 z "},"ḕ":{"ha":640,"x_min":35,"x_max":592,"o":"m 592 251 l 142 251 q 204 113 151 164 q 339 63 257 63 q 546 150 453 63 l 582 88 q 481 12 542 40 q 343 -17 419 -17 q 186 19 257 -17 q 75 122 115 56 q 35 272 35 188 q 73 424 35 358 q 177 526 111 490 q 324 561 243 561 q 520 485 449 561 q 592 278 592 408 l 592 251 m 490 315 q 444 440 490 394 q 324 486 397 486 q 201 440 251 486 q 142 315 151 394 l 490 315 m 182 719 l 474 719 l 474 657 l 182 657 l 182 719 m 169 1022 l 286 1022 l 360 821 l 294 821 l 169 1022 z "},"ę":{"ha":640,"x_min":35,"x_max":592,"o":"m 592 251 l 142 251 q 204 113 151 164 q 339 63 257 63 q 546 150 453 63 l 582 88 q 490 17 544 44 q 367 -15 436 -11 q 326 -103 326 -67 q 344 -147 326 -132 q 392 -162 363 -162 q 453 -144 422 -162 l 453 -200 q 410 -220 429 -214 q 367 -226 390 -226 q 288 -198 319 -226 q 256 -124 256 -169 q 306 -15 256 -69 q 167 31 228 -7 q 70 131 106 68 q 35 272 35 193 q 73 424 35 358 q 177 526 111 490 q 324 561 243 561 q 520 485 449 561 q 592 278 592 408 l 592 251 m 490 315 q 444 440 490 394 q 324 486 397 486 q 201 440 251 486 q 142 315 151 394 l 490 315 z "},"ẽ":{"ha":640,"x_min":35,"x_max":592,"o":"m 592 251 l 142 251 q 204 113 151 164 q 339 63 257 63 q 546 150 453 63 l 582 88 q 481 12 542 40 q 343 -17 419 -17 q 186 19 257 -17 q 75 122 115 56 q 35 272 35 188 q 73 424 35 358 q 177 526 111 490 q 324 561 243 561 q 520 485 449 561 q 592 278 592 408 l 592 251 m 490 315 q 444 440 490 394 q 324 486 397 486 q 201 440 251 486 q 142 315 151 394 l 490 315 m 415 653 q 374 659 396 653 q 334 672 353 665 q 310 681 315 678 q 231 704 254 704 q 202 694 213 704 q 188 658 192 683 l 144 658 q 176 750 150 719 q 246 781 203 781 q 343 753 276 781 q 421 729 401 729 q 454 740 442 729 q 472 778 467 751 l 513 778 q 485 687 508 721 q 415 653 461 653 z "},"ə":{"ha":640,"x_min":49,"x_max":606,"o":"m 310 563 q 460 527 393 563 q 567 426 528 492 q 606 278 606 361 q 568 124 606 190 q 466 21 531 57 q 322 -15 401 -15 q 122 62 196 -15 q 49 268 49 139 l 49 294 l 499 294 q 442 433 492 382 q 314 483 392 483 q 194 460 250 483 q 94 396 139 436 l 58 458 q 167 533 103 504 q 310 563 231 563 m 326 60 q 442 106 394 60 q 499 231 489 151 l 150 231 q 199 106 150 151 q 326 60 249 60 z "},"f":{"ha":439,"x_min":57,"x_max":481,"o":"m 57 74 l 165 74 l 165 472 l 58 472 l 58 546 l 165 546 l 165 663 q 206 784 165 740 q 329 828 247 828 q 434 797 392 828 q 481 700 476 767 l 401 678 q 380 736 394 717 q 333 756 365 756 q 268 661 268 756 l 268 546 l 435 546 l 435 472 l 268 472 l 268 74 l 408 74 l 408 0 l 57 0 l 57 74 z "},"ḟ":{"ha":439,"x_min":57,"x_max":481,"o":"m 57 74 l 165 74 l 165 472 l 58 472 l 58 546 l 165 546 l 165 663 q 206 784 165 740 q 329 828 247 828 q 434 797 392 828 q 481 700 476 767 l 401 678 q 380 736 394 717 q 333 756 365 756 q 268 661 268 756 l 268 546 l 435 546 l 435 472 l 268 472 l 268 74 l 408 74 l 408 0 l 57 0 l 57 74 m 329 907 q 282 926 301 907 q 263 969 263 944 q 281 1014 263 996 q 329 1032 300 1032 q 376 1015 358 1032 q 394 969 394 999 q 378 926 396 944 q 329 907 360 907 z "},"g":{"ha":713,"x_min":43,"x_max":699,"o":"m 699 546 l 699 472 l 607 472 l 607 -12 q 531 -200 607 -139 q 326 -261 454 -261 q 121 -228 229 -261 l 142 -147 q 324 -179 247 -179 q 457 -140 410 -179 q 504 -19 504 -100 l 504 56 q 417 11 465 26 q 322 -4 369 -4 q 181 30 244 -4 q 80 128 117 64 q 43 278 43 192 q 79 430 43 367 q 178 526 115 493 q 319 558 242 558 q 417 542 367 558 q 503 497 467 526 l 503 546 l 699 546 m 150 271 q 204 125 150 178 q 343 72 258 72 q 426 86 383 72 q 504 126 468 100 l 503 426 q 417 468 463 453 q 332 483 372 483 q 200 427 250 483 q 150 271 150 371 z "},"ǵ":{"ha":713,"x_min":43,"x_max":699,"o":"m 699 546 l 699 472 l 607 472 l 607 -12 q 531 -200 607 -139 q 326 -261 454 -261 q 121 -228 229 -261 l 142 -147 q 324 -179 247 -179 q 457 -140 410 -179 q 504 -19 504 -100 l 504 56 q 417 11 465 26 q 322 -4 369 -4 q 181 30 244 -4 q 80 128 117 64 q 43 278 43 192 q 79 430 43 367 q 178 526 115 493 q 319 558 242 558 q 417 542 367 558 q 503 497 467 526 l 503 546 l 699 546 m 150 271 q 204 125 150 178 q 343 72 258 72 q 426 86 383 72 q 504 126 468 100 l 503 426 q 417 468 463 453 q 332 483 372 483 q 200 427 250 483 q 150 271 150 371 m 383 864 l 500 864 l 375 663 l 310 663 l 383 864 z "},"ğ":{"ha":713,"x_min":43,"x_max":699,"o":"m 699 546 l 699 472 l 607 472 l 607 -12 q 531 -200 607 -139 q 326 -261 454 -261 q 121 -228 229 -261 l 142 -147 q 324 -179 247 -179 q 457 -140 410 -179 q 504 -19 504 -100 l 504 56 q 417 11 465 26 q 322 -4 369 -4 q 181 30 244 -4 q 80 128 117 64 q 43 278 43 192 q 79 430 43 367 q 178 526 115 493 q 319 558 242 558 q 417 542 367 558 q 503 497 467 526 l 503 546 l 699 546 m 150 271 q 204 125 150 178 q 343 72 258 72 q 426 86 383 72 q 504 126 468 100 l 503 426 q 417 468 463 453 q 332 483 372 483 q 200 427 250 483 q 150 271 150 371 m 339 625 q 237 663 278 625 q 189 764 196 700 l 257 764 q 342 688 272 688 q 397 708 374 688 q 425 764 419 728 l 494 764 q 446 662 488 699 q 339 625 404 625 z "},"ǧ":{"ha":713,"x_min":43,"x_max":699,"o":"m 699 546 l 699 472 l 607 472 l 607 -12 q 531 -200 607 -139 q 326 -261 454 -261 q 121 -228 229 -261 l 142 -147 q 324 -179 247 -179 q 457 -140 410 -179 q 504 -19 504 -100 l 504 56 q 417 11 465 26 q 322 -4 369 -4 q 181 30 244 -4 q 80 128 117 64 q 43 278 43 192 q 79 430 43 367 q 178 526 115 493 q 319 558 242 558 q 417 542 367 558 q 503 497 467 526 l 503 546 l 699 546 m 150 271 q 204 125 150 178 q 343 72 258 72 q 426 86 383 72 q 504 126 468 100 l 503 426 q 417 468 463 453 q 332 483 372 483 q 200 427 250 483 q 150 271 150 371 m 181 832 l 254 832 l 343 681 l 429 832 l 501 832 l 392 622 l 293 622 l 181 832 z "},"ĝ":{"ha":713,"x_min":43,"x_max":699,"o":"m 699 546 l 699 472 l 607 472 l 607 -12 q 531 -200 607 -139 q 326 -261 454 -261 q 121 -228 229 -261 l 142 -147 q 324 -179 247 -179 q 457 -140 410 -179 q 504 -19 504 -100 l 504 56 q 417 11 465 26 q 322 -4 369 -4 q 181 30 244 -4 q 80 128 117 64 q 43 278 43 192 q 79 430 43 367 q 178 526 115 493 q 319 558 242 558 q 417 542 367 558 q 503 497 467 526 l 503 546 l 699 546 m 150 271 q 204 125 150 178 q 343 72 258 72 q 426 86 383 72 q 504 126 468 100 l 503 426 q 417 468 463 453 q 332 483 372 483 q 200 427 250 483 q 150 271 150 371 m 288 842 l 396 842 l 511 624 l 433 624 l 342 797 l 250 624 l 172 624 l 288 842 z "},"ģ":{"ha":713,"x_min":43,"x_max":699,"o":"m 699 546 l 699 472 l 607 472 l 607 -12 q 531 -200 607 -139 q 326 -261 454 -261 q 121 -228 229 -261 l 142 -147 q 324 -179 247 -179 q 457 -140 410 -179 q 504 -19 504 -100 l 504 56 q 417 11 465 26 q 322 -4 369 -4 q 181 30 244 -4 q 80 128 117 64 q 43 278 43 192 q 79 430 43 367 q 178 526 115 493 q 319 558 242 558 q 417 542 367 558 q 503 497 467 526 l 503 546 l 699 546 m 150 271 q 204 125 150 178 q 343 72 258 72 q 426 86 383 72 q 504 126 468 100 l 503 426 q 417 468 463 453 q 332 483 372 483 q 200 427 250 483 q 150 271 150 371 m 408 867 q 349 837 368 860 q 331 774 331 814 l 406 774 l 406 653 l 274 653 l 274 776 q 307 876 274 840 q 408 911 340 911 l 408 867 z "},"ġ":{"ha":713,"x_min":43,"x_max":699,"o":"m 699 546 l 699 472 l 607 472 l 607 -12 q 531 -200 607 -139 q 326 -261 454 -261 q 121 -228 229 -261 l 142 -147 q 324 -179 247 -179 q 457 -140 410 -179 q 504 -19 504 -100 l 504 56 q 417 11 465 26 q 322 -4 369 -4 q 181 30 244 -4 q 80 128 117 64 q 43 278 43 192 q 79 430 43 367 q 178 526 115 493 q 319 558 242 558 q 417 542 367 558 q 503 497 467 526 l 503 546 l 699 546 m 150 271 q 204 125 150 178 q 343 72 258 72 q 426 86 383 72 q 504 126 468 100 l 503 426 q 417 468 463 453 q 332 483 372 483 q 200 427 250 483 q 150 271 150 371 m 342 639 q 294 658 314 639 q 275 701 275 676 q 294 746 275 728 q 342 764 313 764 q 389 747 371 764 q 407 701 407 731 q 390 658 408 676 q 342 639 372 639 z "},"ḡ":{"ha":713,"x_min":43,"x_max":699,"o":"m 699 546 l 699 472 l 607 472 l 607 -12 q 531 -200 607 -139 q 326 -261 454 -261 q 121 -228 229 -261 l 142 -147 q 324 -179 247 -179 q 457 -140 410 -179 q 504 -19 504 -100 l 504 56 q 417 11 465 26 q 322 -4 369 -4 q 181 30 244 -4 q 80 128 117 64 q 43 278 43 192 q 79 430 43 367 q 178 526 115 493 q 319 558 242 558 q 417 542 367 558 q 503 497 467 526 l 503 546 l 699 546 m 150 271 q 204 125 150 178 q 343 72 258 72 q 426 86 383 72 q 504 126 468 100 l 503 426 q 417 468 463 453 q 332 483 372 483 q 200 427 250 483 q 150 271 150 371 m 196 719 l 488 719 l 488 657 l 196 657 l 196 719 z "},"h":{"ha":724,"x_min":17,"x_max":707,"o":"m 707 74 l 707 0 l 414 0 l 414 74 l 504 74 l 504 358 q 477 447 504 415 q 401 479 450 479 q 221 415 318 479 l 221 74 l 310 74 l 310 0 l 17 0 l 17 74 l 118 74 l 118 724 l 18 724 l 18 796 l 221 796 l 221 485 q 426 560 333 560 q 556 512 504 560 q 607 378 607 464 l 607 74 l 707 74 z "},"ħ":{"ha":724,"x_min":17,"x_max":707,"o":"m 707 74 l 707 0 l 414 0 l 414 74 l 504 74 l 504 358 q 477 447 504 415 q 401 479 450 479 q 221 415 318 479 l 221 74 l 310 74 l 310 0 l 17 0 l 17 74 l 118 74 l 118 724 l 18 724 l 18 796 l 221 796 l 221 485 q 426 560 333 560 q 556 512 504 560 q 607 378 607 464 l 607 74 l 707 74 m 24 971 l 315 971 l 315 908 l 24 908 l 24 971 z "},"ḫ":{"ha":724,"x_min":17,"x_max":707,"o":"m 707 74 l 707 0 l 414 0 l 414 74 l 504 74 l 504 358 q 477 447 504 415 q 401 479 450 479 q 221 415 318 479 l 221 74 l 310 74 l 310 0 l 17 0 l 17 74 l 118 74 l 118 724 l 18 724 l 18 796 l 221 796 l 221 485 q 426 560 333 560 q 556 512 504 560 q 607 378 607 464 l 607 74 l 707 74 m 360 -208 q 258 -171 299 -208 q 210 -69 217 -133 l 278 -69 q 363 -146 293 -146 q 417 -126 394 -146 q 446 -69 440 -106 l 515 -69 q 467 -172 508 -135 q 360 -208 425 -208 z "},"ȟ":{"ha":724,"x_min":8,"x_max":707,"o":"m 707 74 l 707 0 l 414 0 l 414 74 l 504 74 l 504 358 q 477 447 504 415 q 401 479 450 479 q 221 415 318 479 l 221 74 l 310 74 l 310 0 l 17 0 l 17 74 l 118 74 l 118 724 l 18 724 l 18 796 l 221 796 l 221 485 q 426 560 333 560 q 556 512 504 560 q 607 378 607 464 l 607 74 l 707 74 m 8 1083 l 82 1083 l 171 932 l 257 1083 l 329 1083 l 219 874 l 121 874 l 8 1083 z "},"ĥ":{"ha":724,"x_min":0,"x_max":707,"o":"m 707 74 l 707 0 l 414 0 l 414 74 l 504 74 l 504 358 q 477 447 504 415 q 401 479 450 479 q 221 415 318 479 l 221 74 l 310 74 l 310 0 l 17 0 l 17 74 l 118 74 l 118 724 l 18 724 l 18 796 l 221 796 l 221 485 q 426 560 333 560 q 556 512 504 560 q 607 378 607 464 l 607 74 l 707 74 m 115 1093 l 224 1093 l 339 875 l 261 875 l 169 1049 l 78 875 l 0 875 l 115 1093 z "},"ḥ":{"ha":724,"x_min":17,"x_max":707,"o":"m 707 74 l 707 0 l 414 0 l 414 74 l 504 74 l 504 358 q 477 447 504 415 q 401 479 450 479 q 221 415 318 479 l 221 74 l 310 74 l 310 0 l 17 0 l 17 74 l 118 74 l 118 724 l 18 724 l 18 796 l 221 796 l 221 485 q 426 560 333 560 q 556 512 504 560 q 607 378 607 464 l 607 74 l 707 74 m 363 -194 q 315 -176 335 -194 q 296 -132 296 -157 q 315 -87 296 -106 q 363 -69 333 -69 q 410 -86 392 -69 q 428 -132 428 -103 q 411 -176 429 -157 q 363 -194 393 -194 z "},"i":{"ha":371,"x_min":31,"x_max":336,"o":"m 174 665 q 120 685 142 665 q 99 736 99 706 q 120 787 99 767 q 174 807 142 807 q 227 787 206 807 q 249 736 249 767 q 227 685 249 706 q 174 665 206 665 m 31 74 l 136 74 l 136 472 l 32 472 l 32 546 l 238 546 l 238 74 l 336 74 l 336 0 l 31 0 l 31 74 z "},"ı":{"ha":371,"x_min":31,"x_max":336,"o":"m 31 74 l 136 74 l 136 472 l 32 472 l 32 546 l 238 546 l 238 74 l 336 74 l 336 0 l 31 0 l 31 74 z "},"í":{"ha":371,"x_min":31,"x_max":336,"o":"m 31 74 l 136 74 l 136 472 l 32 472 l 32 546 l 238 546 l 238 74 l 336 74 l 336 0 l 31 0 l 31 74 m 215 864 l 332 864 l 207 663 l 142 663 l 215 864 z "},"ĭ":{"ha":371,"x_min":21,"x_max":336,"o":"m 31 74 l 136 74 l 136 472 l 32 472 l 32 546 l 238 546 l 238 74 l 336 74 l 336 0 l 31 0 l 31 74 m 171 625 q 69 663 110 625 q 21 764 28 700 l 89 764 q 174 688 104 688 q 228 708 206 688 q 257 764 251 728 l 326 764 q 278 662 319 699 q 171 625 236 625 z "},"ǐ":{"ha":371,"x_min":13,"x_max":336,"o":"m 31 74 l 136 74 l 136 472 l 32 472 l 32 546 l 238 546 l 238 74 l 336 74 l 336 0 l 31 0 l 31 74 m 13 832 l 86 832 l 175 681 l 261 832 l 333 832 l 224 622 l 125 622 l 13 832 z "},"î":{"ha":371,"x_min":4,"x_max":343,"o":"m 31 74 l 136 74 l 136 472 l 32 472 l 32 546 l 238 546 l 238 74 l 336 74 l 336 0 l 31 0 l 31 74 m 119 842 l 228 842 l 343 624 l 265 624 l 174 797 l 82 624 l 4 624 l 119 842 z "},"ȉ":{"ha":371,"x_min":-100,"x_max":336,"o":"m 31 74 l 136 74 l 136 472 l 32 472 l 32 546 l 238 546 l 238 74 l 336 74 l 336 0 l 31 0 l 31 74 m -100 874 l 17 874 l 96 663 l 31 663 l -100 874 m 89 874 l 206 874 l 283 663 l 218 663 l 89 874 z "},"ï":{"ha":371,"x_min":-22,"x_max":369,"o":"m 31 74 l 136 74 l 136 472 l 32 472 l 32 546 l 238 546 l 238 74 l 336 74 l 336 0 l 31 0 l 31 74 m 40 635 q -5 651 13 635 q -22 694 -22 668 q -5 738 -22 721 q 40 754 13 754 q 85 738 68 754 q 103 694 103 721 q 85 651 103 668 q 40 635 68 635 m 307 635 q 263 651 279 635 q 246 694 246 667 q 263 738 246 722 q 307 754 279 754 q 352 738 335 754 q 369 694 369 721 q 352 651 369 668 q 307 635 335 635 z "},"ḯ":{"ha":371,"x_min":-22,"x_max":369,"o":"m 31 74 l 136 74 l 136 472 l 32 472 l 32 546 l 238 546 l 238 74 l 336 74 l 336 0 l 31 0 l 31 74 m 40 635 q -5 651 13 635 q -22 694 -22 668 q -5 738 -22 721 q 40 754 13 754 q 85 738 68 754 q 103 694 103 721 q 85 651 103 668 q 40 635 68 635 m 307 635 q 263 651 279 635 q 246 694 246 667 q 263 738 246 722 q 307 754 279 754 q 352 738 335 754 q 369 694 369 721 q 352 651 369 668 q 307 635 335 635 m 215 1072 l 332 1072 l 207 871 l 142 871 l 215 1072 z "},"ị":{"ha":371,"x_min":31,"x_max":336,"o":"m 174 665 q 120 685 142 665 q 99 736 99 706 q 120 787 99 767 q 174 807 142 807 q 227 787 206 807 q 249 736 249 767 q 227 685 249 706 q 174 665 206 665 m 31 74 l 136 74 l 136 472 l 32 472 l 32 546 l 238 546 l 238 74 l 336 74 l 336 0 l 31 0 l 31 74 m 188 -194 q 140 -176 160 -194 q 121 -132 121 -157 q 140 -87 121 -106 q 188 -69 158 -69 q 235 -86 217 -69 q 253 -132 253 -103 q 236 -176 254 -157 q 188 -194 218 -194 z "},"ì":{"ha":371,"x_min":15,"x_max":336,"o":"m 31 74 l 136 74 l 136 472 l 32 472 l 32 546 l 238 546 l 238 74 l 336 74 l 336 0 l 31 0 l 31 74 m 15 864 l 132 864 l 206 663 l 140 663 l 15 864 z "},"ỉ":{"ha":371,"x_min":31,"x_max":336,"o":"m 31 74 l 136 74 l 136 472 l 32 472 l 32 546 l 238 546 l 238 74 l 336 74 l 336 0 l 31 0 l 31 74 m 154 667 q 201 717 201 682 q 188 744 201 735 q 154 754 175 754 q 94 736 126 754 l 74 794 q 161 818 115 818 q 243 790 211 818 q 275 719 275 763 q 174 606 275 633 l 154 667 z "},"ȋ":{"ha":371,"x_min":11,"x_max":336,"o":"m 31 74 l 136 74 l 136 472 l 32 472 l 32 546 l 238 546 l 238 74 l 336 74 l 336 0 l 31 0 l 31 74 m 11 625 q 62 733 18 693 q 174 774 106 774 q 284 733 240 774 q 335 625 328 693 l 253 625 q 226 678 246 660 q 174 696 206 696 q 93 625 106 696 l 11 625 z "},"ĳ":{"ha":717,"x_min":31,"x_max":632,"o":"m 174 665 q 120 685 142 665 q 99 736 99 706 q 120 787 99 767 q 174 807 142 807 q 227 787 206 807 q 249 736 249 767 q 227 685 249 706 q 174 665 206 665 m 31 74 l 136 74 l 136 472 l 32 472 l 32 546 l 238 546 l 238 74 l 336 74 l 336 0 l 31 0 l 31 74 m 557 665 q 503 686 525 665 q 482 738 482 707 q 503 787 482 767 q 557 807 525 807 q 610 787 589 807 q 632 738 632 767 q 610 686 632 707 q 557 665 589 665 m 378 -131 l 436 -131 q 508 -106 490 -131 q 526 -19 526 -81 l 526 472 l 415 472 l 415 546 l 631 546 l 631 6 q 618 -112 631 -67 q 563 -184 606 -157 q 438 -211 521 -211 l 378 -211 l 378 -131 z "},"ī":{"ha":371,"x_min":28,"x_max":336,"o":"m 31 74 l 136 74 l 136 472 l 32 472 l 32 546 l 238 546 l 238 74 l 336 74 l 336 0 l 31 0 l 31 74 m 28 719 l 319 719 l 319 657 l 28 657 l 28 719 z "},"į":{"ha":371,"x_min":31,"x_max":336,"o":"m 31 74 l 136 74 l 136 472 l 32 472 l 32 546 l 238 546 l 238 74 l 336 74 l 336 0 l 31 0 l 31 74 m 165 -235 q 86 -206 118 -235 q 54 -132 54 -178 q 72 -67 54 -99 q 128 0 90 -35 l 188 0 q 125 -111 125 -65 q 143 -156 125 -140 q 190 -171 161 -171 q 251 -153 221 -171 l 251 -208 q 208 -228 228 -222 q 165 -235 189 -235 m 174 639 q 126 658 146 639 q 107 701 107 676 q 126 746 107 728 q 174 764 144 764 q 221 747 203 764 q 239 701 239 731 q 222 658 240 676 q 174 639 204 639 z "},"ĩ":{"ha":371,"x_min":-10,"x_max":358,"o":"m 31 74 l 136 74 l 136 472 l 32 472 l 32 546 l 238 546 l 238 74 l 336 74 l 336 0 l 31 0 l 31 74 m 261 653 q 220 659 242 653 q 180 672 199 665 q 156 681 161 678 q 76 704 100 704 q 48 694 58 704 q 33 658 38 683 l -10 658 q 22 750 -4 719 q 92 781 49 781 q 189 753 122 781 q 267 729 247 729 q 300 740 288 729 q 318 778 313 751 l 358 778 q 331 687 354 721 q 261 653 307 653 z "},"j":{"ha":346,"x_min":7,"x_max":261,"o":"m 186 665 q 133 686 154 665 q 111 738 111 707 q 133 787 111 767 q 186 807 154 807 q 240 787 218 807 q 261 738 261 767 q 240 686 261 707 q 186 665 218 665 m 7 -131 l 65 -131 q 138 -106 119 -131 q 156 -19 156 -81 l 156 472 l 44 472 l 44 546 l 260 546 l 260 6 q 247 -112 260 -67 q 192 -184 235 -157 q 67 -211 150 -211 l 7 -211 l 7 -131 z "},"ȷ":{"ha":343,"x_min":7,"x_max":258,"o":"m 7 -131 l 65 -131 q 138 -105 121 -131 q 156 -14 156 -79 l 156 472 l 42 472 l 42 546 l 258 546 l 258 15 q 248 -107 258 -61 q 196 -182 238 -153 q 67 -211 154 -211 l 7 -211 l 7 -131 z "},"ǰ":{"ha":343,"x_min":3,"x_max":324,"o":"m 7 -131 l 65 -131 q 138 -105 121 -131 q 156 -14 156 -79 l 156 472 l 42 472 l 42 546 l 258 546 l 258 15 q 248 -107 258 -61 q 196 -182 238 -153 q 67 -211 154 -211 l 7 -211 l 7 -131 m 3 832 l 76 832 l 165 681 l 251 832 l 324 832 l 214 622 l 115 622 l 3 832 z "},"ĵ":{"ha":343,"x_min":-6,"x_max":333,"o":"m 7 -131 l 65 -131 q 138 -105 121 -131 q 156 -14 156 -79 l 156 472 l 42 472 l 42 546 l 258 546 l 258 15 q 248 -107 258 -61 q 196 -182 238 -153 q 67 -211 154 -211 l 7 -211 l 7 -131 m 110 842 l 218 842 l 333 624 l 256 624 l 164 797 l 72 624 l -6 624 l 110 842 z "},"k":{"ha":692,"x_min":36,"x_max":669,"o":"m 36 74 l 139 74 l 139 724 l 39 724 l 39 796 l 242 796 l 242 292 l 478 472 l 376 472 l 376 546 l 667 546 l 667 472 l 583 472 l 347 285 l 561 74 l 669 74 l 669 0 l 510 0 l 242 268 l 242 74 l 331 74 l 331 0 l 36 0 l 36 74 z "},"ǩ":{"ha":692,"x_min":29,"x_max":669,"o":"m 36 74 l 139 74 l 139 724 l 39 724 l 39 796 l 242 796 l 242 292 l 478 472 l 376 472 l 376 546 l 667 546 l 667 472 l 583 472 l 347 285 l 561 74 l 669 74 l 669 0 l 510 0 l 242 268 l 242 74 l 331 74 l 331 0 l 36 0 l 36 74 m 29 1082 l 103 1082 l 192 931 l 278 1082 l 350 1082 l 240 872 l 142 872 l 29 1082 z "},"ķ":{"ha":692,"x_min":36,"x_max":669,"o":"m 36 74 l 139 74 l 139 724 l 39 724 l 39 796 l 242 796 l 242 292 l 478 472 l 376 472 l 376 546 l 667 546 l 667 472 l 583 472 l 347 285 l 561 74 l 669 74 l 669 0 l 510 0 l 242 268 l 242 74 l 331 74 l 331 0 l 36 0 l 36 74 m 304 -283 q 363 -253 344 -276 q 382 -190 382 -231 l 307 -190 l 307 -69 l 439 -69 l 439 -193 q 406 -292 439 -257 q 304 -328 372 -328 l 304 -283 z "},"ĸ":{"ha":724,"x_min":53,"x_max":700,"o":"m 700 74 l 700 0 l 554 0 l 256 260 l 256 74 l 335 74 l 335 0 l 53 0 l 53 74 l 153 74 l 153 472 l 54 472 l 54 546 l 256 546 l 256 276 l 486 472 l 392 472 l 392 546 l 694 546 l 694 472 l 600 472 l 365 274 l 601 74 l 700 74 z "},"l":{"ha":361,"x_min":38,"x_max":331,"o":"m 38 74 l 139 74 l 139 724 l 40 724 l 40 796 l 242 796 l 242 74 l 331 74 l 331 0 l 38 0 l 38 74 z "},"ĺ":{"ha":361,"x_min":38,"x_max":349,"o":"m 38 74 l 139 74 l 139 724 l 40 724 l 40 796 l 242 796 l 242 74 l 331 74 l 331 0 l 38 0 l 38 74 m 232 1115 l 349 1115 l 224 914 l 158 914 l 232 1115 z "},"ľ":{"ha":436,"x_min":38,"x_max":431,"o":"m 38 74 l 139 74 l 139 724 l 40 724 l 40 796 l 242 796 l 242 74 l 331 74 l 331 0 l 38 0 l 38 74 m 296 585 q 354 611 336 592 q 372 672 372 631 l 297 672 l 297 796 l 431 796 l 429 671 q 397 574 431 608 q 296 539 364 539 l 296 585 z "},"ļ":{"ha":361,"x_min":38,"x_max":331,"o":"m 38 74 l 139 74 l 139 724 l 40 724 l 40 796 l 242 796 l 242 74 l 331 74 l 331 0 l 38 0 l 38 74 m 121 -283 q 180 -253 161 -276 q 199 -190 199 -231 l 124 -190 l 124 -69 l 256 -69 l 256 -193 q 222 -292 256 -257 q 121 -328 189 -328 l 121 -283 z "},"ŀ":{"ha":361,"x_min":38,"x_max":449,"o":"m 38 74 l 139 74 l 139 724 l 40 724 l 40 796 l 242 796 l 242 74 l 331 74 l 331 0 l 38 0 l 38 74 m 374 381 q 320 401 342 381 q 299 451 299 422 q 320 501 299 481 q 374 521 342 521 q 427 501 406 521 q 449 451 449 481 q 427 401 449 422 q 374 381 406 381 z "},"ḷ":{"ha":361,"x_min":38,"x_max":331,"o":"m 38 74 l 139 74 l 139 724 l 40 724 l 40 796 l 242 796 l 242 74 l 331 74 l 331 0 l 38 0 l 38 74 m 188 -194 q 140 -176 160 -194 q 121 -132 121 -157 q 140 -87 121 -106 q 188 -69 158 -69 q 235 -86 217 -69 q 253 -132 253 -103 q 236 -176 254 -157 q 188 -194 218 -194 z "},"ǉ":{"ha":707,"x_min":38,"x_max":622,"o":"m 38 74 l 139 74 l 139 724 l 40 724 l 40 796 l 242 796 l 242 74 l 331 74 l 331 0 l 38 0 l 38 74 m 547 665 q 494 686 515 665 q 472 738 472 707 q 494 787 472 767 q 547 807 515 807 q 601 787 579 807 q 622 738 622 767 q 601 686 622 707 q 547 665 579 665 m 368 -131 l 426 -131 q 499 -106 481 -131 q 517 -19 517 -81 l 517 472 l 406 472 l 406 546 l 621 546 l 621 6 q 608 -112 621 -67 q 553 -184 596 -157 q 428 -211 511 -211 l 368 -211 l 368 -131 z "},"ḻ":{"ha":361,"x_min":38,"x_max":333,"o":"m 38 74 l 139 74 l 139 724 l 40 724 l 40 796 l 242 796 l 242 74 l 331 74 l 331 0 l 38 0 l 38 74 m 42 -51 l 333 -51 l 333 -114 l 42 -114 l 42 -51 z "},"ł":{"ha":353,"x_min":33,"x_max":342,"o":"m 242 375 l 242 74 l 331 74 l 331 0 l 38 0 l 38 74 l 139 74 l 139 321 l 33 267 l 33 351 l 139 407 l 139 724 l 40 724 l 40 796 l 242 796 l 242 463 l 342 515 l 342 426 l 242 375 z "},"m":{"ha":1093,"x_min":31,"x_max":1090,"o":"m 1090 74 l 1090 0 l 797 0 l 797 74 l 889 74 l 889 358 q 861 447 889 415 q 785 479 833 479 q 607 417 700 479 q 611 375 611 396 l 611 74 l 711 74 l 711 0 l 418 0 l 418 74 l 510 74 l 510 358 q 482 447 510 415 q 406 479 454 479 q 238 424 335 479 l 238 74 l 336 74 l 336 0 l 31 0 l 31 74 l 136 74 l 136 472 l 31 472 l 31 546 l 238 546 l 238 493 q 432 560 343 560 q 526 537 486 560 q 588 474 567 514 q 701 538 649 515 q 811 560 754 560 q 940 512 889 560 q 990 378 990 464 l 990 74 l 1090 74 z "},"ṁ":{"ha":1093,"x_min":31,"x_max":1090,"o":"m 1090 74 l 1090 0 l 797 0 l 797 74 l 889 74 l 889 358 q 861 447 889 415 q 785 479 833 479 q 607 417 700 479 q 611 375 611 396 l 611 74 l 711 74 l 711 0 l 418 0 l 418 74 l 510 74 l 510 358 q 482 447 510 415 q 406 479 454 479 q 238 424 335 479 l 238 74 l 336 74 l 336 0 l 31 0 l 31 74 l 136 74 l 136 472 l 31 472 l 31 546 l 238 546 l 238 493 q 432 560 343 560 q 526 537 486 560 q 588 474 567 514 q 701 538 649 515 q 811 560 754 560 q 940 512 889 560 q 990 378 990 464 l 990 74 l 1090 74 m 579 639 q 532 658 551 639 q 513 701 513 676 q 531 746 513 728 q 579 764 550 764 q 626 747 608 764 q 644 701 644 731 q 628 658 646 676 q 579 639 610 639 z "},"ṃ":{"ha":1093,"x_min":31,"x_max":1090,"o":"m 1090 74 l 1090 0 l 797 0 l 797 74 l 889 74 l 889 358 q 861 447 889 415 q 785 479 833 479 q 607 417 700 479 q 611 375 611 396 l 611 74 l 711 74 l 711 0 l 418 0 l 418 74 l 510 74 l 510 358 q 482 447 510 415 q 406 479 454 479 q 238 424 335 479 l 238 74 l 336 74 l 336 0 l 31 0 l 31 74 l 136 74 l 136 472 l 31 472 l 31 546 l 238 546 l 238 493 q 432 560 343 560 q 526 537 486 560 q 588 474 567 514 q 701 538 649 515 q 811 560 754 560 q 940 512 889 560 q 990 378 990 464 l 990 74 l 1090 74 m 561 -194 q 514 -176 533 -194 q 494 -132 494 -157 q 513 -87 494 -106 q 561 -69 532 -69 q 608 -86 590 -69 q 626 -132 626 -103 q 610 -176 628 -157 q 561 -194 592 -194 z "},"n":{"ha":718,"x_min":31,"x_max":715,"o":"m 715 74 l 715 0 l 422 0 l 422 74 l 513 74 l 513 358 q 485 447 513 415 q 408 479 457 479 q 327 465 368 479 q 238 421 286 450 l 238 74 l 336 74 l 336 0 l 31 0 l 31 74 l 136 74 l 136 472 l 31 472 l 31 546 l 238 546 l 238 492 q 435 560 346 560 q 563 512 513 560 q 614 378 614 464 l 614 74 l 715 74 z "},"ń":{"ha":718,"x_min":31,"x_max":715,"o":"m 715 74 l 715 0 l 422 0 l 422 74 l 513 74 l 513 358 q 485 447 513 415 q 408 479 457 479 q 327 465 368 479 q 238 421 286 450 l 238 74 l 336 74 l 336 0 l 31 0 l 31 74 l 136 74 l 136 472 l 31 472 l 31 546 l 238 546 l 238 492 q 435 560 346 560 q 563 512 513 560 q 614 378 614 464 l 614 74 l 715 74 m 433 864 l 550 864 l 425 663 l 360 663 l 433 864 z "},"ŉ":{"ha":1022,"x_min":139,"x_max":1019,"o":"m 139 661 q 197 688 179 668 q 215 749 215 707 l 140 749 l 140 872 l 274 872 l 272 747 q 240 650 274 685 q 139 615 207 615 l 139 661 m 1019 74 l 1019 0 l 726 0 l 726 74 l 817 74 l 817 358 q 789 447 817 415 q 713 479 761 479 q 631 465 672 479 q 542 421 590 450 l 542 74 l 640 74 l 640 0 l 335 0 l 335 74 l 440 74 l 440 472 l 335 472 l 335 546 l 542 546 l 542 492 q 739 560 650 560 q 867 512 817 560 q 918 378 918 464 l 918 74 l 1019 74 z "},"ň":{"ha":718,"x_min":31,"x_max":715,"o":"m 715 74 l 715 0 l 422 0 l 422 74 l 513 74 l 513 358 q 485 447 513 415 q 408 479 457 479 q 327 465 368 479 q 238 421 286 450 l 238 74 l 336 74 l 336 0 l 31 0 l 31 74 l 136 74 l 136 472 l 31 472 l 31 546 l 238 546 l 238 492 q 435 560 346 560 q 563 512 513 560 q 614 378 614 464 l 614 74 l 715 74 m 231 832 l 304 832 l 393 681 l 479 832 l 551 832 l 442 622 l 343 622 l 231 832 z "},"ņ":{"ha":718,"x_min":31,"x_max":715,"o":"m 715 74 l 715 0 l 422 0 l 422 74 l 513 74 l 513 358 q 485 447 513 415 q 408 479 457 479 q 327 465 368 479 q 238 421 286 450 l 238 74 l 336 74 l 336 0 l 31 0 l 31 74 l 136 74 l 136 472 l 31 472 l 31 546 l 238 546 l 238 492 q 435 560 346 560 q 563 512 513 560 q 614 378 614 464 l 614 74 l 715 74 m 321 -283 q 380 -253 361 -276 q 399 -190 399 -231 l 324 -190 l 324 -69 l 456 -69 l 456 -193 q 422 -292 456 -257 q 321 -328 389 -328 l 321 -283 z "},"ṅ":{"ha":718,"x_min":31,"x_max":715,"o":"m 715 74 l 715 0 l 422 0 l 422 74 l 513 74 l 513 358 q 485 447 513 415 q 408 479 457 479 q 327 465 368 479 q 238 421 286 450 l 238 74 l 336 74 l 336 0 l 31 0 l 31 74 l 136 74 l 136 472 l 31 472 l 31 546 l 238 546 l 238 492 q 435 560 346 560 q 563 512 513 560 q 614 378 614 464 l 614 74 l 715 74 m 392 639 q 344 658 364 639 q 325 701 325 676 q 344 746 325 728 q 392 764 363 764 q 439 747 421 764 q 457 701 457 731 q 440 658 458 676 q 392 639 422 639 z "},"ṇ":{"ha":718,"x_min":31,"x_max":715,"o":"m 715 74 l 715 0 l 422 0 l 422 74 l 513 74 l 513 358 q 485 447 513 415 q 408 479 457 479 q 327 465 368 479 q 238 421 286 450 l 238 74 l 336 74 l 336 0 l 31 0 l 31 74 l 136 74 l 136 472 l 31 472 l 31 546 l 238 546 l 238 492 q 435 560 346 560 q 563 512 513 560 q 614 378 614 464 l 614 74 l 715 74 m 388 -194 q 340 -176 360 -194 q 321 -132 321 -157 q 340 -87 321 -106 q 388 -69 358 -69 q 435 -86 417 -69 q 453 -132 453 -103 q 436 -176 454 -157 q 388 -194 418 -194 z "},"ǹ":{"ha":718,"x_min":31,"x_max":715,"o":"m 715 74 l 715 0 l 422 0 l 422 74 l 513 74 l 513 358 q 485 447 513 415 q 408 479 457 479 q 327 465 368 479 q 238 421 286 450 l 238 74 l 336 74 l 336 0 l 31 0 l 31 74 l 136 74 l 136 472 l 31 472 l 31 546 l 238 546 l 238 492 q 435 560 346 560 q 563 512 513 560 q 614 378 614 464 l 614 74 l 715 74 m 233 864 l 350 864 l 424 663 l 358 663 l 233 864 z "},"ŋ":{"ha":718,"x_min":31,"x_max":614,"o":"m 326 -147 q 468 -109 424 -147 q 513 13 513 -71 l 513 358 q 485 447 513 415 q 408 479 457 479 q 238 422 336 479 l 238 74 l 336 74 l 336 0 l 31 0 l 31 74 l 136 74 l 136 472 l 31 472 l 31 546 l 238 546 l 238 492 q 435 560 347 560 q 563 512 513 560 q 614 378 614 464 l 614 19 q 535 -164 614 -107 q 326 -221 457 -221 l 326 -147 z "},"ǌ":{"ha":1064,"x_min":31,"x_max":979,"o":"m 715 74 l 715 0 l 422 0 l 422 74 l 513 74 l 513 358 q 485 447 513 415 q 408 479 457 479 q 327 465 368 479 q 238 421 286 450 l 238 74 l 336 74 l 336 0 l 31 0 l 31 74 l 136 74 l 136 472 l 31 472 l 31 546 l 238 546 l 238 492 q 435 560 346 560 q 563 512 513 560 q 614 378 614 464 l 614 74 l 715 74 m 904 665 q 851 686 872 665 q 829 738 829 707 q 851 787 829 767 q 904 807 872 807 q 958 787 936 807 q 979 738 979 767 q 958 686 979 707 q 904 665 936 665 m 725 -131 l 783 -131 q 856 -106 838 -131 q 874 -19 874 -81 l 874 472 l 763 472 l 763 546 l 978 546 l 978 6 q 965 -112 978 -67 q 910 -184 953 -157 q 785 -211 868 -211 l 725 -211 l 725 -131 z "},"ṉ":{"ha":718,"x_min":31,"x_max":715,"o":"m 715 74 l 715 0 l 422 0 l 422 74 l 513 74 l 513 358 q 485 447 513 415 q 408 479 457 479 q 327 465 368 479 q 238 421 286 450 l 238 74 l 336 74 l 336 0 l 31 0 l 31 74 l 136 74 l 136 472 l 31 472 l 31 546 l 238 546 l 238 492 q 435 560 346 560 q 563 512 513 560 q 614 378 614 464 l 614 74 l 715 74 m 242 -51 l 533 -51 l 533 -114 l 242 -114 l 242 -51 z "},"ñ":{"ha":718,"x_min":31,"x_max":715,"o":"m 715 74 l 715 0 l 422 0 l 422 74 l 513 74 l 513 358 q 485 447 513 415 q 408 479 457 479 q 327 465 368 479 q 238 421 286 450 l 238 74 l 336 74 l 336 0 l 31 0 l 31 74 l 136 74 l 136 472 l 31 472 l 31 546 l 238 546 l 238 492 q 435 560 346 560 q 563 512 513 560 q 614 378 614 464 l 614 74 l 715 74 m 479 653 q 438 659 460 653 q 398 672 417 665 q 374 681 379 678 q 294 704 318 704 q 266 694 276 704 q 251 658 256 683 l 208 658 q 240 750 214 719 q 310 781 267 781 q 407 753 340 781 q 485 729 465 729 q 518 740 506 729 q 536 778 531 751 l 576 778 q 549 687 572 721 q 479 653 525 653 z "},"o":{"ha":661,"x_min":35,"x_max":626,"o":"m 329 -17 q 175 19 242 -17 q 72 122 108 56 q 35 274 35 188 q 72 425 35 360 q 175 526 108 490 q 329 561 242 561 q 484 526 417 561 q 589 425 551 490 q 626 275 626 360 q 589 122 626 189 q 484 19 551 56 q 329 -17 417 -17 m 329 64 q 468 122 415 64 q 521 275 521 179 q 468 424 521 368 q 329 481 415 481 q 192 424 243 481 q 140 274 140 367 q 192 122 140 179 q 329 64 244 64 z "},"ó":{"ha":661,"x_min":35,"x_max":626,"o":"m 329 -17 q 175 19 242 -17 q 72 122 108 56 q 35 274 35 188 q 72 425 35 360 q 175 526 108 490 q 329 561 242 561 q 484 526 417 561 q 589 425 551 490 q 626 275 626 360 q 589 122 626 189 q 484 19 551 56 q 329 -17 417 -17 m 329 64 q 468 122 415 64 q 521 275 521 179 q 468 424 521 368 q 329 481 415 481 q 192 424 243 481 q 140 274 140 367 q 192 122 140 179 q 329 64 244 64 m 371 864 l 488 864 l 363 663 l 297 663 l 371 864 z "},"ŏ":{"ha":661,"x_min":35,"x_max":626,"o":"m 329 -17 q 175 19 242 -17 q 72 122 108 56 q 35 274 35 188 q 72 425 35 360 q 175 526 108 490 q 329 561 242 561 q 484 526 417 561 q 589 425 551 490 q 626 275 626 360 q 589 122 626 189 q 484 19 551 56 q 329 -17 417 -17 m 329 64 q 468 122 415 64 q 521 275 521 179 q 468 424 521 368 q 329 481 415 481 q 192 424 243 481 q 140 274 140 367 q 192 122 140 179 q 329 64 244 64 m 326 625 q 224 663 265 625 q 176 764 183 700 l 244 764 q 329 688 260 688 q 384 708 361 688 q 413 764 407 728 l 482 764 q 433 662 475 699 q 326 625 392 625 z "},"ǒ":{"ha":661,"x_min":35,"x_max":626,"o":"m 329 -17 q 175 19 242 -17 q 72 122 108 56 q 35 274 35 188 q 72 425 35 360 q 175 526 108 490 q 329 561 242 561 q 484 526 417 561 q 589 425 551 490 q 626 275 626 360 q 589 122 626 189 q 484 19 551 56 q 329 -17 417 -17 m 329 64 q 468 122 415 64 q 521 275 521 179 q 468 424 521 368 q 329 481 415 481 q 192 424 243 481 q 140 274 140 367 q 192 122 140 179 q 329 64 244 64 m 168 832 l 242 832 l 331 681 l 417 832 l 489 832 l 379 622 l 281 622 l 168 832 z "},"ô":{"ha":661,"x_min":35,"x_max":626,"o":"m 329 -17 q 175 19 242 -17 q 72 122 108 56 q 35 274 35 188 q 72 425 35 360 q 175 526 108 490 q 329 561 242 561 q 484 526 417 561 q 589 425 551 490 q 626 275 626 360 q 589 122 626 189 q 484 19 551 56 q 329 -17 417 -17 m 329 64 q 468 122 415 64 q 521 275 521 179 q 468 424 521 368 q 329 481 415 481 q 192 424 243 481 q 140 274 140 367 q 192 122 140 179 q 329 64 244 64 m 275 842 l 383 842 l 499 624 l 421 624 l 329 797 l 238 624 l 160 624 l 275 842 z "},"ố":{"ha":661,"x_min":35,"x_max":626,"o":"m 329 -17 q 175 19 242 -17 q 72 122 108 56 q 35 274 35 188 q 72 425 35 360 q 175 526 108 490 q 329 561 242 561 q 484 526 417 561 q 589 425 551 490 q 626 275 626 360 q 589 122 626 189 q 484 19 551 56 q 329 -17 417 -17 m 329 64 q 468 122 415 64 q 521 275 521 179 q 468 424 521 368 q 329 481 415 481 q 192 424 243 481 q 140 274 140 367 q 192 122 140 179 q 329 64 244 64 m 519 910 l 622 910 l 525 750 l 460 750 l 519 910 m 275 800 l 383 800 l 499 624 l 421 624 l 329 756 l 238 624 l 160 624 l 275 800 z "},"ộ":{"ha":661,"x_min":35,"x_max":626,"o":"m 329 -17 q 175 19 242 -17 q 72 122 108 56 q 35 274 35 188 q 72 425 35 360 q 175 526 108 490 q 329 561 242 561 q 484 526 417 561 q 589 425 551 490 q 626 275 626 360 q 589 122 626 189 q 484 19 551 56 q 329 -17 417 -17 m 329 64 q 468 122 415 64 q 521 275 521 179 q 468 424 521 368 q 329 481 415 481 q 192 424 243 481 q 140 274 140 367 q 192 122 140 179 q 329 64 244 64 m 331 -194 q 283 -176 303 -194 q 264 -132 264 -157 q 283 -87 264 -106 q 331 -69 301 -69 q 378 -86 360 -69 q 396 -132 396 -103 q 379 -176 397 -157 q 331 -194 361 -194 m 275 842 l 383 842 l 499 624 l 421 624 l 329 797 l 238 624 l 160 624 l 275 842 z "}}}
